<svg version="1.1" id="Layer_1" xmlns="http://www.w3.org/2000/svg" xmlns:xlink="http://www.w3.org/1999/xlink" x="0px" y="0px"
	 width="100%" viewBox="0 0 224 224" enable-background="new 0 0 224 224" xml:space="preserve">
<path fill="#FEFEFF" opacity="1.000000" stroke="none" 
	d="
M127.000000,225.000000 
	C84.666672,225.000000 42.833340,225.000000 1.000006,225.000000 
	C1.000004,150.333344 1.000004,75.666679 1.000002,1.000016 
	C75.666656,1.000010 150.333313,1.000010 224.999969,1.000005 
	C224.999985,75.666649 224.999985,150.333298 225.000000,224.999969 
	C192.500000,225.000000 160.000000,225.000000 127.000000,225.000000 
M61.894714,75.614563 
	C61.648056,77.075844 61.401398,78.537132 60.877716,80.534416 
	C60.484032,80.969940 60.090347,81.405464 59.187302,82.377663 
	C58.439903,85.591568 57.692509,88.805481 56.770580,92.201408 
	C56.770580,92.201408 56.884682,92.426292 56.304962,92.973137 
	C54.126377,100.610344 51.947788,108.247543 49.883053,115.904228 
	C49.883053,115.904228 49.855461,115.792076 49.373436,116.019722 
	C49.304134,116.341682 49.234833,116.663651 49.005806,117.767960 
	C47.328499,123.887688 45.623707,130.000076 43.986057,136.130386 
	C43.223484,138.985001 42.591141,141.874374 41.267475,145.179092 
	C39.198334,152.286240 37.129192,159.393387 34.971085,166.806107 
	C40.671391,166.806107 45.610912,166.806107 50.829247,166.806107 
	C51.239311,164.807343 51.628834,162.908691 52.286106,160.606277 
	C52.286106,160.606277 52.329399,160.123764 52.809341,159.598099 
	C54.199806,154.993103 55.891632,150.451965 56.885288,145.762894 
	C57.678837,142.018127 59.550182,141.179810 63.105221,141.221146 
	C74.423462,141.352753 85.745903,141.123230 97.810616,141.153534 
	C98.805374,141.261581 99.800133,141.369629 100.864189,142.224762 
	C102.924553,148.812027 104.984917,155.399307 106.969849,162.716278 
	C107.345390,163.906967 107.720932,165.097656 108.096474,166.288345 
	C108.443718,166.200729 108.790955,166.113113 109.138199,166.025513 
	C108.967110,164.617172 108.796021,163.208847 108.644783,160.983597 
	C108.529152,147.678207 108.413521,134.372818 108.630569,120.425491 
	C108.573090,118.971771 108.515602,117.518051 108.895958,115.671432 
	C109.224411,115.487267 109.552864,115.303101 109.980980,115.572418 
	C109.980980,115.572418 110.143951,116.007179 110.153526,116.783012 
	C112.179977,123.520180 114.206421,130.257339 116.125824,137.763016 
	C117.110725,141.499161 118.095634,145.235306 118.339775,149.000641 
	C117.675598,149.813385 117.011421,150.626144 116.347252,151.438904 
	C118.160248,151.544800 119.973244,151.650711 122.546143,151.800995 
	C122.920372,152.127716 124.008194,153.077423 125.113510,154.858398 
	C125.022842,156.238068 124.932182,157.617722 124.113091,159.114044 
	C123.455803,161.069153 122.566154,162.993195 122.297798,165.000305 
	C122.227028,165.529648 124.074936,166.315506 125.540855,167.043060 
	C125.695686,166.979095 125.850525,166.915131 126.859550,166.962097 
	C128.578613,166.902924 130.297684,166.843735 132.935883,166.968002 
	C142.282120,166.904495 151.628342,166.840988 161.845245,166.911667 
	C163.883698,166.780884 165.922134,166.650116 168.694183,166.636749 
	C170.366486,166.207779 172.038803,165.778793 174.367798,165.388870 
	C175.579819,164.955490 176.791840,164.522110 178.725754,164.053421 
	C180.118546,162.895630 181.511337,161.737839 183.472214,160.291351 
	C185.020187,157.896301 186.568161,155.501251 188.680252,152.879364 
	C189.196579,152.259232 190.102020,151.678955 190.170212,151.012939 
	C191.037155,142.544632 192.244141,134.072632 192.403061,125.583572 
	C192.513184,119.700539 191.847015,113.561646 187.010880,108.235977 
	C182.050674,101.867958 175.190704,99.409317 167.467026,99.116699 
	C161.342209,98.884651 155.180725,99.386162 149.075119,98.974632 
	C145.752594,98.750687 142.512573,97.302750 138.844147,95.840569 
	C134.060471,90.538841 135.481842,84.001823 135.474762,77.850700 
	C135.465714,69.982002 137.500381,67.493195 145.948090,64.863304 
	C156.623062,64.810646 167.298035,64.757988 178.745422,64.899925 
	C179.123856,63.594444 179.502274,62.288963 180.020386,60.067272 
	C180.020386,56.126541 180.020386,52.185806 180.020386,49.222946 
	C167.027863,49.222946 154.541000,49.222946 141.332550,49.212612 
	C138.853790,50.461651 136.375031,51.710686 133.353287,53.084816 
	C132.900711,53.403137 132.448120,53.721458 131.319550,53.893066 
	C130.207748,54.649166 129.095963,55.405266 127.438004,56.076511 
	C127.226761,56.366714 127.015511,56.656918 126.398529,56.918209 
	C126.398529,56.918209 126.009399,57.036659 125.462189,56.544445 
	C125.102425,54.319279 124.742653,52.094116 124.172188,48.565773 
	C120.375549,48.439114 115.744194,48.140766 111.126587,48.284271 
	C110.426796,48.306019 109.207153,50.384609 109.212265,51.507320 
	C109.299263,70.586784 109.568031,89.665382 109.678619,108.744858 
	C109.684631,109.782005 108.655396,110.825150 108.095345,111.081726 
	C105.115753,101.132935 102.101807,91.194260 99.167923,81.232010 
	C96.989304,73.834312 94.914574,66.406029 92.780518,58.237030 
	C92.076675,55.868813 91.680138,53.339104 90.552635,51.193516 
	C89.886337,49.925575 88.080345,48.496559 86.757996,48.467812 
	C81.634338,48.356403 76.489388,48.661541 71.375549,49.089008 
	C70.211060,49.186352 68.434402,50.178822 68.146263,51.126293 
	C66.862503,55.347523 66.016548,59.701897 64.476456,64.531715 
	C63.703178,68.027107 62.929897,71.522499 61.894714,75.614563 
z"/>
<path fill="#FBFCFD" opacity="1.000000" stroke="none" 
	d="
M125.096008,154.027145 
	C124.008194,153.077423 122.920372,152.127716 122.546143,151.800995 
	C119.973244,151.650711 118.160248,151.544800 116.347244,151.438904 
	C117.011421,150.626144 117.675598,149.813385 119.118568,149.044098 
	C121.266151,149.010727 122.634941,148.933899 124.382034,148.813217 
	C124.792450,147.514877 124.824570,146.260422 124.940079,144.582596 
	C124.971252,142.437851 124.919037,140.716461 124.932648,138.530548 
	C124.956169,129.042191 124.913857,120.018349 124.942444,110.610474 
	C125.024391,109.185646 125.035446,108.144852 125.364868,107.194473 
	C130.080170,112.309776 135.864014,114.618378 142.294937,115.025429 
	C149.049545,115.452965 155.873093,114.938255 162.603775,115.538681 
	C166.368881,115.874565 170.006638,117.637833 173.836121,119.073204 
	C174.949051,124.473778 176.540695,129.530334 176.780594,134.650253 
	C177.304672,145.834854 176.051193,147.298050 165.484879,150.925125 
	C152.037201,150.890350 139.052353,150.908478 126.002808,150.664383 
	C125.718994,150.374237 125.499878,150.346283 125.280769,150.318329 
	C125.424629,150.646393 125.568489,150.974457 125.653702,151.590546 
	C125.428711,152.594757 125.262360,153.310959 125.096008,154.027145 
z"/>
<path fill="#2F3290" opacity="1.000000" stroke="none" 
	d="
M56.884682,92.426292 
	C56.884682,92.426292 56.770580,92.201408 57.228733,92.049561 
	C61.046432,89.082985 60.454964,85.478661 59.696663,81.840996 
	C60.090347,81.405464 60.484032,80.969940 61.372452,80.182907 
	C62.247643,78.227554 62.628101,76.623711 63.131588,74.742035 
	C63.841427,73.644402 64.428230,72.824608 65.389175,71.954712 
	C68.853760,67.406708 71.102242,62.670647 69.984856,56.651947 
	C69.991646,55.881069 69.997955,55.440590 70.275803,54.775875 
	C71.289444,52.234589 72.612854,51.315258 74.979736,52.596104 
	C75.805870,53.043171 76.937614,53.800465 77.593071,53.546619 
	C81.997177,51.841022 85.517349,53.696770 88.993767,56.333031 
	C89.003716,57.100826 89.008362,57.539452 89.148972,58.305420 
	C89.669838,60.482948 90.025520,62.339821 90.447311,64.181557 
	C90.939751,66.331802 91.232025,68.576134 92.069572,70.588882 
	C93.729988,74.579102 96.563126,78.276398 97.339859,82.391434 
	C98.385002,87.928383 102.333801,94.315041 93.656227,99.689827 
	C97.217072,100.356812 99.228302,100.733536 102.090385,101.269630 
	C103.218246,106.220139 104.692894,111.541885 105.572929,116.960213 
	C106.159073,120.569107 105.897064,124.315742 106.016083,128.374969 
	C106.017349,129.497635 106.017212,130.246063 105.764954,131.167038 
	C105.358292,131.915573 105.203758,132.491562 105.046890,133.477539 
	C105.041100,135.254196 105.037651,136.620895 104.771385,138.155090 
	C103.575882,138.364395 102.638611,138.483673 101.711624,138.428940 
	C100.470963,138.355637 99.238258,138.147537 97.853317,137.659164 
	C96.930702,134.049393 94.762375,132.927124 91.534927,132.970001 
	C84.108177,133.068680 76.679077,133.029327 69.251244,132.989212 
	C65.831497,132.970734 63.952259,134.440369 63.740711,137.997833 
	C63.318153,138.007645 63.149178,138.013535 62.652191,138.022598 
	C61.886841,138.031326 61.449501,138.036880 60.821968,137.785110 
	C56.787682,137.486755 52.262657,135.357376 49.710377,141.369568 
	C51.690205,141.987930 53.325035,142.498566 54.963707,143.338348 
	C54.960300,144.106369 54.953049,144.545197 54.538143,144.989029 
	C51.059048,144.582275 49.523998,145.754333 49.755260,149.190979 
	C49.680908,150.601151 49.851997,151.820541 50.023354,153.273834 
	C50.023624,153.507721 50.015846,153.975433 50.010170,154.312836 
	C50.003109,155.099960 50.001728,155.549683 50.105835,156.218231 
	C50.406521,156.711090 50.664383,156.899231 50.990421,157.377411 
	C50.995922,158.505295 50.995911,159.257217 50.995865,160.249573 
	C50.995834,160.490005 50.992722,160.971222 50.672432,160.984802 
	C49.924942,161.011734 49.497742,161.025101 48.669739,161.018158 
	C47.180523,159.721695 45.885361,158.565231 45.058819,157.137466 
	C44.136852,155.544846 43.640701,153.705704 42.922318,151.611603 
	C42.603352,149.833908 42.321281,148.418488 42.386246,146.945374 
	C44.264309,143.684586 46.761086,140.574600 47.081284,137.254700 
	C47.479179,133.129135 49.024857,130.991394 53.435894,130.151505 
	C50.588051,125.072105 50.643143,120.424164 53.781540,115.917801 
	C54.262302,115.227463 53.939865,113.977745 53.987682,112.743393 
	C53.986458,112.500038 53.988430,112.013336 54.117405,111.715042 
	C54.491150,110.600060 54.735924,109.783371 54.977940,108.725548 
	C54.975185,108.484421 54.980564,108.002174 55.257111,107.773010 
	C55.689079,106.362358 55.844501,105.180878 56.003090,103.749939 
	C56.006260,103.500473 56.018242,103.001656 56.398659,102.995468 
	C58.157486,101.630188 59.535892,100.271080 60.914307,98.911972 
	C59.620174,98.273796 58.326046,97.635605 57.028931,96.542221 
	C56.978859,94.866776 56.931770,93.646538 56.884682,92.426292 
M96.220924,128.441666 
	C96.416145,128.712357 96.672897,128.897919 97.078262,129.714783 
	C97.983765,130.408432 98.889259,131.102081 99.794754,131.795731 
	C100.196297,130.863754 100.597839,129.931763 101.308090,128.291779 
	C101.644096,126.360878 101.844994,124.394417 102.341957,122.505875 
	C103.718925,117.273186 101.717194,114.200142 95.931908,112.300591 
	C95.283447,110.866562 94.634979,109.432533 93.987228,107.338242 
	C93.986694,106.898064 93.986160,106.457878 93.995781,105.260788 
	C93.324646,104.177757 92.653519,103.094734 91.497147,101.670944 
	C91.331131,101.114258 91.165108,100.557564 91.315659,99.706520 
	C90.878944,99.485542 90.442223,99.264565 89.611832,99.021866 
	C89.611832,99.021866 89.218719,98.991684 88.944839,98.423813 
	C88.868790,98.012131 88.792740,97.600456 89.340126,96.713341 
	C89.533699,96.101593 90.013115,95.416611 89.877953,94.889107 
	C87.864914,87.032646 85.858955,79.171440 83.604347,71.382843 
	C83.248108,70.152199 81.682060,69.271759 80.764320,68.121483 
	C80.764320,68.121483 80.754219,68.260963 80.884247,67.612572 
	C80.582893,67.084702 80.281540,66.556839 79.588966,65.893387 
	C79.056465,66.599525 78.523964,67.305664 77.240562,68.087250 
	C75.818993,71.721878 74.397415,75.356506 72.395966,79.059464 
	C72.262199,79.706421 72.128433,80.353386 71.993584,81.665176 
	C71.996536,82.108391 71.999489,82.551598 71.989853,83.672653 
	C71.646812,84.444473 71.303772,85.216301 70.240196,86.082657 
	C69.175583,88.406906 68.110962,90.731148 67.035507,93.689659 
	C67.033699,94.113113 67.031898,94.536568 67.046944,95.563171 
	C67.359558,96.040077 67.672165,96.516991 67.979309,97.659019 
	C67.968170,98.102295 67.957031,98.545570 67.258850,99.111420 
	C66.511459,100.749298 65.764069,102.387169 65.014694,104.683228 
	C65.009285,105.121994 65.003883,105.560753 64.316063,106.111687 
	C64.209885,107.407585 64.103699,108.703484 63.999603,110.833069 
	C63.994705,112.222717 63.989807,113.612373 63.266350,115.084068 
	C61.480145,117.211418 59.693939,119.338768 57.489044,121.964775 
	C59.721935,123.049545 61.512562,123.919464 63.172165,124.808884 
	C63.172165,124.808884 63.230366,124.689888 63.153500,125.385834 
	C63.767399,125.927261 64.381302,126.468689 65.087677,127.657692 
	C66.058449,127.771835 67.029228,127.885986 68.666977,128.000000 
	C69.111298,128.000046 69.555611,128.000092 70.543182,128.573410 
	C74.362122,128.715790 78.181061,128.858185 82.774666,129.000153 
	C84.183136,128.666748 85.591599,128.333344 87.750076,127.999992 
	C88.500122,127.999924 89.250160,127.999855 90.593262,128.221802 
	C92.060760,128.144180 93.528267,128.066544 95.494324,127.992561 
	C95.494324,127.992561 95.992844,127.986237 96.001251,127.998756 
	C96.001251,127.998756 96.014145,128.006485 96.220924,128.441666 
M96.587296,108.517090 
	C96.587296,108.517090 96.476768,108.582916 96.587296,108.517090 
z"/>
<path fill="#1F234B" opacity="1.000000" stroke="none" 
	d="
M124.866829,138.995071 
	C124.919037,140.716461 124.971252,142.437851 124.633820,144.626892 
	C124.164017,146.348724 124.083870,147.602905 124.003723,148.857086 
	C122.634941,148.933899 121.266151,149.010727 119.488953,149.029495 
	C118.095634,145.235306 117.110725,141.499161 116.507111,137.296906 
	C117.459244,133.101089 113.459671,118.876091 111.070457,116.271187 
	C110.885513,116.069542 110.458473,116.089966 110.143951,116.007179 
	C110.143951,116.007179 109.980980,115.572418 109.942917,115.036705 
	C109.282135,114.023514 108.659424,113.546036 108.043030,112.767105 
	C108.068916,112.265610 108.088478,112.065552 108.108047,111.865501 
	C108.655396,110.825150 109.684631,109.782005 109.678619,108.744858 
	C109.568031,89.665382 109.299263,70.586784 109.212265,51.507320 
	C109.207153,50.384609 110.426796,48.306019 111.126587,48.284271 
	C115.744194,48.140766 120.375549,48.439114 124.172188,48.565773 
	C124.742653,52.094116 125.102425,54.319279 125.734924,57.173889 
	C125.960548,58.312134 125.913422,58.820938 125.569519,59.171482 
	C124.615105,59.151508 123.553856,59.084961 123.363373,59.460312 
	C121.767761,62.604565 120.332054,65.829956 118.576752,69.342194 
	C118.197815,74.095543 117.925560,78.541855 118.040115,82.978172 
	C118.117752,85.985161 118.738808,88.978104 119.337784,92.280502 
	C121.363342,97.164658 123.167953,101.745644 124.949997,106.524887 
	C124.927437,106.723152 125.046494,107.104065 125.046494,107.104065 
	C125.035446,108.144852 125.024391,109.185646 124.553894,110.709946 
	C123.748344,111.713181 123.105797,112.229919 123.100563,112.753036 
	C123.021210,120.684784 122.970833,128.618195 123.091522,136.548523 
	C123.104073,137.372864 124.247902,138.179962 124.866829,138.995071 
z"/>
<path fill="#2E3193" opacity="1.000000" stroke="none" 
	d="
M131.995544,54.039780 
	C132.448120,53.721458 132.900711,53.403137 134.061340,53.034489 
	C137.977219,53.539242 141.223053,54.721661 144.385620,54.530037 
	C153.342239,53.987354 162.250565,52.667652 171.205780,52.075012 
	C177.065765,51.687214 179.005020,55.457355 176.121475,60.828888 
	C175.740372,61.538830 175.369278,62.254143 174.531189,62.976246 
	C170.047577,62.979774 166.026337,62.974030 161.959106,62.606972 
	C158.551834,58.331306 149.031464,58.744625 144.993622,62.986256 
	C144.996155,62.992195 144.998169,63.003708 144.664871,63.001511 
	C143.887177,62.997925 143.442764,62.996540 142.834213,62.681110 
	C139.071655,59.642868 133.322906,59.675163 131.995544,54.039780 
z"/>
<path fill="#2F3289" opacity="1.000000" stroke="none" 
	d="
M108.101700,111.473618 
	C108.088478,112.065552 108.068916,112.265610 108.027191,113.081161 
	C108.156067,114.485886 108.307091,115.275108 108.458122,116.064331 
	C108.515602,117.518051 108.573090,118.971771 108.125076,120.934540 
	C107.084610,123.629303 106.549644,125.815018 106.014679,128.000732 
	C105.897064,124.315742 106.159073,120.569107 105.572929,116.960213 
	C104.692894,111.541885 103.218246,106.220139 102.090385,101.269630 
	C99.228302,100.733536 97.217072,100.356812 93.656227,99.689827 
	C102.333801,94.315041 98.385002,87.928383 97.339859,82.391434 
	C96.563126,78.276398 93.729988,74.579102 92.069572,70.588882 
	C91.232025,68.576134 90.939751,66.331802 90.447311,64.181557 
	C90.025520,62.339821 89.669838,60.482948 89.405411,58.217808 
	C90.615120,58.199017 91.704346,58.595192 92.793564,58.991367 
	C94.914574,66.406029 96.989304,73.834312 99.167923,81.232010 
	C102.101807,91.194260 105.115753,101.132935 108.101700,111.473618 
z"/>
<path fill="#393B81" opacity="1.000000" stroke="none" 
	d="
M187.210419,108.923401 
	C191.847015,113.561646 192.513184,119.700539 192.403061,125.583572 
	C192.244141,134.072632 191.037155,142.544632 190.170212,151.012939 
	C190.102020,151.678955 189.196579,152.259232 188.340149,152.938049 
	C188.000061,152.996719 187.884644,152.886505 187.924179,152.460724 
	C188.207535,143.101791 188.937088,134.145630 188.515427,125.243996 
	C188.257019,119.788948 186.233658,114.417503 185.371078,109.001587 
	C186.229645,108.970901 186.720032,108.947151 187.210419,108.923401 
z"/>
<path fill="#32346D" opacity="1.000000" stroke="none" 
	d="
M125.104759,154.442780 
	C125.262360,153.310959 125.428711,152.594757 125.742340,151.496399 
	C125.889610,151.114243 126.067513,150.926575 126.067513,150.926575 
	C139.052353,150.908478 152.037201,150.890350 165.786194,150.968765 
	C167.039276,151.373703 167.528183,151.682114 167.546509,151.997086 
	C155.626770,152.004501 144.176483,152.100189 132.729050,151.961090 
	C127.925789,151.902740 127.041931,154.448624 126.897720,158.573837 
	C126.746399,162.902359 127.892204,165.125565 132.622803,165.038940 
	C142.077728,164.865784 151.537704,164.967941 161.216614,164.860947 
	C161.715073,164.576462 161.901169,164.320938 161.997986,163.999451 
	C162.000000,164.000000 161.999207,163.995438 162.332794,163.999298 
	C163.111191,164.000259 163.555984,163.997345 164.417267,163.996445 
	C166.221924,163.993286 167.610107,163.988113 169.331940,163.986511 
	C170.110229,163.979935 170.554886,163.969788 171.318115,163.940750 
	C172.422958,163.609711 173.209229,163.297546 174.366516,162.985657 
	C176.167969,162.644409 177.598404,162.302872 178.923340,162.238174 
	C178.546509,163.039597 178.275192,163.564163 178.003860,164.088730 
	C176.791840,164.522110 175.579819,164.955490 173.616455,165.273560 
	C171.230286,165.611938 169.595428,166.065643 167.960587,166.519348 
	C165.922134,166.650116 163.883698,166.780884 161.083832,166.594177 
	C150.887207,166.445953 141.451965,166.615250 132.016739,166.784546 
	C130.297684,166.843735 128.578613,166.902924 126.330635,166.722412 
	C125.619614,166.260269 125.394859,166.096207 125.061478,165.557129 
	C124.944168,163.081604 124.892845,161.039490 124.841522,158.997391 
	C124.932182,157.617722 125.022842,156.238068 125.104759,154.442780 
z"/>
<path fill="#323688" opacity="1.000000" stroke="none" 
	d="
M174.993530,62.966965 
	C175.369278,62.254143 175.740372,61.538830 176.121475,60.828888 
	C179.005020,55.457355 177.065765,51.687214 171.205780,52.075012 
	C162.250565,52.667652 153.342239,53.987354 144.385620,54.530037 
	C141.223053,54.721661 137.977219,53.539242 134.332840,52.971939 
	C136.375031,51.710686 138.853790,50.461651 142.017639,49.466652 
	C151.495270,49.813225 160.287628,49.946228 169.080399,49.987556 
	C179.001556,50.034187 179.001724,49.998314 178.726959,60.200058 
	C178.314529,61.267517 178.158798,62.125324 177.626923,62.985046 
	C176.498352,62.980293 175.745941,62.973629 174.993530,62.966965 
z"/>
<path fill="#303068" opacity="1.000000" stroke="none" 
	d="
M106.016083,128.374969 
	C106.549644,125.815018 107.084610,123.629303 107.958740,121.255508 
	C108.413521,134.372818 108.529152,147.678207 108.368317,161.407990 
	C107.742996,161.883759 107.394135,161.935165 107.045280,161.986572 
	C104.984917,155.399307 102.924553,148.812027 100.836411,141.706696 
	C100.808632,141.188614 100.948586,140.935593 101.264603,141.113739 
	C102.914131,143.802444 104.247643,146.313019 105.581154,148.823593 
	C106.268669,148.576706 106.956177,148.329819 107.643692,148.082932 
	C106.773865,144.717819 105.904030,141.352707 105.034203,137.987595 
	C105.037651,136.620895 105.041100,135.254196 105.332825,133.427765 
	C105.753090,132.310196 105.885078,131.652359 106.017075,130.994507 
	C106.017212,130.246063 106.017349,129.497635 106.016083,128.374969 
z"/>
<path fill="#2F338E" opacity="1.000000" stroke="none" 
	d="
M53.988907,112.986740 
	C53.939865,113.977745 54.262302,115.227463 53.781540,115.917801 
	C50.643143,120.424164 50.588051,125.072105 53.435894,130.151505 
	C49.024857,130.991394 47.479179,133.129135 47.081284,137.254700 
	C46.761086,140.574600 44.264309,143.684586 42.366371,146.569214 
	C41.966236,145.749802 41.933002,145.248901 41.899769,144.748001 
	C42.591141,141.874374 43.223484,138.985001 43.986057,136.130386 
	C45.623707,130.000076 47.328499,123.887688 49.281136,117.232101 
	C49.782444,116.436646 49.882107,116.135262 49.855461,115.792076 
	C49.855461,115.792076 49.883053,115.904228 50.157001,115.815247 
	C51.616936,114.813095 52.802921,113.899918 53.988907,112.986740 
z"/>
<path fill="#343773" opacity="1.000000" stroke="none" 
	d="
M142.998367,62.995152 
	C143.442764,62.996540 143.887177,62.997925 144.668106,63.295422 
	C145.008957,63.983448 145.013275,64.375359 145.017593,64.767273 
	C137.500381,67.493195 135.465714,69.982002 135.474762,77.850700 
	C135.481842,84.001823 134.060471,90.538841 138.969513,96.525429 
	C139.062256,97.480080 139.029633,97.749870 138.654419,97.975708 
	C136.762390,96.511200 134.086655,95.254028 133.852905,93.642616 
	C132.659424,85.415283 130.792877,77.025261 135.275192,68.890060 
	C136.020874,68.178520 136.502029,67.588615 136.990875,66.998932 
	C136.998566,66.999153 136.997879,66.983940 137.244949,66.822716 
	C137.660934,66.109146 137.829865,65.556793 138.006592,64.755936 
	C138.014389,64.507416 138.026428,64.010277 138.411880,64.009354 
	C140.197678,63.670670 141.598022,63.332909 142.998367,62.995152 
z"/>
<path fill="#3C3D77" opacity="1.000000" stroke="none" 
	d="
M138.997009,98.019661 
	C139.029633,97.749870 139.062256,97.480080 139.165100,96.808578 
	C142.512573,97.302750 145.752594,98.750687 149.075119,98.974632 
	C155.180725,99.386162 161.342209,98.884651 167.467026,99.116699 
	C175.190704,99.409317 182.050674,101.867958 187.110657,108.579689 
	C186.720032,108.947151 186.229645,108.970901 185.206146,108.693695 
	C182.580780,107.135498 180.575806,105.690742 178.375031,104.666794 
	C175.382812,103.274605 172.286957,101.332092 169.154221,101.166763 
	C161.255234,100.749863 153.302109,101.431023 145.390045,101.142082 
	C143.223923,101.062988 141.126144,99.111771 138.997009,98.019661 
z"/>
<path fill="#35376F" opacity="1.000000" stroke="none" 
	d="
M50.015846,153.975433 
	C50.015846,153.975433 50.023624,153.507721 50.267632,153.264221 
	C50.511635,153.020706 51.000916,153.007324 51.310486,152.848206 
	C52.728638,150.120728 53.837215,147.552383 54.945801,144.984039 
	C54.953049,144.545197 54.960300,144.106369 55.121628,143.037476 
	C57.187855,140.952423 59.100010,139.497437 61.012161,138.042435 
	C61.449501,138.036880 61.886841,138.031326 62.660225,138.267776 
	C62.996273,138.509766 63.014534,139.000504 63.010555,139.243195 
	C63.006577,139.485870 63.004395,139.971283 63.306496,140.251556 
	C74.761307,140.698959 85.914017,140.866089 97.066719,141.033234 
	C85.745903,141.123230 74.423462,141.352753 63.105221,141.221146 
	C59.550182,141.179810 57.678837,142.018127 56.885288,145.762894 
	C55.891632,150.451965 54.199806,154.993103 52.236870,159.820007 
	C51.441566,160.031006 51.218735,160.020081 50.995899,160.009155 
	C50.995911,159.257217 50.995922,158.505295 50.994446,157.126007 
	C50.991112,156.330994 50.989265,156.163361 50.972908,155.696747 
	C50.644207,154.923645 50.330025,154.449539 50.015846,153.975433 
z"/>
<path fill="#35376F" opacity="1.000000" stroke="none" 
	d="
M92.787041,58.614197 
	C91.704346,58.595192 90.615120,58.199017 89.269455,57.890457 
	C89.008362,57.539452 89.003716,57.100826 88.990891,55.929955 
	C87.857994,53.471718 86.891594,50.412483 85.580406,50.256771 
	C80.617958,49.667473 75.543709,50.019749 70.257507,50.019749 
	C70.151123,52.111973 70.077690,53.556042 70.004265,55.000111 
	C69.997955,55.440590 69.991646,55.881069 69.715126,56.859013 
	C67.989601,59.614307 66.534286,61.832134 65.062347,64.039467 
	C65.045723,64.028969 65.012375,64.008156 65.012375,64.008156 
	C66.016548,59.701897 66.862503,55.347523 68.146263,51.126293 
	C68.434402,50.178822 70.211060,49.186352 71.375549,49.089008 
	C76.489388,48.661541 81.634338,48.356403 86.757996,48.467812 
	C88.080345,48.496559 89.886337,49.925575 90.552635,51.193516 
	C91.680138,53.339104 92.076675,55.868813 92.787041,58.614197 
z"/>
<path fill="#3D406D" opacity="1.000000" stroke="none" 
	d="
M41.583622,144.963547 
	C41.933002,145.248901 41.966236,145.749802 42.019341,146.626877 
	C42.321281,148.418488 42.603352,149.833908 42.572258,151.677444 
	C41.121799,154.722961 39.951519,157.326691 38.856876,159.961823 
	C37.846581,162.393921 37.552738,165.063889 41.104729,164.831116 
	C43.997925,164.641510 49.077812,167.719559 49.070541,161.038452 
	C49.497742,161.025101 49.924942,161.011734 50.928883,160.995483 
	C51.676533,160.998428 51.847446,161.004242 52.018356,161.010040 
	C51.628834,162.908691 51.239311,164.807343 50.829247,166.806107 
	C45.610912,166.806107 40.671391,166.806107 34.971085,166.806107 
	C37.129192,159.393387 39.198334,152.286240 41.583622,144.963547 
z"/>
<path fill="#323688" opacity="1.000000" stroke="none" 
	d="
M142.834213,62.681107 
	C141.598022,63.332909 140.197678,63.670670 138.081436,63.866356 
	C134.599701,62.446701 131.833862,61.169128 128.541840,59.648506 
	C128.299835,61.536514 128.140594,62.778809 127.723747,63.809464 
	C127.001183,62.397789 126.536224,61.197758 125.950195,59.852158 
	C125.829124,59.706585 125.866295,59.329739 125.866295,59.329739 
	C125.913422,58.820938 125.960548,58.312134 126.008530,57.419998 
	C126.009399,57.036659 126.398529,56.918209 126.840797,56.873192 
	C127.602592,56.696156 127.836288,56.473888 127.984161,56.161369 
	C129.095963,55.405266 130.207748,54.649166 131.657547,53.966423 
	C133.322906,59.675163 139.071655,59.642868 142.834213,62.681107 
z"/>
<path fill="#202672" opacity="1.000000" stroke="none" 
	d="
M145.482849,64.815292 
	C145.013275,64.375359 145.008957,63.983448 145.001404,63.297623 
	C144.998169,63.003708 144.996155,62.992195 145.462158,62.991631 
	C151.287140,62.983467 156.646103,62.975872 162.005081,62.968281 
	C166.026337,62.974030 170.047577,62.979774 174.531189,62.976242 
	C175.745941,62.973629 176.498352,62.980293 177.621323,63.272354 
	C177.985596,63.940277 177.979294,64.322800 177.972992,64.705330 
	C167.298035,64.757988 156.623062,64.810646 145.482849,64.815292 
z"/>
<path fill="#32346D" opacity="1.000000" stroke="none" 
	d="
M178.983627,59.990414 
	C179.001724,49.998314 179.001556,50.034187 169.080399,49.987556 
	C160.287628,49.946228 151.495270,49.813225 142.378418,49.471821 
	C154.541000,49.222946 167.027863,49.222946 180.020386,49.222946 
	C180.020386,52.185806 180.020386,56.126541 179.749695,60.412033 
	C179.236786,60.551178 179.071655,60.295719 178.983627,59.990414 
z"/>
<path fill="#383B72" opacity="1.000000" stroke="none" 
	d="
M53.987686,112.743393 
	C52.802921,113.899918 51.616936,114.813095 50.100075,115.805511 
	C51.947788,108.247543 54.126377,100.610344 56.594822,92.699715 
	C56.931770,93.646538 56.978859,94.866776 56.865292,96.890442 
	C56.475838,99.463120 56.247040,101.232391 56.018242,103.001656 
	C56.018242,103.001656 56.006260,103.500473 55.721054,103.884766 
	C55.284084,105.513428 55.132324,106.757797 54.980568,108.002174 
	C54.980564,108.002174 54.975185,108.484421 54.656013,108.779099 
	C54.220707,110.053627 54.104568,111.033485 53.988434,112.013336 
	C53.988430,112.013336 53.986458,112.500038 53.987686,112.743393 
z"/>
<path fill="#1B1E3A" opacity="1.000000" stroke="none" 
	d="
M110.148743,116.395096 
	C110.458473,116.089966 110.885513,116.069542 111.070457,116.271187 
	C113.459671,118.876091 117.459244,133.101089 116.560638,136.912659 
	C114.206421,130.257339 112.179977,123.520180 110.148743,116.395096 
z"/>
<path fill="#191852" opacity="1.000000" stroke="none" 
	d="
M97.438667,141.093384 
	C85.914017,140.866089 74.761307,140.698959 63.774593,140.257538 
	C72.638657,139.958542 81.336723,139.933823 90.457001,139.938538 
	C92.573059,139.946442 94.266914,139.924911 96.258194,139.908447 
	C97.050346,139.640640 97.545067,139.367767 98.320251,139.187241 
	C99.383339,139.831604 100.165962,140.383591 100.948586,140.935593 
	C100.948586,140.935593 100.808632,141.188614 100.801758,141.333145 
	C99.800133,141.369629 98.805374,141.261581 97.438667,141.093384 
z"/>
<path fill="#444673" opacity="1.000000" stroke="none" 
	d="
M132.476318,166.876282 
	C141.451965,166.615250 150.887207,166.445953 160.648499,166.527069 
	C151.628342,166.840988 142.282120,166.904495 132.476318,166.876282 
z"/>
<path fill="#393B81" opacity="1.000000" stroke="none" 
	d="
M188.058105,153.051453 
	C186.568161,155.501251 185.020187,157.896301 183.201569,160.264954 
	C182.930923,160.238571 182.882980,159.896210 182.960327,159.566559 
	C183.358932,158.156723 183.680206,157.076538 184.041901,155.645538 
	C185.349747,154.492004 186.617203,153.689255 187.884644,152.886505 
	C187.884644,152.886505 188.000061,152.996719 188.058105,153.051453 
z"/>
<path fill="#FBFCFD" opacity="1.000000" stroke="none" 
	d="
M124.477303,159.055725 
	C124.892845,161.039490 124.944168,163.081604 124.997665,165.801758 
	C125.013832,166.647736 125.027809,166.815643 125.041794,166.983566 
	C124.074936,166.315506 122.227028,165.529648 122.297798,165.000305 
	C122.566154,162.993195 123.455803,161.069153 124.477303,159.055725 
z"/>
<path fill="#383B72" opacity="1.000000" stroke="none" 
	d="
M59.441986,82.109329 
	C60.454964,85.478661 61.046432,89.082985 57.315998,91.958557 
	C57.692509,88.805481 58.439903,85.591568 59.441986,82.109329 
z"/>
<path fill="#35376F" opacity="1.000000" stroke="none" 
	d="
M65.015038,72.004814 
	C64.428230,72.824608 63.841427,73.644402 62.918556,74.739197 
	C62.582489,75.014206 62.156620,75.017891 62.156620,75.017891 
	C62.929897,71.522499 63.703178,68.027107 64.744415,64.269936 
	C65.012375,64.008156 65.045723,64.028969 65.041229,64.480576 
	C65.029503,67.289726 65.022270,69.647270 65.015038,72.004814 
z"/>
<path fill="#444673" opacity="1.000000" stroke="none" 
	d="
M182.882980,159.896210 
	C182.882980,159.896210 182.930923,160.238571 182.917526,160.409302 
	C181.511337,161.737839 180.118546,162.895630 178.364807,164.071075 
	C178.275192,163.564163 178.546509,163.039597 179.111908,161.984772 
	C180.564987,160.935074 181.723984,160.415649 182.882980,159.896210 
z"/>
<path fill="#2F3289" opacity="1.000000" stroke="none" 
	d="
M62.025665,75.316223 
	C62.156620,75.017891 62.582489,75.014206 62.795525,75.017044 
	C62.628101,76.623711 62.247643,78.227554 61.510963,79.914902 
	C61.401398,78.537132 61.648056,77.075844 62.025665,75.316223 
z"/>
<path fill="#343773" opacity="1.000000" stroke="none" 
	d="
M178.726959,60.200058 
	C179.071655,60.295719 179.236786,60.551178 179.679840,60.870136 
	C179.502274,62.288963 179.123856,63.594444 178.359207,64.802628 
	C177.979294,64.322800 177.985596,63.940277 177.997467,63.270439 
	C178.158798,62.125324 178.314529,61.267517 178.726959,60.200058 
z"/>
<path fill="#8B8CAF" opacity="1.000000" stroke="none" 
	d="
M107.007568,162.351425 
	C107.394135,161.935165 107.742996,161.883759 108.358398,161.816437 
	C108.796021,163.208847 108.967110,164.617172 109.138199,166.025513 
	C108.790955,166.113113 108.443718,166.200729 108.096474,166.288345 
	C107.720932,165.097656 107.345390,163.906967 107.007568,162.351425 
z"/>
<path fill="#444673" opacity="1.000000" stroke="none" 
	d="
M168.327393,166.578049 
	C169.595428,166.065643 171.230286,165.611938 173.288116,165.254028 
	C172.038803,165.778793 170.366486,166.207779 168.327393,166.578049 
z"/>
<path fill="#8B8CAF" opacity="1.000000" stroke="none" 
	d="
M108.677040,115.867882 
	C108.307091,115.275108 108.156067,114.485886 108.020874,113.382614 
	C108.659424,113.546036 109.282135,114.023514 109.893082,114.809967 
	C109.552864,115.303101 109.224411,115.487267 108.677040,115.867882 
z"/>
<path fill="#383B72" opacity="1.000000" stroke="none" 
	d="
M49.614449,115.905899 
	C49.882107,116.135262 49.782444,116.436646 49.361000,116.840927 
	C49.234833,116.663651 49.304134,116.341682 49.614449,115.905899 
z"/>
<path fill="#444673" opacity="1.000000" stroke="none" 
	d="
M125.291321,167.013306 
	C125.027809,166.815643 125.013832,166.647736 125.063652,166.235199 
	C125.394859,166.096207 125.619614,166.260269 125.903549,166.666946 
	C125.850525,166.915131 125.695686,166.979095 125.291321,167.013306 
z"/>
<path fill="#2F3289" opacity="1.000000" stroke="none" 
	d="
M52.152229,160.808167 
	C51.847446,161.004242 51.676533,160.998428 51.249172,160.981903 
	C50.992722,160.971222 50.995834,160.490005 50.995865,160.249573 
	C51.218735,160.020081 51.441566,160.031006 51.996902,160.082855 
	C52.329399,160.123764 52.286106,160.606277 52.152229,160.808167 
z"/>
<path fill="#35366D" opacity="1.000000" stroke="none" 
	d="
M127.711082,56.118938 
	C127.836288,56.473888 127.602592,56.696156 127.043671,56.887646 
	C127.015511,56.656918 127.226761,56.366714 127.711082,56.118938 
z"/>
<path fill="#35366D" opacity="1.000000" stroke="none" 
	d="
M126.071274,59.997726 
	C126.536224,61.197758 127.001183,62.397789 127.561371,64.191269 
	C127.497650,77.198448 127.087784,89.618477 127.398849,102.020424 
	C127.458534,104.400337 127.326538,108.795624 132.158600,109.329468 
	C136.078735,114.063271 141.219910,112.787682 146.471329,112.981049 
	C151.622253,112.976471 156.307495,112.965233 161.401154,112.967407 
	C164.207123,112.988266 166.604660,112.995705 169.248077,113.005310 
	C169.493973,113.007484 169.985748,113.010178 170.145523,113.313248 
	C171.525421,114.084030 172.745544,114.551750 173.973770,115.347885 
	C173.995636,116.113991 174.009415,116.551682 173.949890,117.432785 
	C173.818314,118.170120 173.760040,118.464027 173.701782,118.757927 
	C170.006638,117.637833 166.368881,115.874565 162.603775,115.538681 
	C155.873093,114.938255 149.049545,115.452965 142.294937,115.025429 
	C135.864014,114.618378 130.080170,112.309776 125.364868,107.194473 
	C125.046494,107.104065 124.927437,106.723152 125.290955,106.232574 
	C125.758713,104.097153 125.946930,102.452675 125.953964,100.807419 
	C126.012047,87.204269 126.036583,73.600975 126.071274,59.997726 
z"/>
<path fill="#3C3D77" opacity="1.000000" stroke="none" 
	d="
M173.836121,119.073204 
	C173.760040,118.464027 173.818314,118.170120 174.284088,117.438812 
	C175.458115,117.335327 176.224640,117.669243 177.001556,118.425903 
	C177.351379,125.235817 177.690811,131.622971 178.023529,138.340546 
	C178.017258,139.111664 178.017715,139.552338 178.009827,140.404327 
	C177.324310,143.858688 176.647156,146.901733 175.601135,149.995758 
	C172.827209,150.694687 170.422150,151.342606 168.017090,151.990540 
	C167.528183,151.682114 167.039276,151.373703 166.249054,151.021652 
	C176.051193,147.298050 177.304672,145.834854 176.780594,134.650253 
	C176.540695,129.530334 174.949051,124.473778 173.836121,119.073204 
z"/>
<path fill="#151833" opacity="1.000000" stroke="none" 
	d="
M124.932648,138.530548 
	C124.247902,138.179962 123.104073,137.372864 123.091522,136.548523 
	C122.970833,128.618195 123.021210,120.684784 123.100563,112.753036 
	C123.105797,112.229919 123.748344,111.713181 124.483002,111.093987 
	C124.913857,120.018349 124.956169,129.042191 124.932648,138.530548 
z"/>
<path fill="#151833" opacity="1.000000" stroke="none" 
	d="
M124.382034,148.813217 
	C124.083870,147.602905 124.164017,146.348724 124.550430,145.050247 
	C124.824570,146.260422 124.792450,147.514877 124.382034,148.813217 
z"/>
<path fill="#32346D" opacity="1.000000" stroke="none" 
	d="
M125.800980,151.208374 
	C125.568489,150.974457 125.424629,150.646393 125.280769,150.318329 
	C125.499878,150.346283 125.718994,150.374237 126.002808,150.664368 
	C126.067513,150.926575 125.889610,151.114243 125.800980,151.208374 
z"/>
<path fill="#F8F9FC" opacity="1.000000" stroke="none" 
	d="
M77.991463,68.011795 
	C78.523964,67.305664 79.056465,66.599525 79.757004,66.278503 
	C80.201439,67.196075 80.477829,67.728516 80.754219,68.260963 
	C80.754219,68.260963 80.764320,68.121483 80.796997,68.564720 
	C83.458679,78.401566 86.087685,87.795166 88.716690,97.188774 
	C88.792740,97.600456 88.868790,98.012131 89.029449,99.095169 
	C90.718971,104.219826 92.323875,108.673126 93.948471,113.537430 
	C94.505104,116.041458 95.151466,118.114151 95.545685,120.233734 
	C95.884682,122.056450 97.440544,124.431854 93.518341,124.953407 
	C83.715912,124.919975 74.366203,125.007339 64.751953,124.923080 
	C64.068405,124.730927 63.649384,124.710403 63.230366,124.689880 
	C63.230366,124.689888 63.172165,124.808884 63.261532,124.423538 
	C63.936295,121.033470 64.521698,118.028748 65.320419,114.702835 
	C67.073372,108.593422 68.612991,102.805199 70.369720,96.836563 
	C70.693039,96.116074 70.799263,95.575981 71.020874,94.712387 
	C71.169785,93.933189 71.203293,93.477501 71.468430,92.806763 
	C71.845116,91.564331 71.990173,90.536964 72.432816,89.251160 
	C73.140869,86.991577 73.551338,84.990417 74.174683,82.686859 
	C75.588860,77.593567 76.790161,72.802681 77.991463,68.011795 
z"/>
<path fill="#2F338E" opacity="1.000000" stroke="none" 
	d="
M98.039780,139.094879 
	C97.545067,139.367767 97.050346,139.640640 96.008354,139.653656 
	C93.652321,139.565567 91.843559,139.737335 90.034798,139.909088 
	C81.336723,139.933823 72.638657,139.958542 63.472488,139.977264 
	C63.004395,139.971283 63.006577,139.485870 63.227772,139.134308 
	C63.719868,138.581421 63.901646,138.318466 63.994293,137.993896 
	C63.952259,134.440369 65.831497,132.970734 69.251244,132.989212 
	C76.679077,133.029327 84.108177,133.068680 91.534927,132.970001 
	C94.762375,132.927124 96.930702,134.049393 97.858444,137.933716 
	C98.021523,138.729233 98.030647,138.912048 98.039780,139.094879 
z"/>
<path fill="#2F338E" opacity="1.000000" stroke="none" 
	d="
M48.669739,161.018158 
	C49.077812,167.719559 43.997925,164.641510 41.104729,164.831116 
	C37.552738,165.063889 37.846581,162.393921 38.856876,159.961823 
	C39.951519,157.326691 41.121799,154.722961 42.609146,152.039703 
	C43.640701,153.705704 44.136852,155.544846 45.058819,157.137466 
	C45.885361,158.565231 47.180523,159.721695 48.669739,161.018158 
z"/>
<path fill="#2F338E" opacity="1.000000" stroke="none" 
	d="
M96.003761,112.999382 
	C101.717194,114.200142 103.718925,117.273186 102.341957,122.505875 
	C101.844994,124.394417 101.644096,126.360878 100.823341,128.476532 
	C98.893646,123.440651 97.448708,118.220016 96.003761,112.999382 
z"/>
<path fill="#2F3289" opacity="1.000000" stroke="none" 
	d="
M95.967834,112.649986 
	C97.448708,118.220016 98.893646,123.440651 100.668991,128.830536 
	C100.597839,129.931763 100.196297,130.863754 99.794754,131.795731 
	C98.889259,131.102081 97.983765,130.408432 96.930809,129.139252 
	C96.589249,128.291992 96.332848,128.106247 96.014145,128.006485 
	C96.014145,128.006485 96.001251,127.998756 95.909851,127.826164 
	C95.544220,127.765350 95.269989,127.877129 94.995758,127.988922 
	C93.528267,128.066544 92.060760,128.144180 90.296509,127.779388 
	C89.999184,126.895409 89.998619,126.453842 90.359360,126.008392 
	C91.804131,125.694405 92.887596,125.384300 93.971062,125.074203 
	C97.440544,124.431854 95.884682,122.056450 95.545685,120.233734 
	C95.151466,118.114151 94.505104,116.041458 93.965393,113.181137 
	C93.970581,110.942070 93.978546,109.470291 93.986511,107.998505 
	C94.634979,109.432533 95.283447,110.866562 95.967834,112.649986 
z"/>
<path fill="#35366D" opacity="1.000000" stroke="none" 
	d="
M89.028412,96.951057 
	C86.087685,87.795166 83.458679,78.401566 80.752525,68.618683 
	C81.682060,69.271759 83.248108,70.152199 83.604347,71.382843 
	C85.858955,79.171440 87.864914,87.032646 89.877953,94.889107 
	C90.013115,95.416611 89.533699,96.101593 89.028412,96.951057 
z"/>
<path fill="#2F3289" opacity="1.000000" stroke="none" 
	d="
M70.275803,54.775875 
	C70.077690,53.556042 70.151123,52.111973 70.257507,50.019749 
	C75.543709,50.019749 80.617958,49.667473 85.580406,50.256771 
	C86.891594,50.412483 87.857994,53.471718 88.985588,55.600777 
	C85.517349,53.696770 81.997177,51.841022 77.593071,53.546619 
	C76.937614,53.800465 75.805870,53.043171 74.979736,52.596104 
	C72.612854,51.315258 71.289444,52.234589 70.275803,54.775875 
z"/>
<path fill="#2F3289" opacity="1.000000" stroke="none" 
	d="
M98.320251,139.187241 
	C98.030647,138.912048 98.021523,138.729233 98.007263,138.271881 
	C99.238258,138.147537 100.470963,138.355637 101.711624,138.428940 
	C102.638611,138.483673 103.575882,138.364395 104.771385,138.155090 
	C105.904030,141.352707 106.773865,144.717819 107.643692,148.082932 
	C106.956177,148.329819 106.268669,148.576706 105.581154,148.823593 
	C104.247643,146.313019 102.914131,143.802444 101.264603,141.113739 
	C100.165962,140.383591 99.383339,139.831604 98.320251,139.187241 
z"/>
<path fill="#2F3289" opacity="1.000000" stroke="none" 
	d="
M65.389175,71.954712 
	C65.022270,69.647270 65.029503,67.289726 65.057846,64.491074 
	C66.534286,61.832134 67.989601,59.614307 69.714645,57.189407 
	C71.102242,62.670647 68.853760,67.406708 65.389175,71.954712 
z"/>
<path fill="#2F3289" opacity="1.000000" stroke="none" 
	d="
M60.821972,137.785110 
	C59.100010,139.497437 57.187855,140.952423 55.117786,142.708298 
	C53.325035,142.498566 51.690205,141.987930 49.710377,141.369568 
	C52.262657,135.357376 56.787682,137.486755 60.821972,137.785110 
z"/>
<path fill="#2F3289" opacity="1.000000" stroke="none" 
	d="
M65.107094,115.024017 
	C64.521698,118.028748 63.936295,121.033470 63.327042,124.413788 
	C61.512562,123.919464 59.721935,123.049545 57.489044,121.964775 
	C59.693939,119.338768 61.480145,117.211418 63.906319,115.045807 
	C64.733223,115.013031 64.920158,115.018524 65.107094,115.024017 
z"/>
<path fill="#383B72" opacity="1.000000" stroke="none" 
	d="
M77.616013,68.049522 
	C76.790161,72.802681 75.588860,77.593567 73.848122,82.690025 
	C72.873268,82.995331 72.437851,82.995071 72.002441,82.994812 
	C71.999489,82.551598 71.996536,82.108391 72.241867,81.166626 
	C72.652046,80.109093 72.813942,79.550110 72.975845,78.991135 
	C74.397415,75.356506 75.818993,71.721878 77.616013,68.049522 
z"/>
<path fill="#32346D" opacity="1.000000" stroke="none" 
	d="
M65.320419,114.702835 
	C64.920158,115.018524 64.733223,115.013031 64.265594,115.004776 
	C63.989807,113.612373 63.994705,112.222717 64.270721,110.184509 
	C64.694046,108.357147 64.846260,107.178329 64.998474,105.999519 
	C65.003883,105.560753 65.009285,105.121994 65.362427,104.291992 
	C66.455406,102.263443 67.200645,100.626144 67.945892,98.988846 
	C67.957031,98.545570 67.968170,98.102295 68.343582,97.323578 
	C69.189438,96.997742 69.671028,97.007362 70.152611,97.016975 
	C68.612991,102.805199 67.073372,108.593422 65.320419,114.702835 
z"/>
<path fill="#2F338E" opacity="1.000000" stroke="none" 
	d="
M82.000000,129.000580 
	C78.181061,128.858185 74.362122,128.715790 70.271645,127.956398 
	C70.001358,126.899261 70.002609,126.459129 70.440697,126.012634 
	C72.916374,126.014595 74.955223,126.022911 77.061920,126.383514 
	C78.753181,127.490730 80.376595,128.245651 82.000000,129.000580 
z"/>
<path fill="#2F338E" opacity="1.000000" stroke="none" 
	d="
M56.398659,102.995468 
	C56.247040,101.232391 56.475838,99.463120 56.868275,97.345642 
	C58.326046,97.635605 59.620174,98.273796 60.914307,98.911972 
	C59.535892,100.271080 58.157486,101.630188 56.398659,102.995468 
z"/>
<path fill="#2F3289" opacity="1.000000" stroke="none" 
	d="
M54.538139,144.989029 
	C53.837215,147.552383 52.728638,150.120728 51.309441,152.481384 
	C50.666119,151.182526 50.333412,150.091370 50.000706,149.000198 
	C49.523998,145.754333 51.059048,144.582275 54.538139,144.989029 
z"/>
<path fill="#32346D" opacity="1.000000" stroke="none" 
	d="
M93.986870,107.668373 
	C93.978546,109.470291 93.970581,110.942070 93.945694,112.770142 
	C92.323875,108.673126 90.718971,104.219826 89.166397,99.379105 
	C89.218719,98.991684 89.611832,99.021866 89.918373,99.243515 
	C90.425652,99.726524 90.683708,99.905098 90.999084,100.000877 
	C91.165108,100.557564 91.331131,101.114258 91.747223,102.188690 
	C92.660080,103.810188 93.322853,104.913948 93.985626,106.017700 
	C93.986160,106.457878 93.986694,106.898064 93.986870,107.668373 
z"/>
<path fill="#2F3289" opacity="1.000000" stroke="none" 
	d="
M82.387329,129.000366 
	C80.376595,128.245651 78.753181,127.490730 77.516632,126.372627 
	C80.936615,126.010696 83.969734,126.011940 87.001572,126.344467 
	C87.000221,127.117142 87.000145,127.558540 87.000069,127.999931 
	C85.591599,128.333344 84.183136,128.666748 82.387329,129.000366 
z"/>
<path fill="#2F3289" opacity="1.000000" stroke="none" 
	d="
M72.135231,89.509590 
	C71.990173,90.536964 71.845116,91.564331 71.168800,92.626762 
	C70.423203,91.776001 70.208855,90.890190 69.909607,89.840103 
	C69.562706,89.785103 69.300713,89.894379 69.023560,90.356537 
	C68.354378,91.491402 67.700363,92.273399 67.046349,93.055397 
	C68.110962,90.731148 69.175583,88.406906 70.649307,86.405411 
	C71.417358,87.655312 71.776291,88.582451 72.135231,89.509590 
z"/>
<path fill="#32346D" opacity="1.000000" stroke="none" 
	d="
M67.040924,93.372528 
	C67.700363,92.273399 68.354378,91.491402 69.262268,90.356735 
	C69.516151,90.004066 69.994514,90.004372 69.994514,90.004372 
	C70.208855,90.890190 70.423203,91.776001 70.937180,92.841812 
	C71.203293,93.477501 71.169785,93.933189 70.632965,94.708817 
	C69.096466,95.005844 68.063286,94.982933 67.030098,94.960022 
	C67.031898,94.536568 67.033699,94.113113 67.040924,93.372528 
z"/>
<path fill="#2F3289" opacity="1.000000" stroke="none" 
	d="
M67.602371,99.050133 
	C67.200645,100.626144 66.455406,102.263443 65.363419,103.962898 
	C65.764069,102.387169 66.511459,100.749298 67.602371,99.050133 
z"/>
<path fill="#32346D" opacity="1.000000" stroke="none" 
	d="
M72.432816,89.251160 
	C71.776291,88.582451 71.417358,87.655312 71.009583,86.358154 
	C71.303772,85.216301 71.646812,84.444473 71.996147,83.333733 
	C72.437851,82.995071 72.873268,82.995331 73.635239,82.992432 
	C73.551338,84.990417 73.140869,86.991577 72.432816,89.251160 
z"/>
<path fill="#2F338E" opacity="1.000000" stroke="none" 
	d="
M68.000000,128.000137 
	C67.029228,127.885986 66.058449,127.771835 65.043243,127.088364 
	C64.998817,126.519028 64.995117,126.028191 65.370193,126.019958 
	C66.495224,126.016113 67.245186,126.020493 67.997208,126.354233 
	C67.999512,127.122437 67.999756,127.561287 68.000000,128.000137 
z"/>
<path fill="#2F3289" opacity="1.000000" stroke="none" 
	d="
M67.038521,95.261597 
	C68.063286,94.982933 69.096466,95.005844 70.517563,95.032318 
	C70.799263,95.575981 70.693039,96.116074 70.369720,96.836563 
	C69.671028,97.007362 69.189438,96.997742 68.346313,96.991013 
	C67.672165,96.516991 67.359558,96.040077 67.038521,95.261597 
z"/>
<path fill="#2F3289" opacity="1.000000" stroke="none" 
	d="
M64.657272,106.055603 
	C64.846260,107.178329 64.694046,108.357147 64.269684,109.767670 
	C64.103699,108.703484 64.209885,107.407585 64.657272,106.055603 
z"/>
<path fill="#2F3289" opacity="1.000000" stroke="none" 
	d="
M93.990707,105.639244 
	C93.322853,104.913948 92.660080,103.810188 91.989845,102.359070 
	C92.653519,103.094734 93.324646,104.177757 93.990707,105.639244 
z"/>
<path fill="#2F338E" opacity="1.000000" stroke="none" 
	d="
M87.375076,127.999962 
	C87.000145,127.558540 87.000221,127.117142 87.375916,126.337814 
	C88.500374,126.004013 89.249214,126.008148 89.998055,126.012276 
	C89.998619,126.453842 89.999184,126.895409 89.999985,127.668381 
	C89.250160,127.999855 88.500122,127.999924 87.375076,127.999962 
z"/>
<path fill="#2F3289" opacity="1.000000" stroke="none" 
	d="
M55.257111,107.773010 
	C55.132324,106.757797 55.284084,105.513428 55.717884,104.134224 
	C55.844501,105.180878 55.689079,106.362358 55.257111,107.773010 
z"/>
<path fill="#2F338E" opacity="1.000000" stroke="none" 
	d="
M49.755260,149.190979 
	C50.333412,150.091370 50.666119,151.182526 50.999870,152.640503 
	C51.000916,153.007324 50.511635,153.020706 50.267361,153.030334 
	C49.851997,151.820541 49.680908,150.601151 49.755260,149.190979 
z"/>
<path fill="#2F338E" opacity="1.000000" stroke="none" 
	d="
M54.117409,111.715042 
	C54.104568,111.033485 54.220707,110.053627 54.658768,109.020226 
	C54.735924,109.783371 54.491150,110.600060 54.117409,111.715042 
z"/>
<path fill="#2F3289" opacity="1.000000" stroke="none" 
	d="
M72.685898,79.025299 
	C72.813942,79.550110 72.652046,80.109093 72.242401,80.834213 
	C72.128433,80.353386 72.262199,79.706421 72.685898,79.025299 
z"/>
<path fill="#2F3289" opacity="1.000000" stroke="none" 
	d="
M68.333488,128.000061 
	C67.999756,127.561287 67.999512,127.122437 68.331970,126.344589 
	C69.111069,126.010063 69.557465,126.014534 70.003860,126.019005 
	C70.002609,126.459129 70.001358,126.899261 70.000015,127.669762 
	C69.555611,128.000092 69.111298,128.000046 68.333488,128.000061 
z"/>
<path fill="#2F3289" opacity="1.000000" stroke="none" 
	d="
M64.995117,126.028191 
	C64.995117,126.028191 64.998817,126.519028 64.997009,126.764572 
	C64.381302,126.468689 63.767399,125.927261 63.191933,125.037857 
	C63.649384,124.710403 64.068405,124.730927 64.745819,125.156418 
	C65.004219,125.561394 64.995117,126.028191 64.995117,126.028191 
z"/>
<path fill="#2F3289" opacity="1.000000" stroke="none" 
	d="
M105.764954,131.167038 
	C105.885078,131.652359 105.753090,132.310196 105.335159,133.017807 
	C105.203758,132.491562 105.358292,131.915573 105.764954,131.167038 
z"/>
<path fill="#35366D" opacity="1.000000" stroke="none" 
	d="
M80.819229,67.936768 
	C80.477829,67.728516 80.201439,67.196075 79.952621,66.346298 
	C80.281540,66.556839 80.582893,67.084702 80.819229,67.936768 
z"/>
<path fill="#2F338E" opacity="1.000000" stroke="none" 
	d="
M50.010170,154.312836 
	C50.330025,154.449539 50.644207,154.923645 50.726212,155.697845 
	C50.494038,155.997940 50.000347,155.999390 50.000347,155.999390 
	C50.001728,155.549683 50.003109,155.099960 50.010170,154.312836 
z"/>
<path fill="#2F3289" opacity="1.000000" stroke="none" 
	d="
M91.157372,99.853699 
	C90.683708,99.905098 90.425652,99.726524 90.115211,99.254372 
	C90.442223,99.264565 90.878944,99.485542 91.157372,99.853699 
z"/>
<path fill="#2F338E" opacity="1.000000" stroke="none" 
	d="
M95.245041,127.990738 
	C95.269989,127.877129 95.544220,127.765350 95.905647,127.819901 
	C95.992844,127.986237 95.494324,127.992561 95.245041,127.990738 
z"/>
<path fill="#2F338E" opacity="1.000000" stroke="none" 
	d="
M96.117538,128.224075 
	C96.332848,128.106247 96.589249,128.291992 96.887268,128.781052 
	C96.672897,128.897919 96.416145,128.712357 96.117538,128.224075 
z"/>
<path fill="#2F3289" opacity="1.000000" stroke="none" 
	d="
M96.532028,108.550003 
	C96.476768,108.582916 96.587296,108.517090 96.532028,108.550003 
z"/>
<path fill="#2F3289" opacity="1.000000" stroke="none" 
	d="
M50.105835,156.218231 
	C50.000347,155.999390 50.494038,155.997940 50.740730,155.996826 
	C50.989265,156.163361 50.991112,156.330994 50.988934,156.750061 
	C50.664383,156.899231 50.406521,156.711090 50.105835,156.218231 
z"/>
<path fill="#2F3289" opacity="1.000000" stroke="none" 
	d="
M63.740711,137.997833 
	C63.901646,138.318466 63.719868,138.581421 63.231750,138.891632 
	C63.014534,139.000504 62.996273,138.509766 62.988239,138.264587 
	C63.149178,138.013535 63.318153,138.007645 63.740711,137.997833 
z"/>
<path fill="#F4F4FB" opacity="1.000000" stroke="none" 
	d="
M125.950195,59.852154 
	C126.036583,73.600975 126.012047,87.204269 125.953964,100.807419 
	C125.946930,102.452675 125.758713,104.097153 125.313515,106.034309 
	C123.167953,101.745644 121.363342,97.164658 119.378006,91.814407 
	C119.080902,83.707054 118.964531,76.368980 118.848160,69.030907 
	C120.332054,65.829956 121.767761,62.604565 123.363373,59.460312 
	C123.553856,59.084961 124.615105,59.151508 125.569519,59.171482 
	C125.866295,59.329739 125.829124,59.706585 125.950195,59.852154 
z"/>
<path fill="#080B26" opacity="1.000000" stroke="none" 
	d="
M118.576752,69.342194 
	C118.964531,76.368980 119.080902,83.707054 119.157043,91.511230 
	C118.738808,88.978104 118.117752,85.985161 118.040115,82.978172 
	C117.925560,78.541855 118.197815,74.095543 118.576752,69.342194 
z"/>
<path fill="#323688" opacity="1.000000" stroke="none" 
	d="
M161.959106,62.606972 
	C156.646103,62.975872 151.287140,62.983467 145.459625,62.985687 
	C149.031464,58.744625 158.551834,58.331306 161.959106,62.606972 
z"/>
<path fill="#2E318F" opacity="1.000000" stroke="none" 
	d="
M176.991165,118.003159 
	C176.224640,117.669243 175.458115,117.335327 174.357391,116.995392 
	C174.009415,116.551682 173.995636,116.113991 174.168976,115.130501 
	C172.899307,114.059860 171.442535,113.535019 169.985748,113.010178 
	C169.985748,113.010178 169.493973,113.007484 169.166458,112.624893 
	C166.050217,110.568573 163.315994,109.495911 160.992737,112.953987 
	C156.307495,112.965233 151.622253,112.976471 146.427307,112.611877 
	C144.653778,110.871063 142.531494,108.172203 142.259064,108.347549 
	C139.552124,110.089752 137.488266,109.857414 135.267044,107.554237 
	C134.984299,107.261047 133.125198,108.488121 131.996384,109.010895 
	C127.326538,108.795624 127.458534,104.400337 127.398849,102.020424 
	C127.087784,89.618477 127.497650,77.198448 127.818985,64.402908 
	C128.140594,62.778809 128.299835,61.536514 128.541840,59.648506 
	C131.833862,61.169128 134.599701,62.446701 137.695984,63.867279 
	C138.026428,64.010277 138.014389,64.507416 137.761993,64.920380 
	C137.339005,65.883537 137.168442,66.433739 136.997879,66.983940 
	C136.997879,66.983940 136.998566,66.999153 136.671768,67.042007 
	C135.900208,67.727135 135.455429,68.369415 135.010666,69.011696 
	C130.792877,77.025261 132.659424,85.415283 133.852905,93.642616 
	C134.086655,95.254028 136.762390,96.511200 138.654419,97.975708 
	C141.126144,99.111771 143.223923,101.062988 145.390045,101.142082 
	C153.302109,101.431023 161.255234,100.749863 169.154221,101.166763 
	C172.286957,101.332092 175.382812,103.274605 178.375031,104.666794 
	C180.575806,105.690742 182.580780,107.135498 184.837952,108.700623 
	C186.233658,114.417503 188.257019,119.788948 188.515427,125.243996 
	C188.937088,134.145630 188.207535,143.101791 187.924179,152.460724 
	C186.617203,153.689255 185.349747,154.492004 183.722565,155.671082 
	C182.575546,156.365479 181.788284,156.683563 181.000397,156.750351 
	C180.999237,156.331528 180.998718,156.163986 180.998489,155.747864 
	C180.998779,155.499268 180.998886,155.002075 181.263657,154.785202 
	C182.017319,153.043930 182.506226,151.519516 182.996216,149.590256 
	C181.337601,146.121262 179.677887,143.057144 178.018188,139.993011 
	C178.017715,139.552338 178.017258,139.111664 178.399063,138.286804 
	C183.338943,133.592834 183.129196,122.204559 176.991165,118.003159 
z"/>
<path fill="#2D328E" opacity="1.000000" stroke="none" 
	d="
M182.995117,149.995117 
	C182.506226,151.519516 182.017319,153.043930 181.096710,154.873093 
	C180.776047,155.450729 180.887115,155.723587 180.998199,155.996460 
	C180.998718,156.163986 180.999237,156.331528 180.892029,156.969421 
	C180.584610,157.713074 180.323181,157.900024 179.750305,158.000397 
	C179.500610,158.000168 179.001221,158.000000 178.781570,158.108063 
	C178.288025,158.415894 178.100571,158.677597 177.999786,159.249695 
	C178.000000,159.498169 178.000610,159.995117 177.654510,160.028992 
	C176.204117,161.037033 175.099808,162.011215 173.995499,162.985382 
	C173.209229,163.297546 172.422958,163.609711 171.167877,163.723312 
	C170.132126,163.677490 169.565201,163.830231 168.998291,163.982956 
	C167.610107,163.988113 166.221924,163.993286 164.271698,163.771088 
	C163.139496,163.694305 162.569351,163.844879 161.999207,163.995438 
	C161.999207,163.995438 162.000000,164.000000 161.781937,164.101974 
	C161.293823,164.393890 161.104401,164.644730 160.995590,164.956436 
	C151.537704,164.967941 142.077728,164.865784 132.622803,165.038940 
	C127.892204,165.125565 126.746399,162.902359 126.897720,158.573837 
	C127.041931,154.448624 127.925789,151.902740 132.729050,151.961090 
	C144.176483,152.100189 155.626770,152.004501 167.546509,151.997101 
	C170.422150,151.342606 172.827209,150.694687 175.752716,150.299469 
	C178.513840,150.366470 180.754471,150.180801 182.995117,149.995117 
z"/>
<path fill="#2F3285" opacity="1.000000" stroke="none" 
	d="
M174.366516,162.985672 
	C175.099808,162.011215 176.204117,161.037033 177.975266,159.989365 
	C179.094742,159.277451 179.547363,158.639023 180.000000,158.000610 
	C180.323181,157.900024 180.584610,157.713074 180.892670,157.220703 
	C181.788284,156.683563 182.575546,156.365479 183.682144,156.021881 
	C183.680206,157.076538 183.358932,158.156723 182.960327,159.566574 
	C181.723984,160.415649 180.564987,160.935074 179.217407,161.707916 
	C177.598404,162.302872 176.167969,162.644409 174.366516,162.985672 
z"/>
<path fill="#2F3285" opacity="1.000000" stroke="none" 
	d="
M169.331940,163.986511 
	C169.565201,163.830231 170.132126,163.677490 170.849289,163.742203 
	C170.554886,163.969788 170.110229,163.979935 169.331940,163.986511 
z"/>
<path fill="#2F3285" opacity="1.000000" stroke="none" 
	d="
M162.332794,163.999298 
	C162.569351,163.844879 163.139496,163.694305 163.855209,163.769104 
	C163.555984,163.997345 163.111191,164.000259 162.332794,163.999298 
z"/>
<path fill="#2F3285" opacity="1.000000" stroke="none" 
	d="
M161.216614,164.860947 
	C161.104401,164.644730 161.293823,164.393890 161.779907,164.101425 
	C161.901169,164.320938 161.715073,164.576462 161.216614,164.860947 
z"/>
<path fill="#323688" opacity="1.000000" stroke="none" 
	d="
M135.275192,68.890060 
	C135.455429,68.369415 135.900208,67.727135 136.664062,67.041786 
	C136.502029,67.588615 136.020874,68.178520 135.275192,68.890060 
z"/>
<path fill="#323688" opacity="1.000000" stroke="none" 
	d="
M137.244949,66.822716 
	C137.168442,66.433739 137.339005,65.883537 137.754181,65.168892 
	C137.829865,65.556793 137.660934,66.109146 137.244949,66.822716 
z"/>
<path fill="#2F3289" opacity="1.000000" stroke="none" 
	d="
M90.457001,139.938538 
	C91.843559,139.737335 93.652321,139.565567 95.710922,139.648590 
	C94.266914,139.924911 92.573059,139.946442 90.457001,139.938538 
z"/>
<path fill="#2F3288" opacity="1.000000" stroke="none" 
	d="
M132.158600,109.329468 
	C133.125198,108.488121 134.984299,107.261047 135.267044,107.554237 
	C137.488266,109.857414 139.552124,110.089752 142.259064,108.347549 
	C142.531494,108.172203 144.653778,110.871063 145.961609,112.605217 
	C141.219910,112.787682 136.078735,114.063271 132.158600,109.329468 
z"/>
<path fill="#2F3288" opacity="1.000000" stroke="none" 
	d="
M161.401154,112.967407 
	C163.315994,109.495911 166.050217,110.568573 168.920563,112.622726 
	C166.604660,112.995705 164.207123,112.988266 161.401154,112.967407 
z"/>
<path fill="#2F3288" opacity="1.000000" stroke="none" 
	d="
M170.145523,113.313248 
	C171.442535,113.535019 172.899307,114.059860 174.160889,114.802078 
	C172.745544,114.551750 171.525421,114.084030 170.145523,113.313248 
z"/>
<path fill="#2F3288" opacity="1.000000" stroke="none" 
	d="
M177.001556,118.425911 
	C183.129196,122.204559 183.338943,133.592834 178.405792,137.956375 
	C177.690811,131.622971 177.351379,125.235817 177.001556,118.425911 
z"/>
<path fill="#2F3288" opacity="1.000000" stroke="none" 
	d="
M182.996216,149.590271 
	C180.754471,150.180801 178.513840,150.366470 176.121597,150.248459 
	C176.647156,146.901733 177.324310,143.858688 178.009811,140.404327 
	C179.677887,143.057144 181.337601,146.121262 182.996216,149.590271 
z"/>
<path fill="#303068" opacity="1.000000" stroke="none" 
	d="
M65.370193,126.019958 
	C64.995117,126.028191 65.004219,125.561394 65.010361,125.328049 
	C74.366203,125.007339 83.715912,124.919975 93.518341,124.953415 
	C92.887596,125.384300 91.804131,125.694405 90.359360,126.008392 
	C89.249214,126.008148 88.500374,126.004013 87.377197,126.006531 
	C83.969734,126.011940 80.936615,126.010696 77.448776,126.020340 
	C74.955223,126.022911 72.916374,126.014595 70.440697,126.012634 
	C69.557465,126.014534 69.111069,126.010063 68.329910,126.015228 
	C67.245186,126.020493 66.495224,126.016113 65.370193,126.019958 
z"/>
<path fill="#35376F" opacity="1.000000" stroke="none" 
	d="
M69.909607,89.840103 
	C69.994514,90.004372 69.516151,90.004066 69.277435,90.003860 
	C69.300713,89.894379 69.562706,89.785103 69.909607,89.840103 
z"/>
<path fill="#2F3285" opacity="1.000000" stroke="none" 
	d="
M180.998489,155.747864 
	C180.887115,155.723587 180.776047,155.450729 180.831940,155.089966 
	C180.998886,155.002075 180.998779,155.499268 180.998489,155.747864 
z"/>
<path fill="#2E318F" opacity="1.000000" stroke="none" 
	d="
M179.750305,158.000381 
	C179.547363,158.639023 179.094742,159.277451 178.321350,159.955505 
	C178.000610,159.995117 178.000000,159.498169 178.218994,159.141052 
	C178.711426,158.584213 178.899170,158.322906 179.001221,158.000000 
	C179.001221,158.000000 179.500610,158.000168 179.750305,158.000381 
z"/>
<path fill="#2F3285" opacity="1.000000" stroke="none" 
	d="
M178.781570,158.108063 
	C178.899170,158.322906 178.711426,158.584213 178.218765,158.892578 
	C178.100571,158.677597 178.288025,158.415894 178.781570,158.108063 
z"/>
</svg>