<?xml version="1.0" standalone="no"?>
<!DOCTYPE svg PUBLIC "-//W3C//DTD SVG 20010904//EN"
 "http://www.w3.org/TR/2001/REC-SVG-20010904/DTD/svg10.dtd">
<svg version="1.0" xmlns="http://www.w3.org/2000/svg"
 width="690.000000pt" height="150.000000pt" viewBox="0 0 690.000000 150.000000"
 preserveAspectRatio="xMidYMid meet">

<g transform="translate(0.000000,150.000000) scale(0.100000,-0.100000)"
fill="#000000" stroke="none">
<path d="M0 750 l0 -750 1920 0 1920 0 0 750 0 750 -1920 0 -1920 0 0 -750z
m800 -250 l0 -260 25 0 c16 0 25 -6 25 -15 0 -12 -17 -15 -90 -15 -73 0 -90 3
-90 15 0 9 9 15 25 15 l25 0 -2 232 -3 231 -35 12 c-24 9 -30 15 -20 19 15 5
102 23 128 25 9 1 12 -57 12 -259z m870 78 l0 -182 65 64 c58 57 63 66 45 70
-45 11 -17 25 50 25 40 0 70 -4 70 -10 0 -5 -10 -11 -23 -13 -13 -2 -52 -29
-86 -60 l-62 -57 81 -87 c48 -52 90 -88 101 -88 10 0 19 -7 19 -15 0 -12 -16
-15 -85 -15 -67 0 -85 3 -85 14 0 8 6 16 12 18 13 5 -4 30 -72 108 l-30 35 2
-70 c3 -63 5 -70 26 -75 51 -12 18 -25 -63 -25 -81 0 -114 13 -63 25 l23 6 0
229 0 229 -32 8 c-18 5 -33 12 -33 17 0 6 72 23 128 30 9 1 12 -41 12 -181z
m-1142 123 c80 -41 80 -142 1 -190 l-31 -19 56 -25 c42 -19 60 -35 72 -60 37
-78 -18 -165 -116 -186 -28 -6 -109 -11 -180 -11 -106 0 -130 3 -130 14 0 9
12 16 33 18 l32 3 0 225 0 225 -32 3 c-18 2 -33 7 -33 13 0 5 62 9 145 9 124
0 151 -3 183 -19z m1888 -151 c41 0 54 -4 54 -15 0 -12 -13 -15 -55 -15 l-55
0 0 -119 c0 -98 3 -123 16 -136 10 -10 25 -14 35 -11 11 3 28 9 39 12 31 10
24 -8 -13 -33 -41 -28 -96 -30 -128 -4 -23 19 -24 23 -21 155 l2 136 -27 0
c-25 0 -24 3 33 60 l59 60 3 -45 3 -45 55 0z m600 -30 c2 0 21 9 41 20 54 29
117 27 148 -5 23 -22 25 -32 25 -107 0 -46 3 -107 6 -135 6 -47 9 -53 30 -53
15 0 24 -6 24 -15 0 -13 -15 -15 -92 -13 -89 3 -119 16 -66 28 22 6 23 10 26
114 3 133 -7 156 -69 156 -74 0 -79 -7 -79 -123 0 -127 5 -147 36 -147 15 0
24 -6 24 -15 0 -13 -15 -15 -92 -13 -89 3 -119 16 -66 28 22 6 23 9 26 134 l3
128 -31 11 c-16 6 -30 14 -30 17 0 4 28 13 63 21 62 14 62 14 65 -8 2 -13 5
-23 8 -23z m-1901 15 c24 -23 25 -30 25 -145 0 -129 6 -144 49 -120 37 19 25
-16 -13 -39 -41 -26 -70 -27 -94 -3 -18 18 -20 18 -53 0 -49 -26 -85 -23 -120
11 -63 63 -13 139 104 159 l42 7 3 54 c5 90 -30 106 -89 41 -38 -41 -69 -46
-69 -10 0 38 59 68 138 69 43 1 57 -3 77 -24z m387 -2 c18 -18 19 -24 8 -37
-18 -23 -36 -20 -70 14 -38 37 -61 38 -101 2 -62 -55 -48 -188 23 -232 40 -24
69 -25 114 -4 45 21 55 11 19 -18 -48 -38 -68 -47 -111 -48 -80 0 -154 84
-154 175 0 54 37 124 80 153 30 20 45 23 103 20 52 -3 72 -8 89 -25z m688 -28
c0 -62 -13 -71 -30 -21 -23 71 -125 71 -125 1 0 -27 7 -34 69 -66 39 -19 79
-47 90 -62 17 -23 18 -31 7 -67 -19 -63 -56 -82 -156 -77 l-80 3 -3 57 c-3 58
12 79 24 33 9 -38 50 -70 88 -70 44 0 68 20 64 53 -2 21 -17 33 -72 62 -80 42
-96 60 -96 107 0 73 40 101 148 102 l72 0 0 -55z m575 32 c52 -29 85 -87 85
-150 0 -189 -263 -245 -341 -73 -23 50 -24 85 -4 134 32 76 86 111 170 111 34
1 63 -7 90 -22z m782 3 c34 -20 63 -66 63 -100 0 -19 -6 -20 -116 -20 l-117 0
6 -40 c7 -54 31 -89 74 -107 40 -16 91 -11 129 14 22 14 24 14 24 -1 0 -9 -21
-30 -47 -46 -90 -57 -184 -33 -230 60 -25 49 -28 85 -13 142 12 43 53 96 84
108 38 16 110 11 143 -10z"/>
<path d="M350 594 l0 -107 52 6 c88 11 129 76 93 150 -19 40 -50 57 -105 57
l-40 0 0 -106z"/>
<path d="M350 367 c0 -121 4 -127 80 -127 78 0 120 41 120 116 0 70 -38 100
-140 111 l-60 6 0 -106z"/>
<path d="M983 360 c-37 -22 -44 -58 -15 -82 25 -22 44 -26 70 -17 19 7 22 15
22 64 0 50 -2 55 -22 55 -13 0 -38 -9 -55 -20z"/>
<path d="M2629 525 c-36 -19 -54 -68 -53 -140 1 -73 24 -122 66 -139 69 -29
119 17 126 114 6 78 -18 144 -58 165 -35 18 -48 18 -81 0z"/>
<path d="M3427 529 c-16 -9 -47 -65 -47 -84 0 -3 34 -5 75 -5 74 0 75 0 75 25
0 30 -41 75 -67 75 -10 0 -26 -5 -36 -11z"/>
<path d="M6810 659 c-16 -30 -8 -31 13 -3 10 13 13 24 8 24 -6 0 -15 -9 -21
-21z"/>
<path d="M6873 669 c22 -13 24 -54 2 -45 -8 3 -15 1 -15 -3 0 -5 6 -12 13 -14
6 -3 -1 -6 -16 -6 -26 -1 -27 0 -13 15 9 8 13 20 10 26 -4 7 -2 8 4 4 7 -4 12
-2 12 3 0 6 -9 11 -20 11 -15 0 -20 -7 -20 -26 0 -17 -4 -23 -12 -18 -9 5 -9
2 1 -9 16 -20 52 -22 69 -5 24 24 8 79 -22 78 -6 0 -3 -5 7 -11z"/>
<path d="M5588 657 c-51 -11 -62 -24 -25 -29 22 -3 22 -3 22 -198 l0 -194 -25
-7 c-16 -4 1 -7 49 -10 40 -2 78 -1 85 3 6 5 2 8 -11 8 -12 0 -24 4 -27 9 -3
5 -6 50 -7 102 -1 79 2 95 17 106 26 19 61 16 84 -7 18 -18 20 -31 18 -108 -3
-81 -5 -87 -28 -99 -14 -7 -20 -13 -15 -14 15 -1 329 0 335 1 3 1 -11 6 -30
13 l-35 12 -3 80 -3 81 54 0 c99 0 171 71 152 149 -17 67 -46 79 -198 83 -87
3 -129 0 -122 -6 6 -6 19 -12 30 -14 19 -3 20 -12 23 -187 2 -141 -1 -186 -10
-193 -20 -12 -78 -9 -83 5 -2 6 -6 56 -8 110 -3 74 -8 102 -21 116 -27 30 -62
34 -111 12 l-45 -20 0 105 c0 57 -3 103 -7 103 -5 -1 -29 -6 -55 -12z m491
-48 c39 -14 51 -35 51 -91 0 -63 -26 -88 -90 -88 l-50 0 0 95 0 95 29 0 c15 0
42 -5 60 -11z"/>
<path d="M6703 657 c-47 -11 -55 -22 -23 -30 17 -4 20 -14 20 -71 l0 -66 -42
6 c-80 10 -146 -45 -155 -129 -13 -117 74 -190 167 -142 27 14 30 14 30 -1 0
-14 7 -15 38 -10 20 3 43 6 50 6 6 0 12 5 12 10 0 6 -3 9 -7 9 -32 -5 -33 2
-33 216 0 118 -3 214 -7 214 -5 -1 -27 -6 -50 -12z m-10 -197 c4 -4 6 -51 5
-106 l-3 -99 -29 -3 c-47 -6 -75 6 -92 40 -33 64 -12 158 39 178 22 8 65 3 80
-10z"/>
<path d="M4005 630 c3 -5 15 -10 25 -10 25 0 26 -18 20 -220 l-5 -164 -25 -7
c-31 -9 -35 -8 147 -11 l153 -3 11 53 c13 64 6 78 -15 29 -19 -48 -44 -58
-124 -55 l-67 3 0 185 c0 177 1 185 20 188 11 2 24 8 30 13 5 5 -28 9 -84 9
-59 0 -90 -4 -86 -10z"/>
<path d="M4450 488 c-43 -12 -65 -31 -57 -52 10 -25 34 -19 57 14 12 17 27 30
35 30 25 0 45 -31 45 -69 0 -37 -2 -39 -37 -45 -86 -14 -132 -70 -99 -121 22
-33 60 -42 101 -22 29 14 35 14 45 1 16 -18 34 -18 70 1 38 19 38 34 3 32
l-28 -2 -3 107 c-2 68 -7 110 -15 116 -19 16 -78 21 -117 10z m78 -185 c-3
-46 -4 -48 -35 -51 -25 -2 -35 2 -48 21 -8 13 -13 31 -10 39 7 19 42 36 73 37
21 1 23 -3 20 -46z"/>
<path d="M4688 486 c-51 -10 -61 -20 -28 -29 11 -3 20 -13 20 -24 3 -176 5
-184 29 -204 30 -24 67 -24 114 0 34 17 37 17 37 2 0 -15 14 -17 125 -16 69 0
125 2 125 5 0 3 -10 10 -22 15 -21 9 -23 17 -26 106 l-3 96 30 13 c39 16 75 7
88 -22 10 -24 9 -170 -2 -188 -3 -5 -13 -10 -21 -10 -8 0 -14 -3 -14 -7 0 -5
34 -8 75 -8 41 0 75 2 75 5 0 3 -10 10 -22 15 -21 9 -23 18 -28 116 -3 66 -10
112 -18 122 -28 34 -75 30 -154 -11 -5 -2 -8 4 -8 13 0 15 -6 17 -37 11 -21
-3 -44 -6 -50 -6 -7 0 -13 -4 -13 -10 0 -5 9 -10 19 -10 26 0 31 -18 31 -120
0 -97 -9 -114 -55 -106 -15 3 -30 8 -33 11 -3 3 -8 61 -10 128 l-4 123 -49
-10 c-48 -10 -67 -26 -30 -26 26 0 31 -19 31 -110 0 -68 -3 -81 -19 -90 -27
-14 -78 -13 -88 3 -4 6 -10 62 -13 122 l-5 110 -47 -9z"/>
<path d="M5383 481 c-49 -23 -73 -55 -80 -109 -16 -118 83 -195 183 -144 39
20 75 52 58 52 -5 -1 -20 -7 -34 -15 -30 -17 -74 -19 -101 -5 -46 25 -66 141
-33 188 18 26 59 29 92 6 27 -19 66 -15 70 8 2 12 -7 20 -35 27 -52 15 -72 14
-120 -8z"/>
<path d="M6288 487 c-41 -11 -63 -31 -55 -51 10 -25 34 -19 57 14 12 17 27 30
35 30 25 0 45 -31 45 -69 0 -37 -2 -39 -37 -45 -86 -14 -132 -70 -99 -121 22
-34 60 -42 104 -21 32 16 36 16 44 2 11 -20 31 -20 68 -1 38 19 38 34 3 32
l-28 -2 -3 104 c-1 58 -7 110 -13 117 -13 16 -79 22 -121 11z m80 -184 c-3
-46 -4 -48 -35 -51 -25 -2 -35 2 -48 21 -8 13 -13 31 -10 39 7 19 42 36 73 37
21 1 23 -3 20 -46z"/>
</g>
</svg>
