<svg version="1.1" id="Layer_1" xmlns:x="ns_extend;" xmlns:i="ns_ai;" xmlns:graph="ns_graphs;" xmlns="http://www.w3.org/2000/svg" xmlns:xlink="http://www.w3.org/1999/xlink" x="0px" y="0px" viewBox="0 0 225.7 56" style="enable-background:new 0 0 225.7 56;" xml:space="preserve">
 <style type="text/css">
  .st0{fill:#00B373;}
 </style>
 <metadata>
  <sfw xmlns="ns_sfw;">
   <slices>
   </slices>
   <sliceSourceBounds bottomLeftOrigin="true" height="56" width="225.7" x="-113.4" y="-214.7">
   </sliceSourceBounds>
  </sfw>
 </metadata>
 <g>
  <path class="st0" d="M110.7,35.3c-0.8,0.9-1.7,1.5-2.7,2c-1,0.5-2.3,0.8-3.9,0.8c-1.4,0-2.7-0.3-3.8-0.7c-1.1-0.5-2.1-1.2-2.9-2
		c-0.8-0.9-1.4-1.9-1.9-3.1C95.3,31,95,29.7,95,28.4c0-1.3,0.2-2.7,0.6-3.9c0.4-1.2,0.9-2.3,1.7-3.3c0.7-0.9,1.6-1.6,2.7-2.2
		s2.4-0.8,3.8-0.8c1.5,0,2.8,0.3,3.9,0.8c1,0.5,2,1.2,2.9,2.1c0.2-0.6,0.4-1.1,0.6-1.7c0.9-2,2-3.8,3.4-5.5c-1.1-0.8-2.3-1.5-3.6-2
		c-2.2-0.9-4.5-1.3-6.9-1.3c-2.6,0-5,0.4-7.1,1.3c-2.1,0.9-4,2.1-5.5,3.6s-2.7,3.4-3.5,5.5c-0.8,2.1-1.3,4.5-1.3,7
		c0,2.5,0.4,4.9,1.3,7c0.8,2.1,2.1,4,3.6,5.5c1.5,1.5,3.4,2.7,5.5,3.5c2.1,0.8,4.5,1.3,7,1.3c2.4,0,4.7-0.4,6.8-1.2
		c1.3-0.5,2.6-1.2,3.7-2.1c-1.4-1.6-2.5-3.5-3.4-5.5C111.1,36.3,110.9,35.8,110.7,35.3L110.7,35.3z">
  </path>
  <path class="st0" d="M202.8,28.2c0-2.1-0.3-4.2-0.9-6.2c-0.6-2.1-1.5-4-2.8-5.6c-1.3-1.7-3-3-5-4.1c-2-1-4.6-1.6-7.5-1.6
		c-2.4,0-4.8,0.4-6.8,1.3c-2.1,0.9-3.9,2.1-5.4,3.7c-1.5,1.6-2.7,3.4-3.6,5.5c-0.9,2.1-1.3,4.4-1.3,6.9s0.4,4.7,1.2,6.8
		c0.8,2.1,1.9,4,3.4,5.5c1.5,1.6,3.3,2.8,5.4,3.7c2.1,0.9,4.5,1.3,7.1,1.3c6.2,0,11.2-2.3,14.6-6.8l0.6-0.8l-6-4.6l-0.6,0.7
		c-1.1,1.3-2.3,2.4-3.5,3.2c-1.2,0.8-2.6,1.1-4.3,1.1c-1.2,0-2.5-0.2-3.6-0.6c-1.2-0.4-2.2-1-3.1-1.7c-0.9-0.7-1.6-1.6-2.1-2.6
		c-0.4-0.7-0.6-1.5-0.7-2.3h25V28.2L202.8,28.2z M177.8,24.6c0.1-0.6,0.3-1.2,0.5-1.9c0.4-1,1-1.9,1.8-2.7c0.7-0.8,1.7-1.4,2.8-1.9
		c1.1-0.5,2.3-0.7,3.6-0.7c1.3,0,2.6,0.2,3.6,0.6c1,0.4,1.8,1,2.5,1.7c0.6,0.7,1.1,1.6,1.5,2.5c0.2,0.7,0.4,1.5,0.5,2.4H177.8
		L177.8,24.6z">
  </path>
  <path class="st0" d="M225.7,11.4c-2.5-0.8-4.5-0.8-6.6-0.2c-1,0.3-2,0.7-2.9,1.2c-0.9,0.5-1.7,1.2-2.4,1.9c0,0,0,0-0.1,0.1v-2.9
		h-7.9v33.2h7.9V28.1c0-3.2,0.7-5.5,2-6.9c1.4-1.4,3.3-2.1,6-2.1c0,0,1.8,0,4,0.7V11.4z">
  </path>
  <path class="st0" d="M164.8,11.5V3.4h-7.9v8.1h-4.3v7.4h4.3v25.9h7.9V18.9h4.3v-7.4H164.8z">
  </path>
  <path class="st0" d="M141.1,11.5v1.8c-0.8-0.5-1.6-0.9-2.4-1.2c-2.1-0.9-4.5-1.4-6.9-1.4s-4.8,0.5-6.9,1.4c-2.1,0.9-4,2.2-5.6,3.7
		c-1.6,1.6-2.8,3.4-3.7,5.5c-0.9,2.1-1.4,4.4-1.4,6.8s0.5,4.7,1.4,6.8c0.9,2.1,2.2,4,3.7,5.5c1.6,1.6,3.5,2.8,5.6,3.7
		c2.1,0.9,4.5,1.4,6.9,1.4s4.8-0.5,6.9-1.4c0.8-0.4,1.7-0.8,2.4-1.2v1.8h7.9V11.5H141.1L141.1,11.5z M141.1,28.1
		c0,1.5-0.2,2.8-0.7,4.1c-0.4,1.2-1.1,2.3-1.8,3.1c-0.8,0.8-1.8,1.5-2.9,2c-1.1,0.5-2.5,0.7-3.9,0.7c-1.4,0-2.8-0.3-3.9-0.7
		c-1.1-0.5-2.1-1.2-2.9-2c-0.8-0.8-1.4-1.9-1.8-3.1c-0.4-1.2-0.7-2.6-0.7-4.1s0.2-2.8,0.7-4.1c0.4-1.2,1.1-2.3,1.8-3.1
		c0.8-0.8,1.8-1.5,2.9-2c1.1-0.5,2.5-0.7,3.9-0.7c1.4,0,2.8,0.3,3.9,0.7c1.1,0.5,2.1,1.2,2.9,2c0.8,0.8,1.4,1.9,1.8,3.1
		C140.8,25.3,141.1,26.7,141.1,28.1L141.1,28.1z">
  </path>
  <path class="st0" d="M83.4,56H0V0h83.4V56z M6.6,49.3h70V6.7h-70L6.6,49.3L6.6,49.3z">
  </path>
  <path class="st0" d="M55.5,37.8l16.8-19.6v-6.6H45.9v7.1H62L45.3,38.2v6.7h28v-7.1H55.5z">
  </path>
  <path class="st0" d="M43.6,28.3c0-2.1-0.3-4.2-0.9-6.3c-0.6-2.1-1.5-4-2.9-5.6c-1.3-1.7-3-3-5.1-4.1c-2.1-1-4.6-1.6-7.5-1.6
		c-2.5,0-4.8,0.4-6.9,1.3c-2.1,0.9-3.9,2.1-5.5,3.7s-2.7,3.4-3.6,5.6c-0.9,2.1-1.3,4.4-1.3,6.9c0,2.5,0.4,4.8,1.2,6.9
		c0.8,2.1,1.9,4,3.4,5.6c1.5,1.6,3.3,2.8,5.4,3.7c2.1,0.9,4.5,1.3,7.1,1.3c6.3,0,11.2-2.3,14.7-6.8l0.6-0.8l-6-4.6l-0.6,0.7
		c-1.1,1.3-2.3,2.4-3.5,3.2c-1.2,0.8-2.7,1.1-4.3,1.1c-1.3,0-2.5-0.2-3.7-0.6c-1.2-0.4-2.2-1-3.1-1.7c-0.9-0.7-1.6-1.6-2.1-2.6
		c-0.4-0.7-0.6-1.5-0.7-2.3h25.2L43.6,28.3L43.6,28.3z M18.4,24.7c0.1-0.6,0.3-1.2,0.5-1.9c0.4-1,1-1.9,1.8-2.7
		c0.8-0.8,1.7-1.4,2.8-1.9c1.1-0.5,2.3-0.7,3.6-0.7c1.3,0,2.6,0.2,3.6,0.6c1,0.4,1.8,1,2.5,1.7c0.7,0.7,1.2,1.6,1.5,2.5
		c0.2,0.7,0.4,1.5,0.5,2.4H18.4L18.4,24.7z">
  </path>
 </g>
</svg>