<?xml version="1.0" encoding="UTF-8"?>
<svg version="1.1" viewBox="0 0 2048 948" width="734" height="340" xmlns="http://www.w3.org/2000/svg">
<path transform="translate(247,278)" d="m0 0h25l5 5 8 17 5 17 2 13 15 5 6 1 11-11 14-10 17-9 4 1 16 11 6 5-1 11-5 21-7 16-2 3 1 4 8 10 2 4 10-1h30l14 2 3 5 4 9 4 16-14 14-14 10-15 8v23l16 8 12 9 12 11 3 6-6 19-4 8-12 2-13 1h-10l-20-1-10 14-1 3 6 12 5 14 4 20v6l-16 12-6 4-4 1-5-3-16-9-10-8-10-9v-2l-6 1-7 3-9 2-3 19-6 17-8 15-1 1h-30l-8-14-5-13-4-16-1-9-15-4-6-2-6 7-11 9-14 9-12 6-5-2-20-15 1-12 4-18 6-15 3-5v-5l-9-12-1-2h-9l-11 1h-12l-20-2-3-1-7-16-3-13 7-8 8-7 14-10 9-5 5-1v-25l-6-2-14-8-15-13-7-7 1-10 4-12 4-8 6-2 8-1h30l10 1 9-12 2-2-1-7-5-11-4-11-4-20v-6l11-9 12-8 9 3 14 8 10 8 10 9 2 2 6-1 11-4 4-1 3-18 6-17 6-12 3-4zm9 88-22 3-17 6-15 9-11 9-9 9-9 13-6 12-5 15-3 19v11l3 19 5 15 8 15 7 9 9 10 10 8 13 8 15 6 19 4h22l22-5 14-6 12-8 10-9 2-1v-2h2l8-10 8-13 6-14 4-19 1-8v-9l-3-19-4-13-8-16-4-6-7-9-9-9-14-10-12-6-15-5-11-2z" fill="#242123"/>
<path transform="translate(547,481)" d="m0 0h57l10 3 9 5 5 4 6 9 3 12v11l-2 10-5 9-6 7-8 5-5 1 7 9 12 14 8 10 11 13 5 6v2h-38l-8-11-12-15-11-14-7-9-1 49h-29l-1-1zm31 23-1 1v34h13l10-4 4-4 1-4v-12l-4-6-7-3z" fill="#020202"/>
<path transform="translate(762,475)" d="m0 0h27l1 1 1 60 10-6 10-2h10l12 3 11 8 6 8 5 11 1 5v16l-3 10-6 10-5 5-8 6-16 4-10-1-10-3-7-6-2 7h-28v-135zm44 76-8 3-6 5-3 8v8l4 9 5 4 7 2 10-1 6-4 5-8v-11l-4-8-5-4-9-3z" fill="#020202"/>
<path transform="translate(548,314)" d="m0 0h55l14 3 11 7 6 7 5 12 1 4v14l-5 15-7 9-9 6-11 4-5 1h-26v48l-12 1h-17l-1-2v-128zm30 23-1 1v34h15l9-3 5-4 3-7-1-10-5-6-9-4-6-1z" fill="#020202"/>
<path transform="translate(1332,479)" d="m0 0h19l16 3 14 7 2 3-11 23-6-1-9-4-4-1h-18l-11 4-8 5-8 9-4 9-1 5v10l2 8 5 9 5 6 10 6 10 3h19l13-5 4-1 9 17 3 6-2 4-13 6-15 3-16 1-18-3-17-8-10-8-8-8-7-10-5-12-3-11v-14l4-16 4-8 6-9 10-11 10-7 14-7 7-2z" fill="#020202"/>
<path transform="translate(1021,309)" d="m0 0h27l1 1v134l-9 1h-18l-1-1-1-8-9 7-8 3h-19l-8-3-11-8-7-11-3-8-1-5v-14l3-12 7-11 8-7 8-4 7-2h14l12 4 8 5zm-23 76-8 4-6 8-1 9 2 7 5 6 8 4h9l8-5 5-6 1-2v-12l-5-8-6-4-3-1z" fill="#020202"/>
<path transform="translate(1257,361)" d="m0 0h13l13 4 8 6 7 8 4 8 2 10v13l-2 10-6 11-5 6-13 8-4 1h-21l-7-3-8-5-1 47-1 1h-27v-122h28l-1 8 12-8zm-7 24-6 3-5 6-3 8 1 7 3 6 7 6 5 2h7l8-4 6-7 1-3v-11l-3-6-7-6-4-1z" fill="#020202"/>
<path transform="translate(1318,309)" d="m0 0h27l1 1v60l12-7 6-2h11l12 3 9 6 6 8 2 6 1 7v53l-2 1h-26l-1-1-1-50-3-6-6-4h-8l-7 4-4 5-1 51-6 1h-21l-1-1-1-134z" fill="#030203"/>
<path transform="translate(653,309)" d="m0 0h27l1 1-1 61 13-8 6-2h12l13 4 6 4 7 8 3 9v58l-3 1h-24l-1-1-1-50-3-5v-2l-6-3h-9l-7 4-4 6-1 12v38l-2 1h-25l-1-1z" fill="#020202"/>
<path transform="translate(879,361)" d="m0 0h14l10 3 9 5v-5l2-1 27 1v80l-4 1h-22l-3-1v-8l-7 6-10 4h-19l-10-4-9-7-6-9-4-9-2-11 1-12 5-13 8-10 10-7zm11 24-7 3-6 7-1 3v12l5 8 6 4 3 1h9l10-6 3-5 1-4v-9l-4-8-6-5-4-1z" fill="#020202"/>
<path transform="translate(1529,528)" d="m0 0 16 1 8 4 6 4v-7h28v81h-27l-1-8-8 6-10 4-12 1-13-3-9-6-8-9-4-8-3-13v-8l4-16 6-9 5-5 5-4 5-3zm6 24-9 6-4 8v10l3 6 4 5 9 3h7l8-4 6-9 1-3v-7l-5-9-9-6z" fill="#020202"/>
<path transform="translate(1497,361)" d="m0 0h14l12 4 6 4 1-6 28 1 1 79-4 2h-24l-1-4v-5l-11 8-6 2h-19l-10-4-9-7-6-8-5-13-1-4v-12l4-13 6-10 7-7 10-5zm10 24-8 4-4 6-2 10 3 10 7 6 5 2h9l8-5 4-5 2-6v-7l-4-8-7-6-4-1z" fill="#020202"/>
<path transform="translate(906,528)" d="m0 0h11l13 2 15 8 8 8 6 12 2 7v12l-3 10-6 10-7 7-14 7-17 3-14-1-11-3-10-6-6-5-6-9-4-12v-13l4-12 6-9 10-9 11-5zm0 24-9 6-3 5-1 4v8l3 7 5 5 3 2 11 1 8-3 6-7 2-6-1-9-4-7-5-4-4-2z" fill="#020202"/>
<path transform="translate(1433,528)" d="m0 0h9l13 2 14 7 9 9 5 8 3 14-1 13-3 8-5 8-8 8-12 6-9 2-14 1-14-2-10-4-8-6-8-9-4-8-1-5v-18l4-11 7-9 7-6 12-6zm3 23-9 3-7 8-2 4v9l4 8 6 5 7 2 9-1 5-3 6-7 1-2v-12l-4-6-7-6z" fill="#020202"/>
<path transform="translate(1848,528)" d="m0 0h11l12 2 14 7 10 10 6 13 1 4v13l-2 8-5 10-10 10-10 5-11 3-14 1-17-3-11-6-8-7-6-10-3-8-1-11 2-10 6-12 6-7 11-7 11-4zm4 23-7 2-8 7-2 6v10l4 8 5 4 7 2 10-1 7-5 4-8v-10l-4-8-9-6z" fill="#020202"/>
<path transform="translate(694,528)" d="m0 0h10l13 2 14 7 7 6 7 11 3 12v11l-4 13-7 10-8 6-10 5-17 3-14-1-11-3-12-7-7-8-6-12-1-15 2-12 6-10 9-9 14-7zm5 23-9 3-6 5-4 10 1 8 6 9 5 3 11 1 7-3 5-4 3-6v-12l-4-7-9-6z" fill="#020202"/>
<path transform="translate(1962,528)" d="m0 0h9l11 2 9 5 5 5 5 8 1 4v59h-28l-1-50-4-7-6-3h-7l-7 3-4 5-1 3-1 21v27l-1 1h-27l-1-1v-79l1-1h28v8l11-8z" fill="#030303"/>
<path transform="translate(1099,361)" d="m0 0h14l13 3 10 6 8 9 4 9 2 15v4l-2 1h-57l3 9 6 5 2 1h15l8-5 4-3 15 8 4 2-2 4-7 8-10 6-10 3h-24l-10-4-10-7-7-8-4-8-3-12v-7l4-14 6-9 7-7 10-6zm6 18-9 3-5 7 1 3h30l-1-6-7-6z" fill="#050505"/>
<path transform="translate(1705,500)" d="m0 0h27l1 1v29h17v21h-17l1 32 2 4 5 1 6-2 4 13 2 6v5l-12 3-11 1-12-3-7-6-4-8-2-7-1-38-11-1v-20l1-1h11z" fill="#030303"/>
<path transform="translate(978,500)" d="m0 0h26l1 1v29h17v21l-2 1h-14v29l2 6 5 1 6-2 2 5 4 13 1 5-9 3-13 2-14-3-8-8-4-9-1-8v-35l-10 1-1-1v-21h11v-29z" fill="#030303"/>
<path transform="translate(1606,475)" d="m0 0h27l1 1v135h-28l-1-1v-134z" fill="#050505"/>
<path transform="translate(1190,528)" d="m0 0 18 1 13 4-1 6-6 13-10-2-11-2-5 2-1 4 5 3 18 7 8 6 5 8 1 3v12l-4 8-4 5-9 5-9 2-15 1-16-3-13-7 1-4 10-16 14 7 3 1h8l3-1v-6l-6-4-11-4-10-7-6-9-1-9 3-9 4-6 9-6 5-2z" fill="#030303"/>
<path transform="translate(805,309)" d="m0 0h28l1 1v134l-9 1h-19l-1-1z" fill="#020202"/>
<path transform="translate(1163,309)" d="m0 0h28v135l-7 1h-21z" fill="#020202"/>
<path transform="translate(1118,528)" d="m0 0h9l12 2 10 5-1 4-8 16-8-3h-11l-7 4-4 5-2 5v10l4 8 5 4 3 1h13l8-1 5 11 3 7-5 4-12 3-13 1-14-3-11-6-9-9-5-8-4-13v-8l5-15 8-11 11-8 10-4z" fill="#020202"/>
<path transform="translate(1763,530)" d="m0 0h29v81h-29z" fill="#030303"/>
<path transform="translate(757,363)" d="m0 0h27l1 1v80l-4 1h-23l-2-2v-66z" fill="#030303"/>
<path transform="translate(1422,363)" d="m0 0h28v81l-2 1h-25l-1-1z" fill="#030303"/>
<path transform="translate(1035,530)" d="m0 0h28l1 3v77l-1 1h-28z" fill="#020202"/>
<path transform="translate(1653,530)" d="m0 0h28v81h-28z" fill="#020202"/>
<path transform="translate(426,315)" d="m0 0 11 1 10 6 6 8 2 6v13l-5 10-7 6-10 4h-10l-12-6-6-7-3-9v-10l3-9 6-7 9-5z" fill="#020202"/>
<path transform="translate(85,316)" d="m0 0h7l11 4 7 6 4 8 1 3v11l-3 9-7 8-8 4-4 1h-8l-9-3-6-4-4-5-3-5-1-4v-12l4-9 8-8z" fill="#020202"/>
<path transform="translate(422,563)" d="m0 0h14l10 5 7 8 2 5 1 11-2 9-7 9-8 5-4 1h-13l-8-4-5-4-5-8-1-4v-14l4-8 5-6z" fill="#020202"/>
<path transform="translate(43,440)" d="m0 0h11l8 3 9 8 4 10v12l-3 8-7 8-9 4-10 1-10-3-6-4-6-9-2-8 1-11 5-10 9-7z" fill="#020202"/>
<path transform="translate(83,564)" d="m0 0h13l10 5 7 8 3 8v10l-3 9-7 8-7 4-5 1h-10l-7-2-10-9-4-8-1-8 2-10 6-8 6-5z" fill="#020202"/>
<path transform="translate(465,439)" d="m0 0h8l10 3 6 5 5 8 2 7v7l-4 11-7 8-6 3-4 1h-13l-7-3-7-6-4-7-1-4v-13l3-8 4-5 7-5z" fill="#020202"/>
<path transform="translate(320,239)" d="m0 0 11 1 9 5 7 8 3 8v10l-4 10-4 5-10 6-4 1h-10l-7-3-6-4-4-5-4-9v-12l6-12 8-6z" fill="#020202"/>
<path transform="translate(188,640)" d="m0 0h13l10 5 6 7 4 8v13l-6 11-7 6-8 3h-11l-8-3-8-7-5-10v-13l5-10 8-7z" fill="#020202"/>
<path transform="translate(187,240)" d="m0 0h13l10 5 6 7 4 10v9l-4 10-6 7-10 5h-14l-9-5-7-8-3-8v-11l4-10 7-7z" fill="#020202"/>
<path transform="translate(320,639)" d="m0 0h8l10 4 5 3 6 9 2 7v8l-3 9-5 7-8 5-8 2-11-1-10-6-6-9-2-6v-10l4-10 5-6 10-5z" fill="#020202"/>
<path transform="translate(770,313)" d="m0 0 10 2 6 5 3 8-2 9-6 7-7 3-9-1-6-4-4-7v-10l3-6 5-4z" fill="#030303"/>
<path transform="translate(1046,480)" d="m0 0h7l7 3 4 5 2 6v7l-3 6-5 5-3 1h-11l-5-3-5-6-2-5 1-8 6-8z" fill="#030303"/>
<path transform="translate(1773,480)" d="m0 0h8l8 4 4 6 1 10-4 8-5 4-2 1h-12l-6-4-5-10 1-8 4-6z" fill="#030303"/>
<path transform="translate(1434,313)" d="m0 0 8 1 6 4 4 6 1 8-3 8-9 6-8 1-8-4-5-7-1-3v-7l3-6 5-5z" fill="#030303"/>
<path transform="translate(1664,480)" d="m0 0h7l8 4 4 6 1 10-4 8-5 4-2 1h-11l-5-3-5-6-2-5 1-8 5-7z" fill="#030303"/>
</svg>
