<svg version="1.1" id="Layer_1" xmlns="http://www.w3.org/2000/svg" xmlns:xlink="http://www.w3.org/1999/xlink" x="0px" y="0px"
	 width="100%" viewBox="0 0 4500 1249" enable-background="new 0 0 4500 1249" xml:space="preserve">
<path fill="#FFFFFF" opacity="1.000000" stroke="none" 
	d="
M3498.000000,1252.000000 
	C2332.000000,1252.000000 1167.000000,1252.000000 2.000000,1252.000000 
	C2.000000,835.333313 2.000000,418.666656 2.000000,2.000000 
	C1502.000000,2.000000 3002.000000,2.000000 4502.000000,2.000000 
	C4502.000000,418.666656 4502.000000,835.333313 4502.000000,1252.000000 
	C4167.666504,1252.000000 3833.333252,1252.000000 3498.000000,1252.000000 
M1280.999756,561.107117 
	C1302.898315,561.107117 1324.796875,561.107117 1346.592896,561.107117 
	C1384.572266,443.374908 1422.150269,326.887085 1459.728149,210.399277 
	C1480.024048,269.168945 1498.514282,327.722351 1517.442383,386.133850 
	C1536.346680,444.471680 1554.465820,503.072327 1573.753906,560.841919 
	C1616.487549,560.841919 1657.784302,560.841919 1700.087891,560.841919 
	C1716.370605,508.628601 1732.625366,456.351440 1748.979492,404.105347 
	C1765.248169,352.131989 1781.773804,300.238647 1797.896973,248.220398 
	C1814.049805,196.106262 1830.910034,144.201599 1846.682129,91.365341 
	C1808.498901,91.365341 1771.912354,91.365341 1734.836182,91.365341 
	C1701.202759,206.038742 1667.656982,320.412964 1634.111206,434.787201 
	C1633.534180,434.693176 1632.957031,434.599152 1632.380005,434.505096 
	C1595.774536,320.078217 1559.169067,205.651337 1522.680298,91.589455 
	C1480.614502,91.589455 1439.796265,91.589455 1398.815552,91.589455 
	C1362.292236,206.327652 1325.954224,320.483826 1289.616211,434.640015 
	C1289.032593,434.592499 1288.448975,434.545013 1287.865356,434.497498 
	C1254.355835,320.207825 1220.846191,205.918137 1187.257568,91.358780 
	C1149.484497,91.358780 1112.292725,91.358780 1073.790039,91.358780 
	C1122.014648,248.394394 1170.016357,404.703888 1218.046509,561.106506 
	C1239.020874,561.106506 1259.010376,561.106506 1280.999756,561.107117 
M4201.000000,376.007599 
	C4226.618652,376.007599 4252.236816,376.007599 4278.751465,376.007599 
	C4275.511719,390.620361 4269.715820,403.181335 4262.329102,415.019592 
	C4240.763184,449.584045 4209.524902,471.561981 4171.262207,484.088623 
	C4142.540039,493.491699 4113.128906,496.959595 4082.853516,495.122620 
	C4061.135742,493.804932 4039.907227,490.619476 4019.320801,483.772614 
	C3989.488037,473.850555 3962.783936,458.497864 3942.024170,434.558990 
	C3907.656250,394.927338 3896.046875,348.347137 3903.877197,297.115112 
	C3912.426270,241.181473 3944.167969,201.308777 3994.515625,177.406479 
	C4052.448730,149.903122 4112.771973,148.672882 4173.288574,168.567734 
	C4203.218262,178.407028 4228.797852,195.493759 4247.810059,221.333054 
	C4256.750488,233.483887 4262.917969,246.993164 4267.608887,262.423126 
	C4303.561523,261.315338 4339.320801,260.213562 4375.301758,259.104919 
	C4375.430664,256.492889 4375.857910,254.783676 4375.539551,253.227173 
	C4372.336426,237.585983 4368.104492,222.262238 4360.952148,207.886719 
	C4340.433105,166.643753 4307.590332,137.905045 4267.658691,116.578308 
	C4237.816406,100.640175 4205.898926,90.481743 4172.731445,84.177620 
	C4146.198730,79.134552 4119.322754,77.231598 4092.397461,77.090714 
	C4077.494873,77.012741 4062.541504,78.540619 4047.680664,80.035294 
	C3991.856689,85.649918 3939.555908,101.828529 3893.088623,134.026611 
	C3826.310303,180.298737 3792.573730,244.670090 3790.520508,325.594757 
	C3790.186523,338.760223 3791.853516,352.093140 3793.758545,365.179260 
	C3803.847412,434.470398 3839.096924,487.636871 3897.886230,525.262085 
	C3929.667236,545.601990 3964.529297,557.992188 4001.639648,564.490540 
	C4055.252686,573.878662 4108.375000,572.489685 4160.421875,555.998779 
	C4209.654297,540.399902 4251.547852,514.273132 4278.262207,468.125488 
	C4278.812988,467.174194 4279.882324,466.523529 4281.889160,464.605469 
	C4281.236816,497.524078 4280.619141,528.664124 4279.989258,560.463989 
	C4315.309082,560.463989 4349.452148,560.463989 4383.592285,560.463989 
	C4383.592285,475.829437 4383.592285,391.719147 4383.592285,307.536438 
	C4274.018066,307.536438 4165.187500,307.536438 4056.390869,307.536438 
	C4056.390869,330.639160 4056.390869,353.091034 4056.390869,376.007599 
	C4104.409668,376.007599 4151.705078,376.007599 4201.000000,376.007599 
M3645.013672,561.108948 
	C3671.584961,561.108948 3698.156250,561.108948 3725.000000,561.108948 
	C3725.000000,403.875580 3725.000000,247.848236 3725.000000,91.622849 
	C3689.173096,91.622849 3654.034912,91.622849 3617.924805,91.622849 
	C3618.535400,101.970352 3619.466797,111.525551 3619.603516,121.092102 
	C3620.394043,176.327225 3621.111084,231.563995 3621.626709,286.802307 
	C3622.027588,329.767548 3622.102539,372.735840 3622.300537,415.702881 
	C3622.308838,417.497284 3622.100342,419.292664 3621.885254,422.879761 
	C3618.913574,419.504425 3617.158936,417.662994 3615.571777,415.686890 
	C3566.688721,354.826324 3517.837891,293.939972 3468.948242,233.084961 
	C3432.743164,188.019623 3396.446533,143.027878 3360.324951,97.895996 
	C3356.552246,93.182518 3352.760742,90.638237 3346.244629,90.716583 
	C3314.259521,91.101158 3282.267578,90.871361 3250.277832,90.931854 
	C3247.757568,90.936623 3245.238281,91.501701 3242.889160,91.785736 
	C3242.889160,248.413376 3242.889160,404.220245 3242.889160,560.448975 
	C3278.604736,560.448975 3313.744629,560.448975 3349.683594,560.448975 
	C3349.683594,556.534668 3349.736572,553.257874 3349.674805,549.983215 
	C3349.241943,527.049683 3348.628418,504.118347 3348.374512,481.182983 
	C3348.009521,448.208069 3347.951172,415.229889 3347.671875,382.253845 
	C3347.268799,334.661499 3346.781982,287.069916 3346.340332,239.477890 
	C3346.302246,235.364563 3346.335205,231.250580 3346.335205,226.116821 
	C3348.147949,228.052902 3349.288574,229.118484 3350.253906,230.324478 
	C3364.992920,248.733002 3379.722656,267.149170 3394.427979,285.584717 
	C3442.693359,346.093140 3490.931641,406.623077 3539.213379,467.118622 
	C3562.628174,496.456726 3586.184570,525.682129 3609.494629,555.103088 
	C3612.885254,559.382629 3616.350342,561.659424 3622.037598,561.233276 
	C3628.996338,560.711853 3636.023682,561.108643 3645.013672,561.108948 
M2746.624268,1131.624634 
	C2784.330566,1111.923950 2818.421631,1087.457764 2847.759277,1056.407349 
	C2877.974609,1024.427856 2900.388916,987.982666 2912.702881,945.653137 
	C2921.726562,914.635071 2924.264160,882.966187 2919.420410,850.971497 
	C2915.363037,824.170959 2906.919189,798.759705 2894.351318,774.610657 
	C2871.371826,730.457153 2838.324219,696.437500 2793.954346,673.827820 
	C2743.839600,648.290894 2690.517334,643.183472 2635.644531,651.197693 
	C2589.418457,657.949036 2546.293213,674.151245 2505.617676,696.923462 
	C2454.334473,725.634277 2410.575684,762.622559 2378.652832,812.641785 
	C2354.675049,850.211792 2342.082275,891.340515 2340.466797,935.718201 
	C2339.814453,953.637573 2341.955078,971.540100 2346.074463,989.020630 
	C2360.807373,1051.537720 2393.440186,1102.242554 2447.602051,1137.547974 
	C2498.210938,1170.537231 2554.575684,1179.676392 2613.845459,1173.494385 
	C2660.383301,1168.640381 2703.880859,1153.661865 2746.624268,1131.624634 
M3328.859863,1127.848022 
	C3350.054199,1120.781250 3370.387451,1111.824463 3389.369385,1099.975220 
	C3459.355225,1056.286499 3490.177734,991.321228 3491.430420,910.687317 
	C3491.629883,897.856995 3489.893799,884.905151 3488.063232,872.151428 
	C3481.735840,828.064392 3463.355957,789.610962 3432.407471,757.484436 
	C3404.330566,728.338989 3369.955078,709.283936 3331.972900,696.265869 
	C3288.034668,681.206665 3242.478760,676.440430 3196.432129,676.122070 
	C3126.103027,675.635742 3055.767822,675.987366 2985.435303,676.023621 
	C2982.922119,676.024902 2980.408691,676.455322 2978.226074,676.655457 
	C2978.226074,833.741516 2978.226074,989.957336 2978.226074,1147.103271 
	C2982.380371,1147.103271 2985.983643,1147.103271 2989.587158,1147.103271 
	C3044.919922,1147.103271 3100.252930,1147.039551 3155.585693,1147.127930 
	C3187.203125,1147.178467 3218.810303,1147.138306 3250.317627,1144.002319 
	C3276.526367,1141.393677 3302.268311,1136.495972 3328.859863,1127.848022 
M562.911987,162.109024 
	C549.741943,142.582367 531.796143,128.572327 511.130859,117.898445 
	C475.561340,99.526337 437.183044,91.556190 397.634064,91.139626 
	C317.998383,90.300850 238.347672,90.884735 158.703156,90.908600 
	C155.464493,90.909569 152.225937,91.184761 148.720917,91.344307 
	C148.720917,248.110764 148.720917,403.953156 148.720917,559.705261 
	C158.972427,561.986023 250.188385,561.593140 257.983521,559.077637 
	C257.983521,504.486969 257.983521,449.639496 257.983521,394.009186 
	C262.011505,394.009186 265.275452,394.009186 268.539429,394.009155 
	C308.861542,394.009125 349.183685,394.017212 389.505798,394.004974 
	C404.619934,394.000397 419.298279,396.487030 433.403290,401.927307 
	C457.095612,411.065399 472.781830,427.602692 478.062531,452.701538 
	C480.231110,463.008698 480.974030,473.686157 481.562073,484.239960 
	C482.597290,502.818573 482.987335,521.432678 483.706512,540.029602 
	C483.961761,546.629822 484.388947,553.223328 484.770996,560.451416 
	C521.924744,560.451416 558.728943,560.451416 595.813049,560.451416 
	C595.990723,558.056091 596.349060,556.087769 596.248718,554.143127 
	C594.984436,529.635254 593.638611,505.131500 592.346252,480.625000 
	C591.629517,467.033997 591.584473,453.374329 590.137024,439.863434 
	C588.321533,422.917816 583.479797,406.713135 575.043518,391.710815 
	C558.873962,362.956268 533.947998,346.301361 502.338135,338.804291 
	C498.305420,337.847809 494.257660,336.954559 487.973267,335.519806 
	C496.537292,333.239960 502.725891,331.976379 508.654388,329.951324 
	C544.879639,317.577789 569.438293,293.966522 578.644104,256.042084 
	C586.640686,223.099380 581.862915,192.090057 562.911987,162.109024 
M2271.148193,127.848335 
	C2267.222656,125.356163 2263.412109,122.656494 2259.353271,120.404198 
	C2222.997070,100.228943 2183.307861,91.762054 2142.421631,91.211174 
	C2062.128174,90.129372 1981.809937,90.886253 1901.501831,90.919884 
	C1898.605347,90.921097 1895.709106,91.319519 1892.800293,91.533737 
	C1892.800293,248.228485 1892.800293,404.065155 1892.800293,560.471924 
	C1928.734375,560.471924 1964.184937,560.471924 2000.704346,560.471924 
	C2000.704346,504.710724 2000.704346,449.576904 2000.704346,394.524811 
	C2002.750610,394.273590 2003.735107,394.047577 2004.719604,394.047028 
	C2049.372070,394.021881 2094.026855,393.757812 2138.676025,394.153046 
	C2153.711914,394.286133 2168.452148,397.566467 2182.197510,403.964508 
	C2200.906250,412.672974 2213.657959,426.733124 2220.267822,446.550720 
	C2225.318115,461.692810 2224.167725,477.409729 2225.452637,492.856018 
	C2227.019775,511.697357 2226.976562,530.670776 2227.739502,549.582581 
	C2227.882568,553.134583 2228.541260,556.665833 2228.988281,560.426514 
	C2266.056396,560.426514 2302.536621,560.426514 2339.666504,560.426514 
	C2339.666504,555.118958 2339.859619,550.478455 2339.633789,545.858521 
	C2338.597168,524.651733 2337.668213,503.435730 2336.261963,482.252167 
	C2335.076172,464.390747 2334.656494,446.323547 2331.505127,428.777130 
	C2322.607910,379.236755 2289.828613,347.128113 2240.605469,337.791748 
	C2237.885742,337.275879 2235.229980,336.421448 2230.436768,335.177734 
	C2233.716064,334.437378 2234.658203,334.174011 2235.617676,334.015533 
	C2260.018311,329.985168 2281.623047,319.736877 2298.175537,301.486481 
	C2325.056152,271.848663 2330.879883,236.445587 2322.347412,198.252457 
	C2315.603516,168.066147 2297.163086,145.971451 2271.148193,127.848335 
M1728.317627,875.614075 
	C1724.906372,902.777100 1724.972900,929.857117 1729.952881,956.864624 
	C1739.987549,1011.286194 1766.194580,1056.286987 1808.476685,1091.928101 
	C1841.102295,1119.429443 1878.691040,1137.318115 1919.727051,1147.962524 
	C1964.212036,1159.501343 2009.415771,1162.479980 2055.210938,1158.094971 
	C2102.822266,1153.535889 2148.104980,1141.459961 2189.398438,1116.892944 
	C2240.179932,1086.681396 2275.615234,1044.464966 2288.728027,985.625305 
	C2291.070312,975.114380 2293.845947,964.510010 2291.578857,953.640808 
	C2273.750000,951.814575 2191.841064,952.508362 2185.100586,954.344666 
	C2182.480957,964.165405 2180.707275,974.024963 2177.236572,983.245850 
	C2165.045410,1015.634827 2141.958496,1038.316284 2111.609131,1053.861206 
	C2079.236328,1070.442505 2044.637817,1076.238403 2008.428711,1075.081177 
	C1985.234497,1074.340210 1962.927612,1070.251099 1941.232666,1062.262817 
	C1917.777710,1053.626465 1896.803711,1040.812134 1879.806396,1022.561218 
	C1843.971924,984.083435 1831.139771,937.810791 1838.601807,886.486267 
	C1847.404297,825.943054 1881.319824,783.801636 1937.771729,760.418884 
	C1975.639526,744.733826 2015.178101,742.616760 2055.334961,748.931091 
	C2082.272705,753.166931 2107.454590,762.152161 2130.044189,777.717773 
	C2158.068115,797.027954 2176.652344,822.747559 2183.178711,856.554321 
	C2183.920410,860.396667 2184.378174,864.293823 2185.160645,869.433838 
	C2221.238037,868.592041 2257.020264,867.757141 2292.692139,866.924805 
	C2293.153076,865.083496 2293.656494,864.118103 2293.577393,863.203125 
	C2293.264160,859.581177 2292.702881,855.981384 2292.351074,852.361938 
	C2289.902344,827.157776 2281.885010,803.775513 2269.170898,781.972351 
	C2247.911621,745.515259 2217.141113,719.281250 2180.173828,699.871643 
	C2131.126221,674.119385 2078.200684,664.265442 2023.455933,663.113953 
	C2005.581177,662.737915 1987.581909,664.258362 1969.761230,666.092468 
	C1918.338135,671.384705 1870.482788,687.226196 1827.580444,716.596008 
	C1790.768555,741.796509 1763.006714,774.580383 1745.103760,815.648560 
	C1736.949829,834.353027 1732.041382,853.888184 1728.317627,875.614075 
M604.315918,875.000000 
	C604.315918,965.256653 604.315918,1055.513306 604.315918,1145.592041 
	C614.598755,1147.936401 706.081665,1147.598145 714.075806,1145.090576 
	C714.075806,1081.516724 714.075806,1017.660767 714.075806,953.689148 
	C793.769409,953.689148 872.576660,953.689148 952.254517,953.689148 
	C952.254517,1018.107788 952.254517,1081.955444 952.254517,1145.601807 
	C963.000916,1147.990479 1054.216797,1147.589600 1061.126221,1145.345947 
	C1061.126221,989.150940 1061.126221,832.981873 1061.126221,676.552795 
	C1024.764526,676.552795 988.962952,676.552795 952.098267,676.552795 
	C952.098267,739.864929 952.098267,802.625061 952.098267,865.497070 
	C872.198730,865.497070 793.366516,865.497070 713.496948,865.497070 
	C713.496948,802.233826 713.496948,739.455383 713.496948,676.614685 
	C676.652405,676.614685 640.850220,676.614685 604.316040,676.614685 
	C604.316040,742.490234 604.316040,807.745117 604.315918,875.000000 
M1196.999756,1147.111816 
	C1307.944580,1146.945068 1418.889282,1146.778809 1529.834106,1146.587891 
	C1530.105835,1146.587402 1530.400146,1146.250000 1530.642090,1146.025024 
	C1530.870239,1145.813232 1531.042969,1145.541748 1531.094482,1145.477661 
	C1531.094482,1118.437744 1531.094482,1091.583008 1531.094482,1063.718384 
	C1437.729370,1063.718384 1344.950073,1063.718384 1252.257935,1063.718384 
	C1250.432007,1039.724854 1251.201904,953.790588 1253.438965,945.623962 
	C1332.717529,945.623962 1412.215454,945.623962 1492.250122,945.623962 
	C1492.323730,921.071655 1492.501831,897.316406 1492.159058,872.566162 
	C1411.366821,872.566162 1331.918701,872.566162 1252.231689,872.566162 
	C1252.231689,833.716919 1252.231689,795.888245 1252.231689,756.895569 
	C1344.208740,756.895569 1435.647827,756.895569 1526.961304,756.895569 
	C1528.720581,738.847656 1528.058350,683.209290 1526.130737,676.389648 
	C1494.778320,674.403259 1152.651123,675.406738 1144.797241,677.508545 
	C1144.797241,833.666565 1144.797241,989.824524 1144.797241,1147.111084 
	C1161.836426,1147.111084 1178.418091,1147.111084 1196.999756,1147.111816 
M1046.341553,528.995117 
	C1046.341553,512.157959 1046.341553,495.320801 1046.341553,477.724854 
	C952.119690,477.724854 859.286560,477.724854 766.417542,477.724854 
	C766.417542,438.478577 766.417542,400.033173 766.417542,360.685608 
	C846.652588,360.685608 926.163391,360.685608 1005.957275,360.685608 
	C1005.957275,335.856964 1005.957275,311.939880 1005.957275,286.727051 
	C925.852356,286.727051 846.119385,286.727051 766.284668,286.727051 
	C766.284668,247.596832 766.284668,209.766373 766.284668,171.118149 
	C797.465637,171.118149 828.057556,171.118149 858.649475,171.118149 
	C888.976074,171.118149 919.302673,171.133514 949.629272,171.113846 
	C980.149231,171.094055 1010.671936,171.202606 1041.176270,171.043625 
	C1041.176270,143.707474 1041.176270,117.836266 1041.176270,91.528748 
	C913.892517,91.528748 787.122925,91.528748 660.426147,91.528748 
	C658.537170,108.461510 659.312195,553.302246 661.192688,560.496277 
	C789.323669,560.496277 917.476562,560.496277 1046.341675,560.496277 
	C1046.341675,550.257263 1046.341675,540.624207 1046.341553,528.995117 
M3662.368164,868.533691 
	C3662.368164,831.657471 3662.368164,794.781250 3662.368164,757.014526 
	C3754.901855,757.014526 3846.121826,757.014526 3937.780518,757.014526 
	C3937.780518,729.657349 3937.780518,703.208191 3937.780518,676.685730 
	C3810.457275,676.685730 3683.691162,676.685730 3556.812256,676.685730 
	C3556.812256,833.561096 3556.812256,989.741272 3556.812256,1146.497314 
	C3685.786865,1146.497314 3814.265137,1146.497314 3943.019531,1146.497314 
	C3943.019531,1118.776489 3943.019531,1091.672363 3943.019531,1063.591553 
	C3849.219482,1063.591553 3756.079834,1063.591553 3662.801758,1063.591553 
	C3662.801758,1024.081787 3662.801758,985.556641 3662.801758,946.050598 
	C3743.066406,946.050598 3822.874023,946.050598 3903.016113,946.050598 
	C3903.016113,921.320740 3903.016113,897.578918 3903.016113,872.890137 
	C3898.752441,872.890137 3895.148193,872.890137 3891.544189,872.890137 
	C3861.212158,872.890137 3830.880127,872.890137 3800.548096,872.890137 
	C3757.883057,872.890076 3715.218018,872.941040 3672.553467,872.791382 
	C3669.203125,872.779663 3665.067383,874.612244 3662.368164,868.533691 
M2990.545898,173.112350 
	C2994.082764,173.112350 2997.619385,173.112350 3001.192627,173.112350 
	C3001.192627,145.088516 3001.192627,118.543114 3001.192627,91.450241 
	C2858.895020,91.450241 2717.091064,91.450241 2574.983154,91.450241 
	C2574.983154,118.762238 2574.983154,145.506943 2574.983154,173.112595 
	C2588.583008,173.112595 2601.524658,173.112610 2614.466064,173.112610 
	C2627.797363,173.112610 2641.128662,173.112610 2654.459961,173.112610 
	C2667.458008,173.112610 2680.456055,173.088470 2693.454102,173.119339 
	C2706.623779,173.150635 2719.803711,172.978561 2733.836914,173.242706 
	C2733.836914,303.204376 2733.836914,431.690155 2733.836914,560.610840 
	C2770.292236,560.610840 2805.814941,560.610840 2842.564453,560.610840 
	C2842.564453,431.368774 2842.564453,302.622070 2842.564453,173.111771 
	C2892.076416,173.111771 2940.364258,173.111771 2990.545898,173.112350 
M141.183136,759.101379 
	C187.709015,759.101379 234.234894,759.101379 281.623047,759.101379 
	C281.623047,888.974976 281.623047,1017.491638 281.623047,1145.844849 
	C292.576141,1147.842773 382.611725,1147.489746 390.623352,1145.342773 
	C390.623352,1017.072632 390.623352,888.558350 390.623352,758.883301 
	C444.005951,758.883301 496.501801,758.883301 548.847168,758.883301 
	C550.640503,742.832458 550.029053,683.184509 548.143860,676.397278 
	C516.433899,674.372803 130.611008,675.401917 122.903351,677.503662 
	C122.903351,704.371948 122.903351,731.208557 122.903351,759.100708 
	C128.721512,759.100708 133.986557,759.100708 141.183136,759.101379 
M3057.671631,356.999969 
	C3057.671631,424.798737 3057.671631,492.597504 3057.671631,560.452637 
	C3093.993896,560.452637 3128.819580,560.452637 3163.582031,560.452637 
	C3163.582031,403.742218 3163.582031,247.677261 3163.582031,91.547256 
	C3128.006348,91.547256 3093.180664,91.547256 3057.671387,91.547256 
	C3057.671387,179.793106 3057.671387,267.396515 3057.671631,356.999969 
M2516.328369,393.000031 
	C2516.328369,292.541168 2516.328369,192.082291 2516.328369,91.532516 
	C2480.028320,91.532516 2445.197510,91.532516 2410.404053,91.532516 
	C2410.404053,248.231094 2410.404053,404.300171 2410.404053,560.467773 
	C2445.971191,560.467773 2480.802490,560.467773 2516.328613,560.467773 
	C2516.328613,504.894318 2516.328613,449.947174 2516.328369,393.000031 
z"/>
<path fill="#FF5B02" opacity="1.000000" stroke="none" 
	d="
M1279.999756,561.106812 
	C1259.010376,561.106506 1239.020874,561.106506 1218.046509,561.106506 
	C1170.016357,404.703888 1122.014648,248.394394 1073.790039,91.358780 
	C1112.292725,91.358780 1149.484497,91.358780 1187.257568,91.358780 
	C1220.846191,205.918137 1254.355835,320.207825 1287.865356,434.497498 
	C1288.448975,434.545013 1289.032593,434.592499 1289.616211,434.640015 
	C1325.954224,320.483826 1362.292236,206.327652 1398.815552,91.589455 
	C1439.796265,91.589455 1480.614502,91.589455 1522.680298,91.589455 
	C1559.169067,205.651337 1595.774536,320.078217 1632.380005,434.505096 
	C1632.957031,434.599152 1633.534180,434.693176 1634.111206,434.787201 
	C1667.656982,320.412964 1701.202759,206.038742 1734.836182,91.365341 
	C1771.912354,91.365341 1808.498901,91.365341 1846.682129,91.365341 
	C1830.910034,144.201599 1814.049805,196.106262 1797.896973,248.220398 
	C1781.773804,300.238647 1765.248169,352.131989 1748.979492,404.105347 
	C1732.625366,456.351440 1716.370605,508.628601 1700.087891,560.841919 
	C1657.784302,560.841919 1616.487549,560.841919 1573.753906,560.841919 
	C1554.465820,503.072327 1536.346680,444.471680 1517.442383,386.133850 
	C1498.514282,327.722351 1480.024048,269.168945 1459.728149,210.399277 
	C1422.150269,326.887085 1384.572266,443.374908 1346.592896,561.107117 
	C1324.796875,561.107117 1302.898315,561.107117 1279.999756,561.106812 
z"/>
<path fill="#FF5B02" opacity="1.000000" stroke="none" 
	d="
M4200.000000,376.007599 
	C4151.705078,376.007599 4104.409668,376.007599 4056.390869,376.007599 
	C4056.390869,353.091034 4056.390869,330.639160 4056.390869,307.536438 
	C4165.187500,307.536438 4274.018066,307.536438 4383.592285,307.536438 
	C4383.592285,391.719147 4383.592285,475.829437 4383.592285,560.463989 
	C4349.452148,560.463989 4315.309082,560.463989 4279.989258,560.463989 
	C4280.619141,528.664124 4281.236816,497.524078 4281.889160,464.605469 
	C4279.882324,466.523529 4278.812988,467.174194 4278.262207,468.125488 
	C4251.547852,514.273132 4209.654297,540.399902 4160.421875,555.998779 
	C4108.375000,572.489685 4055.252686,573.878662 4001.639648,564.490540 
	C3964.529297,557.992188 3929.667236,545.601990 3897.886230,525.262085 
	C3839.096924,487.636871 3803.847412,434.470398 3793.758545,365.179260 
	C3791.853516,352.093140 3790.186523,338.760223 3790.520508,325.594757 
	C3792.573730,244.670090 3826.310303,180.298737 3893.088623,134.026611 
	C3939.555908,101.828529 3991.856689,85.649918 4047.680664,80.035294 
	C4062.541504,78.540619 4077.494873,77.012741 4092.397461,77.090714 
	C4119.322754,77.231598 4146.198730,79.134552 4172.731445,84.177620 
	C4205.898926,90.481743 4237.816406,100.640175 4267.658691,116.578308 
	C4307.590332,137.905045 4340.433105,166.643753 4360.952148,207.886719 
	C4368.104492,222.262238 4372.336426,237.585983 4375.539551,253.227173 
	C4375.857910,254.783676 4375.430664,256.492889 4375.301758,259.104919 
	C4339.320801,260.213562 4303.561523,261.315338 4267.608887,262.423126 
	C4262.917969,246.993164 4256.750488,233.483887 4247.810059,221.333054 
	C4228.797852,195.493759 4203.218262,178.407028 4173.288574,168.567734 
	C4112.771973,148.672882 4052.448730,149.903122 3994.515625,177.406479 
	C3944.167969,201.308777 3912.426270,241.181473 3903.877197,297.115112 
	C3896.046875,348.347137 3907.656250,394.927338 3942.024170,434.558990 
	C3962.783936,458.497864 3989.488037,473.850555 4019.320801,483.772614 
	C4039.907227,490.619476 4061.135742,493.804932 4082.853516,495.122620 
	C4113.128906,496.959595 4142.540039,493.491699 4171.262207,484.088623 
	C4209.524902,471.561981 4240.763184,449.584045 4262.329102,415.019592 
	C4269.715820,403.181335 4275.511719,390.620361 4278.751465,376.007599 
	C4252.236816,376.007599 4226.618652,376.007599 4200.000000,376.007599 
z"/>
<path fill="#FF5B03" opacity="1.000000" stroke="none" 
	d="
M3644.017578,561.108643 
	C3636.023682,561.108643 3628.996338,560.711853 3622.037598,561.233276 
	C3616.350342,561.659424 3612.885254,559.382629 3609.494629,555.103088 
	C3586.184570,525.682129 3562.628174,496.456726 3539.213379,467.118622 
	C3490.931641,406.623077 3442.693359,346.093140 3394.427979,285.584717 
	C3379.722656,267.149170 3364.992920,248.733002 3350.253906,230.324478 
	C3349.288574,229.118484 3348.147949,228.052902 3346.335205,226.116821 
	C3346.335205,231.250580 3346.302246,235.364563 3346.340332,239.477890 
	C3346.781982,287.069916 3347.268799,334.661499 3347.671875,382.253845 
	C3347.951172,415.229889 3348.009521,448.208069 3348.374512,481.182983 
	C3348.628418,504.118347 3349.241943,527.049683 3349.674805,549.983215 
	C3349.736572,553.257874 3349.683594,556.534668 3349.683594,560.448975 
	C3313.744629,560.448975 3278.604736,560.448975 3242.889160,560.448975 
	C3242.889160,404.220245 3242.889160,248.413376 3242.889160,91.785736 
	C3245.238281,91.501701 3247.757568,90.936623 3250.277832,90.931854 
	C3282.267578,90.871361 3314.259521,91.101158 3346.244629,90.716583 
	C3352.760742,90.638237 3356.552246,93.182518 3360.324951,97.895996 
	C3396.446533,143.027878 3432.743164,188.019623 3468.948242,233.084961 
	C3517.837891,293.939972 3566.688721,354.826324 3615.571777,415.686890 
	C3617.158936,417.662994 3618.913574,419.504425 3621.885254,422.879761 
	C3622.100342,419.292664 3622.308838,417.497284 3622.300537,415.702881 
	C3622.102539,372.735840 3622.027588,329.767548 3621.626709,286.802307 
	C3621.111084,231.563995 3620.394043,176.327225 3619.603516,121.092102 
	C3619.466797,111.525551 3618.535400,101.970352 3617.924805,91.622849 
	C3654.034912,91.622849 3689.173096,91.622849 3725.000000,91.622849 
	C3725.000000,247.848236 3725.000000,403.875580 3725.000000,561.108948 
	C3698.156250,561.108948 3671.584961,561.108948 3644.017578,561.108643 
z"/>
<path fill="#FF5A02" opacity="1.000000" stroke="none" 
	d="
M2745.991455,1132.017700 
	C2703.880859,1153.661865 2660.383301,1168.640381 2613.845459,1173.494385 
	C2554.575684,1179.676392 2498.210938,1170.537231 2447.602051,1137.547974 
	C2393.440186,1102.242554 2360.807373,1051.537720 2346.074463,989.020630 
	C2341.955078,971.540100 2339.814453,953.637573 2340.466797,935.718201 
	C2342.082275,891.340515 2354.675049,850.211792 2378.652832,812.641785 
	C2410.575684,762.622559 2454.334473,725.634277 2505.617676,696.923462 
	C2546.293213,674.151245 2589.418457,657.949036 2635.644531,651.197693 
	C2690.517334,643.183472 2743.839600,648.290894 2793.954346,673.827820 
	C2838.324219,696.437500 2871.371826,730.457153 2894.351318,774.610657 
	C2906.919189,798.759705 2915.363037,824.170959 2919.420410,850.971497 
	C2924.264160,882.966187 2921.726562,914.635071 2912.702881,945.653137 
	C2900.388916,987.982666 2877.974609,1024.427856 2847.759277,1056.407349 
	C2818.421631,1087.457764 2784.330566,1111.923950 2745.991455,1132.017700 
M2447.680176,910.673950 
	C2447.267578,914.621765 2446.257812,918.613281 2446.542725,922.510132 
	C2448.045410,943.078247 2451.454102,963.172607 2459.414062,982.487915 
	C2488.994385,1054.265869 2556.548340,1092.619141 2633.371338,1081.014526 
	C2685.740967,1073.103760 2730.425537,1049.642578 2767.221680,1011.644897 
	C2797.590820,980.284363 2814.992188,943.176208 2814.295166,898.758362 
	C2813.505859,848.473755 2792.729492,807.282959 2755.072021,774.979187 
	C2718.221191,743.367493 2674.268311,733.692749 2627.128906,740.776917 
	C2572.678711,748.959656 2526.313232,773.834412 2489.335205,814.896667 
	C2465.342773,841.539001 2450.700195,872.737976 2447.680176,910.673950 
z"/>
<path fill="#FF5A02" opacity="1.000000" stroke="none" 
	d="
M3328.079102,1127.999512 
	C3302.268311,1136.495972 3276.526367,1141.393677 3250.317627,1144.002319 
	C3218.810303,1147.138306 3187.203125,1147.178467 3155.585693,1147.127930 
	C3100.252930,1147.039551 3044.919922,1147.103271 2989.587158,1147.103271 
	C2985.983643,1147.103271 2982.380371,1147.103271 2978.226074,1147.103271 
	C2978.226074,989.957336 2978.226074,833.741516 2978.226074,676.655457 
	C2980.408691,676.455322 2982.922119,676.024902 2985.435303,676.023621 
	C3055.767822,675.987366 3126.103027,675.635742 3196.432129,676.122070 
	C3242.478760,676.440430 3288.034668,681.206665 3331.972900,696.265869 
	C3369.955078,709.283936 3404.330566,728.338989 3432.407471,757.484436 
	C3463.355957,789.610962 3481.735840,828.064392 3488.063232,872.151428 
	C3489.893799,884.905151 3491.629883,897.856995 3491.430420,910.687317 
	C3490.177734,991.321228 3459.355225,1056.286499 3389.369385,1099.975220 
	C3370.387451,1111.824463 3350.054199,1120.781250 3328.079102,1127.999512 
M3356.286621,999.145203 
	C3359.238037,994.325256 3362.499268,989.665649 3365.090820,984.659363 
	C3381.237305,953.471008 3385.180176,920.323181 3380.251465,885.911194 
	C3374.381348,844.925903 3354.645752,812.227905 3320.477539,788.741760 
	C3285.863770,764.949402 3246.537842,756.139954 3205.320557,755.265259 
	C3169.015625,754.494873 3132.681396,755.093018 3096.360107,755.123352 
	C3093.123291,755.126099 3089.886719,755.398315 3086.305908,755.560974 
	C3086.305908,859.890625 3086.305908,963.618774 3086.305908,1067.994141 
	C3090.202881,1067.994141 3093.480713,1067.994141 3096.758301,1067.994141 
	C3130.413818,1067.994141 3164.071289,1067.773315 3197.724121,1068.071167 
	C3220.503418,1068.272705 3242.882080,1065.579956 3264.797607,1059.682983 
	C3301.429932,1049.826050 3332.939941,1031.858521 3356.286621,999.145203 
z"/>
<path fill="#FF5B03" opacity="1.000000" stroke="none" 
	d="
M563.350342,162.687454 
	C581.862915,192.090057 586.640686,223.099380 578.644104,256.042084 
	C569.438293,293.966522 544.879639,317.577789 508.654388,329.951324 
	C502.725891,331.976379 496.537292,333.239960 487.973267,335.519806 
	C494.257660,336.954559 498.305420,337.847809 502.338135,338.804291 
	C533.947998,346.301361 558.873962,362.956268 575.043518,391.710815 
	C583.479797,406.713135 588.321533,422.917816 590.137024,439.863434 
	C591.584473,453.374329 591.629517,467.033997 592.346252,480.625000 
	C593.638611,505.131500 594.984436,529.635254 596.248718,554.143127 
	C596.349060,556.087769 595.990723,558.056091 595.813049,560.451416 
	C558.728943,560.451416 521.924744,560.451416 484.770996,560.451416 
	C484.388947,553.223328 483.961761,546.629822 483.706512,540.029602 
	C482.987335,521.432678 482.597290,502.818573 481.562073,484.239960 
	C480.974030,473.686157 480.231110,463.008698 478.062531,452.701538 
	C472.781830,427.602692 457.095612,411.065399 433.403290,401.927307 
	C419.298279,396.487030 404.619934,394.000397 389.505798,394.004974 
	C349.183685,394.017212 308.861542,394.009125 268.539429,394.009155 
	C265.275452,394.009186 262.011505,394.009186 257.983521,394.009186 
	C257.983521,449.639496 257.983521,504.486969 257.983521,559.077637 
	C250.188385,561.593140 158.972427,561.986023 148.720917,559.705261 
	C148.720917,403.953156 148.720917,248.110764 148.720917,91.344307 
	C152.225937,91.184761 155.464493,90.909569 158.703156,90.908600 
	C238.347672,90.884735 317.998383,90.300850 397.634064,91.139626 
	C437.183044,91.556190 475.561340,99.526337 511.130859,117.898445 
	C531.796143,128.572327 549.741943,142.582367 563.350342,162.687454 
M257.684753,240.999954 
	C257.684784,253.650772 257.669159,266.301636 257.689178,278.952423 
	C257.708984,291.463165 257.593689,303.980835 257.773743,316.302246 
	C260.199890,316.598633 261.188293,316.824219 262.176849,316.825012 
	C303.791687,316.857788 345.409790,317.178436 387.019775,316.736969 
	C404.117767,316.555573 420.601318,312.288025 435.659790,303.853058 
	C457.427795,291.659851 470.513947,273.456268 472.258728,248.147522 
	C474.207275,219.882645 463.518463,197.607529 439.520111,182.163635 
	C421.030487,170.264862 400.177063,166.400757 378.733307,166.138184 
	C341.118927,165.677628 303.494873,165.998108 265.874878,166.035370 
	C263.320526,166.037903 260.766571,166.407150 257.684692,166.646896 
	C257.684692,191.149414 257.684692,215.074677 257.684753,240.999954 
z"/>
<path fill="#FF5B02" opacity="1.000000" stroke="none" 
	d="
M2271.777832,128.194977 
	C2297.163086,145.971451 2315.603516,168.066147 2322.347412,198.252457 
	C2330.879883,236.445587 2325.056152,271.848663 2298.175537,301.486481 
	C2281.623047,319.736877 2260.018311,329.985168 2235.617676,334.015533 
	C2234.658203,334.174011 2233.716064,334.437378 2230.436768,335.177734 
	C2235.229980,336.421448 2237.885742,337.275879 2240.605469,337.791748 
	C2289.828613,347.128113 2322.607910,379.236755 2331.505127,428.777130 
	C2334.656494,446.323547 2335.076172,464.390747 2336.261963,482.252167 
	C2337.668213,503.435730 2338.597168,524.651733 2339.633789,545.858521 
	C2339.859619,550.478455 2339.666504,555.118958 2339.666504,560.426514 
	C2302.536621,560.426514 2266.056396,560.426514 2228.988281,560.426514 
	C2228.541260,556.665833 2227.882568,553.134583 2227.739502,549.582581 
	C2226.976562,530.670776 2227.019775,511.697357 2225.452637,492.856018 
	C2224.167725,477.409729 2225.318115,461.692810 2220.267822,446.550720 
	C2213.657959,426.733124 2200.906250,412.672974 2182.197510,403.964508 
	C2168.452148,397.566467 2153.711914,394.286133 2138.676025,394.153046 
	C2094.026855,393.757812 2049.372070,394.021881 2004.719604,394.047028 
	C2003.735107,394.047577 2002.750610,394.273590 2000.704346,394.524811 
	C2000.704346,449.576904 2000.704346,504.710724 2000.704346,560.471924 
	C1964.184937,560.471924 1928.734375,560.471924 1892.800293,560.471924 
	C1892.800293,404.065155 1892.800293,248.228485 1892.800293,91.533737 
	C1895.709106,91.319519 1898.605347,90.921097 1901.501831,90.919884 
	C1981.809937,90.886253 2062.128174,90.129372 2142.421631,91.211174 
	C2183.307861,91.762054 2222.997070,100.228943 2259.353271,120.404198 
	C2263.412109,122.656494 2267.222656,125.356163 2271.777832,128.194977 
M2044.999878,316.896820 
	C2072.625000,316.896698 2100.254150,317.191895 2127.873779,316.800995 
	C2149.163574,316.499725 2169.177490,311.272003 2187.009521,298.985901 
	C2224.376221,273.240417 2226.505127,216.741837 2191.244385,188.079407 
	C2171.395996,171.945251 2147.932129,166.603378 2123.327393,166.179703 
	C2085.062988,165.520828 2046.778931,165.993011 2008.503174,166.034134 
	C2005.970459,166.036850 2003.438232,166.448349 2000.852783,166.674347 
	C2000.852783,216.813034 2000.852783,266.266876 2000.852783,316.897430 
	C2015.228271,316.897430 2029.114136,316.897430 2044.999878,316.896820 
z"/>
<path fill="#FF5A02" opacity="1.000000" stroke="none" 
	d="
M1728.365234,874.726685 
	C1732.041382,853.888184 1736.949829,834.353027 1745.103760,815.648560 
	C1763.006714,774.580383 1790.768555,741.796509 1827.580444,716.596008 
	C1870.482788,687.226196 1918.338135,671.384705 1969.761230,666.092468 
	C1987.581909,664.258362 2005.581177,662.737915 2023.455933,663.113953 
	C2078.200684,664.265442 2131.126221,674.119385 2180.173828,699.871643 
	C2217.141113,719.281250 2247.911621,745.515259 2269.170898,781.972351 
	C2281.885010,803.775513 2289.902344,827.157776 2292.351074,852.361938 
	C2292.702881,855.981384 2293.264160,859.581177 2293.577393,863.203125 
	C2293.656494,864.118103 2293.153076,865.083496 2292.692139,866.924805 
	C2257.020264,867.757141 2221.238037,868.592041 2185.160645,869.433838 
	C2184.378174,864.293823 2183.920410,860.396667 2183.178711,856.554321 
	C2176.652344,822.747559 2158.068115,797.027954 2130.044189,777.717773 
	C2107.454590,762.152161 2082.272705,753.166931 2055.334961,748.931091 
	C2015.178101,742.616760 1975.639526,744.733826 1937.771729,760.418884 
	C1881.319824,783.801636 1847.404297,825.943054 1838.601807,886.486267 
	C1831.139771,937.810791 1843.971924,984.083435 1879.806396,1022.561218 
	C1896.803711,1040.812134 1917.777710,1053.626465 1941.232666,1062.262817 
	C1962.927612,1070.251099 1985.234497,1074.340210 2008.428711,1075.081177 
	C2044.637817,1076.238403 2079.236328,1070.442505 2111.609131,1053.861206 
	C2141.958496,1038.316284 2165.045410,1015.634827 2177.236572,983.245850 
	C2180.707275,974.024963 2182.480957,964.165405 2185.100586,954.344666 
	C2191.841064,952.508362 2273.750000,951.814575 2291.578857,953.640808 
	C2293.845947,964.510010 2291.070312,975.114380 2288.728027,985.625305 
	C2275.615234,1044.464966 2240.179932,1086.681396 2189.398438,1116.892944 
	C2148.104980,1141.459961 2102.822266,1153.535889 2055.210938,1158.094971 
	C2009.415771,1162.479980 1964.212036,1159.501343 1919.727051,1147.962524 
	C1878.691040,1137.318115 1841.102295,1119.429443 1808.476685,1091.928101 
	C1766.194580,1056.286987 1739.987549,1011.286194 1729.952881,956.864624 
	C1724.972900,929.857117 1724.906372,902.777100 1728.365234,874.726685 
z"/>
<path fill="#FF5B03" opacity="1.000000" stroke="none" 
	d="
M604.315979,874.000000 
	C604.316040,807.745117 604.316040,742.490234 604.316040,676.614685 
	C640.850220,676.614685 676.652405,676.614685 713.496948,676.614685 
	C713.496948,739.455383 713.496948,802.233826 713.496948,865.497070 
	C793.366516,865.497070 872.198730,865.497070 952.098267,865.497070 
	C952.098267,802.625061 952.098267,739.864929 952.098267,676.552795 
	C988.962952,676.552795 1024.764526,676.552795 1061.126221,676.552795 
	C1061.126221,832.981873 1061.126221,989.150940 1061.126221,1145.345947 
	C1054.216797,1147.589600 963.000916,1147.990479 952.254517,1145.601807 
	C952.254517,1081.955444 952.254517,1018.107788 952.254517,953.689148 
	C872.576660,953.689148 793.769409,953.689148 714.075806,953.689148 
	C714.075806,1017.660767 714.075806,1081.516724 714.075806,1145.090576 
	C706.081665,1147.598145 614.598755,1147.936401 604.315918,1145.592041 
	C604.315918,1055.513306 604.315918,965.256653 604.315979,874.000000 
z"/>
<path fill="#FF5B03" opacity="1.000000" stroke="none" 
	d="
M1195.999756,1147.111450 
	C1178.418091,1147.111084 1161.836426,1147.111084 1144.797241,1147.111084 
	C1144.797241,989.824524 1144.797241,833.666565 1144.804688,677.508301 
	C1152.651123,675.406738 1494.778320,674.403259 1526.130737,676.389648 
	C1528.058350,683.209290 1528.720581,738.847656 1526.961304,756.895569 
	C1435.647827,756.895569 1344.208740,756.895569 1252.231689,756.895569 
	C1252.231689,795.888245 1252.231689,833.716919 1252.231689,872.566162 
	C1331.918701,872.566162 1411.366821,872.566162 1492.159058,872.566162 
	C1492.501831,897.316406 1492.323730,921.071655 1492.250122,945.623962 
	C1412.215454,945.623962 1332.717529,945.623962 1253.438965,945.623962 
	C1251.201904,953.790588 1250.432007,1039.724854 1252.257935,1063.718384 
	C1344.950073,1063.718384 1437.729370,1063.718384 1531.094482,1063.718384 
	C1531.094482,1091.583008 1531.094482,1118.437744 1531.094482,1145.477661 
	C1531.042969,1145.541748 1530.870239,1145.813232 1530.642090,1146.025024 
	C1530.400146,1146.250000 1530.105835,1146.587402 1529.834106,1146.587891 
	C1418.889282,1146.778809 1307.944580,1146.945068 1195.999756,1147.111450 
z"/>
<path fill="#FF5B04" opacity="1.000000" stroke="none" 
	d="
M1046.341553,529.993164 
	C1046.341675,540.624207 1046.341675,550.257263 1046.341675,560.496277 
	C917.476562,560.496277 789.323669,560.496277 661.192688,560.496277 
	C659.312195,553.302246 658.537170,108.461510 660.426147,91.528748 
	C787.122925,91.528748 913.892517,91.528748 1041.176270,91.528748 
	C1041.176270,117.836266 1041.176270,143.707474 1041.176270,171.043625 
	C1010.671936,171.202606 980.149231,171.094055 949.629272,171.113846 
	C919.302673,171.133514 888.976074,171.118149 858.649475,171.118149 
	C828.057556,171.118149 797.465637,171.118149 766.284668,171.118149 
	C766.284668,209.766373 766.284668,247.596832 766.284668,286.727051 
	C846.119385,286.727051 925.852356,286.727051 1005.957275,286.727051 
	C1005.957275,311.939880 1005.957275,335.856964 1005.957275,360.685608 
	C926.163391,360.685608 846.652588,360.685608 766.417542,360.685608 
	C766.417542,400.033173 766.417542,438.478577 766.417542,477.724854 
	C859.286560,477.724854 952.119690,477.724854 1046.341553,477.724854 
	C1046.341553,495.320801 1046.341553,512.157959 1046.341553,529.993164 
z"/>
<path fill="#FF5B03" opacity="1.000000" stroke="none" 
	d="
M3662.458252,869.492676 
	C3665.067383,874.612244 3669.203125,872.779663 3672.553467,872.791382 
	C3715.218018,872.941040 3757.883057,872.890076 3800.548096,872.890137 
	C3830.880127,872.890137 3861.212158,872.890137 3891.544189,872.890137 
	C3895.148193,872.890137 3898.752441,872.890137 3903.016113,872.890137 
	C3903.016113,897.578918 3903.016113,921.320740 3903.016113,946.050598 
	C3822.874023,946.050598 3743.066406,946.050598 3662.801758,946.050598 
	C3662.801758,985.556641 3662.801758,1024.081787 3662.801758,1063.591553 
	C3756.079834,1063.591553 3849.219482,1063.591553 3943.019531,1063.591553 
	C3943.019531,1091.672363 3943.019531,1118.776489 3943.019531,1146.497314 
	C3814.265137,1146.497314 3685.786865,1146.497314 3556.812256,1146.497314 
	C3556.812256,989.741272 3556.812256,833.561096 3556.812256,676.685730 
	C3683.691162,676.685730 3810.457275,676.685730 3937.780518,676.685730 
	C3937.780518,703.208191 3937.780518,729.657349 3937.780518,757.014526 
	C3846.121826,757.014526 3754.901855,757.014526 3662.368164,757.014526 
	C3662.368164,794.781250 3662.368164,831.657471 3662.458252,869.492676 
z"/>
<path fill="#FF5B03" opacity="1.000000" stroke="none" 
	d="
M2989.599121,173.112061 
	C2940.364258,173.111771 2892.076416,173.111771 2842.564453,173.111771 
	C2842.564453,302.622070 2842.564453,431.368774 2842.564453,560.610840 
	C2805.814941,560.610840 2770.292236,560.610840 2733.836914,560.610840 
	C2733.836914,431.690155 2733.836914,303.204376 2733.836914,173.242706 
	C2719.803711,172.978561 2706.623779,173.150635 2693.454102,173.119339 
	C2680.456055,173.088470 2667.458008,173.112610 2654.459961,173.112610 
	C2641.128662,173.112610 2627.797363,173.112610 2614.466064,173.112610 
	C2601.524658,173.112610 2588.583008,173.112595 2574.983154,173.112595 
	C2574.983154,145.506943 2574.983154,118.762238 2574.983154,91.450241 
	C2717.091064,91.450241 2858.895020,91.450241 3001.192627,91.450241 
	C3001.192627,118.543114 3001.192627,145.088516 3001.192627,173.112350 
	C2997.619385,173.112350 2994.082764,173.112350 2989.599121,173.112061 
z"/>
<path fill="#FF5A02" opacity="1.000000" stroke="none" 
	d="
M140.217377,759.101074 
	C133.986557,759.100708 128.721512,759.100708 122.903351,759.100708 
	C122.903351,731.208557 122.903351,704.371948 122.903351,677.503662 
	C130.611008,675.401917 516.433899,674.372803 548.143860,676.397278 
	C550.029053,683.184509 550.640503,742.832458 548.847168,758.883301 
	C496.501801,758.883301 444.005951,758.883301 390.623352,758.883301 
	C390.623352,888.558350 390.623352,1017.072632 390.623352,1145.342773 
	C382.611725,1147.489746 292.576141,1147.842773 281.623047,1145.844849 
	C281.623047,1017.491638 281.623047,888.974976 281.623047,759.101379 
	C234.234894,759.101379 187.709015,759.101379 140.217377,759.101074 
z"/>
<path fill="#FF5A01" opacity="1.000000" stroke="none" 
	d="
M3057.671387,355.999939 
	C3057.671387,267.396515 3057.671387,179.793106 3057.671387,91.547256 
	C3093.180664,91.547256 3128.006348,91.547256 3163.582031,91.547256 
	C3163.582031,247.677261 3163.582031,403.742218 3163.582031,560.452637 
	C3128.819580,560.452637 3093.993896,560.452637 3057.671631,560.452637 
	C3057.671631,492.597504 3057.671631,424.798737 3057.671387,355.999939 
z"/>
<path fill="#FF5A01" opacity="1.000000" stroke="none" 
	d="
M2516.328613,394.000061 
	C2516.328613,449.947174 2516.328613,504.894318 2516.328613,560.467773 
	C2480.802490,560.467773 2445.971191,560.467773 2410.404053,560.467773 
	C2410.404053,404.300171 2410.404053,248.231094 2410.404053,91.532516 
	C2445.197510,91.532516 2480.028320,91.532516 2516.328369,91.532516 
	C2516.328369,192.082291 2516.328369,292.541168 2516.328613,394.000061 
z"/>
<path fill="#FFFFFF" opacity="1.000000" stroke="none" 
	d="
M2447.680908,909.777527 
	C2450.700195,872.737976 2465.342773,841.539001 2489.335205,814.896667 
	C2526.313232,773.834412 2572.678711,748.959656 2627.128906,740.776917 
	C2674.268311,733.692749 2718.221191,743.367493 2755.072021,774.979187 
	C2792.729492,807.282959 2813.505859,848.473755 2814.295166,898.758362 
	C2814.992188,943.176208 2797.590820,980.284363 2767.221680,1011.644897 
	C2730.425537,1049.642578 2685.740967,1073.103760 2633.371338,1081.014526 
	C2556.548340,1092.619141 2488.994385,1054.265869 2459.414062,982.487915 
	C2451.454102,963.172607 2448.045410,943.078247 2446.542725,922.510132 
	C2446.257812,918.613281 2447.267578,914.621765 2447.680908,909.777527 
z"/>
<path fill="#FFFFFF" opacity="1.000000" stroke="none" 
	d="
M3355.895264,999.750977 
	C3332.939941,1031.858521 3301.429932,1049.826050 3264.797607,1059.682983 
	C3242.882080,1065.579956 3220.503418,1068.272705 3197.724121,1068.071167 
	C3164.071289,1067.773315 3130.413818,1067.994141 3096.758301,1067.994141 
	C3093.480713,1067.994141 3090.202881,1067.994141 3086.305908,1067.994141 
	C3086.305908,963.618774 3086.305908,859.890625 3086.305908,755.560974 
	C3089.886719,755.398315 3093.123291,755.126099 3096.360107,755.123352 
	C3132.681396,755.093018 3169.015625,754.494873 3205.320557,755.265259 
	C3246.537842,756.139954 3285.863770,764.949402 3320.477539,788.741760 
	C3354.645752,812.227905 3374.381348,844.925903 3380.251465,885.911194 
	C3385.180176,920.323181 3381.237305,953.471008 3365.090820,984.659363 
	C3362.499268,989.665649 3359.238037,994.325256 3355.895264,999.750977 
z"/>
<path fill="#FFFFFF" opacity="1.000000" stroke="none" 
	d="
M257.684723,239.999939 
	C257.684692,215.074677 257.684692,191.149414 257.684692,166.646896 
	C260.766571,166.407150 263.320526,166.037903 265.874878,166.035370 
	C303.494873,165.998108 341.118927,165.677628 378.733307,166.138184 
	C400.177063,166.400757 421.030487,170.264862 439.520111,182.163635 
	C463.518463,197.607529 474.207275,219.882645 472.258728,248.147522 
	C470.513947,273.456268 457.427795,291.659851 435.659790,303.853058 
	C420.601318,312.288025 404.117767,316.555573 387.019775,316.736969 
	C345.409790,317.178436 303.791687,316.857788 262.176849,316.825012 
	C261.188293,316.824219 260.199890,316.598633 257.773743,316.302246 
	C257.593689,303.980835 257.708984,291.463165 257.689178,278.952423 
	C257.669159,266.301636 257.684784,253.650772 257.684723,239.999939 
z"/>
<path fill="#FFFEFE" opacity="1.000000" stroke="none" 
	d="
M2044.000000,316.897125 
	C2029.114136,316.897430 2015.228271,316.897430 2000.852783,316.897430 
	C2000.852783,266.266876 2000.852783,216.813034 2000.852783,166.674347 
	C2003.438232,166.448349 2005.970459,166.036850 2008.503174,166.034134 
	C2046.778931,165.993011 2085.062988,165.520828 2123.327393,166.179703 
	C2147.932129,166.603378 2171.395996,171.945251 2191.244385,188.079407 
	C2226.505127,216.741837 2224.376221,273.240417 2187.009521,298.985901 
	C2169.177490,311.272003 2149.163574,316.499725 2127.873779,316.800995 
	C2100.254150,317.191895 2072.625000,316.896698 2044.000000,316.897125 
z"/>
</svg>