<?xml version="1.0" encoding="UTF-8"?>
<!DOCTYPE svg PUBLIC "-//W3C//DTD SVG 1.1//EN" "http://www.w3.org/Graphics/SVG/1.1/DTD/svg11.dtd">
<svg xmlns="http://www.w3.org/2000/svg" version="1.1" width="949px" height="263px" style="shape-rendering:geometricPrecision; text-rendering:geometricPrecision; image-rendering:optimizeQuality; fill-rule:evenodd; clip-rule:evenodd" xmlns:xlink="http://www.w3.org/1999/xlink">
<g><path style="opacity:0.827" fill="#e56b2a" d="M 885.5,18.5 C 872.948,16.8112 860.281,16.1446 847.5,16.5C 852.17,15.7003 857.004,15.0336 862,14.5C 870.133,14.8746 877.967,16.2079 885.5,18.5 Z"/></g>
<g><path style="opacity:1" fill="#fb5a04" d="M 847.5,16.5 C 860.281,16.1446 872.948,16.8112 885.5,18.5C 888.274,20.2572 891.274,21.5905 894.5,22.5C 894.5,23.5 894.5,24.5 894.5,25.5C 895.93,25.5792 897.264,25.2458 898.5,24.5C 900.075,25.4565 901.742,26.1231 903.5,26.5C 908.089,28.1243 911.423,31.1243 913.5,35.5C 916.311,40.9751 918.644,46.6418 920.5,52.5C 913.167,52.5 905.833,52.5 898.5,52.5C 898.034,50.7988 898.034,49.2988 898.5,48C 897.115,46.3506 895.449,45.1839 893.5,44.5C 893.48,42.857 894.147,41.5237 895.5,40.5C 893.883,40.3306 892.216,39.9972 890.5,39.5C 889.218,37.8208 888.218,35.9874 887.5,34C 885.674,33.7083 883.841,33.875 882,34.5C 878.661,32.9564 875.161,32.2898 871.5,32.5C 871.167,32.5 870.833,32.5 870.5,32.5C 861.463,31.8338 852.296,31.5005 843,31.5C 843.025,33.3217 842.192,34.9884 840.5,36.5C 840.027,37.9063 839.027,38.573 837.5,38.5C 835.533,38.7394 833.699,38.4061 832,37.5C 831.5,38.6667 830.667,39.5 829.5,40C 830.337,41.0113 830.67,42.1779 830.5,43.5C 827.477,43.1052 826.477,44.1052 827.5,46.5C 826.675,47.3857 825.675,47.719 824.5,47.5C 823.908,50.1272 823.575,52.7938 823.5,55.5C 822.034,56.347 821.2,57.6803 821,59.5C 820.261,65.5578 820.594,71.5578 822,77.5C 822.2,79.3197 823.034,80.653 824.5,81.5C 829.343,90.6741 836.677,97.0075 846.5,100.5C 846.791,101.649 847.624,102.316 849,102.5C 857.324,105.031 865.49,105.031 873.5,102.5C 886.422,99.5876 895.422,91.9209 900.5,79.5C 900.376,78.8933 900.043,78.56 899.5,78.5C 884.676,77.5039 869.676,77.1706 854.5,77.5C 854.5,73.1667 854.5,68.8333 854.5,64.5C 877.167,64.5 899.833,64.5 922.5,64.5C 922.5,81.8333 922.5,99.1667 922.5,116.5C 915.833,116.5 909.167,116.5 902.5,116.5C 902.823,110.31 902.49,104.31 901.5,98.5C 900.833,99.1667 900.167,99.8333 899.5,100.5C 897.833,100.5 896.167,100.5 894.5,100.5C 894.5,101.833 894.5,103.167 894.5,104.5C 893.5,104.5 892.5,104.5 891.5,104.5C 891.5,105.833 891.5,107.167 891.5,108.5C 884.029,114.555 875.362,117.888 865.5,118.5C 859.491,118.666 853.491,118.499 847.5,118C 841.054,115.76 834.387,114.26 827.5,113.5C 824.55,112.692 821.883,111.358 819.5,109.5C 818.294,107.517 816.961,105.517 815.5,103.5C 814.311,102.571 812.978,102.238 811.5,102.5C 806.743,95.2292 802.743,87.5626 799.5,79.5C 794.985,48.1352 807.985,27.6352 838.5,18C 841.478,17.304 844.478,16.804 847.5,16.5 Z"/></g>
<g><path style="opacity:0.2" fill="#e77439" d="M 249.5,18.5 C 241.833,18.5 234.167,18.5 226.5,18.5C 226.5,19.8333 226.5,21.1667 226.5,22.5C 225.661,21.3588 224.994,20.0255 224.5,18.5C 232.991,17.1791 241.324,17.1791 249.5,18.5 Z"/></g>
<g><path style="opacity:0.2" fill="#e46824" d="M 599.5,35.5 C 609.653,34.5058 619.986,34.1724 630.5,34.5C 630.5,29.1667 630.5,23.8333 630.5,18.5C 601.167,18.5 571.833,18.5 542.5,18.5C 542.5,23.8333 542.5,29.1667 542.5,34.5C 553.014,34.1724 563.347,34.5058 573.5,35.5C 562.833,35.5 552.167,35.5 541.5,35.5C 541.5,29.5 541.5,23.5 541.5,17.5C 571.833,17.5 602.167,17.5 632.5,17.5C 632.5,23.5 632.5,29.5 632.5,35.5C 621.5,35.5 610.5,35.5 599.5,35.5 Z"/></g>
<g><path style="opacity:1" fill="#fc5903" d="M 85.5,18.5 C 86.8333,18.5 88.1667,18.5 89.5,18.5C 96.7933,21.1407 104.127,23.8073 111.5,26.5C 112.031,28.5441 113.198,30.2107 115,31.5C 115.595,32.8989 115.428,34.2322 114.5,35.5C 116.045,36.4519 117.712,36.7852 119.5,36.5C 119.869,39.3189 120.202,42.1523 120.5,45C 119.304,49.7565 118.637,54.5898 118.5,59.5C 117.488,60.8717 116.488,62.205 115.5,63.5C 113.694,60.6618 112.694,60.9952 112.5,64.5C 109.602,65.1179 106.935,66.2845 104.5,68C 103.262,68.69 103.262,69.19 104.5,69.5C 108.036,70.6013 111.369,72.268 114.5,74.5C 115.419,77.0892 117.086,79.0892 119.5,80.5C 120.674,81.5137 121.34,82.847 121.5,84.5C 122.14,95.1743 122.807,105.841 123.5,116.5C 116.167,116.5 108.833,116.5 101.5,116.5C 101.474,108.141 100.974,99.8074 100,91.5C 99.3292,90.7476 98.4959,90.4142 97.5,90.5C 96.1667,88.8333 94.8333,87.1667 93.5,85.5C 93.5,84.5 93.5,83.5 93.5,82.5C 89.1709,81.8422 84.8376,81.1755 80.5,80.5C 71.3308,80.9801 62.3308,81.6468 53.5,82.5C 52.5052,93.6544 52.1719,104.988 52.5,116.5C 45.1667,116.5 37.8333,116.5 30.5,116.5C 30.5,83.8333 30.5,51.1667 30.5,18.5C 48.8333,18.5 67.1667,18.5 85.5,18.5 Z M 91.5,62.5 C 88.946,63.6056 86.2794,64.439 83.5,65C 73.5056,65.4998 63.5056,65.6665 53.5,65.5C 53.5,55.1667 53.5,44.8333 53.5,34.5C 63.5056,34.3335 73.5056,34.5002 83.5,35C 96.2217,37.9531 100.388,45.4531 96,57.5C 94.2927,59.0375 92.7927,60.7041 91.5,62.5 Z"/></g>
<g><path style="opacity:1" fill="#fc5901" d="M 160.5,35.5 C 160.174,43.6841 160.508,51.6841 161.5,59.5C 177.658,60.4964 193.991,60.8298 210.5,60.5C 210.5,65.1667 210.5,69.8333 210.5,74.5C 193.991,74.1702 177.658,74.5036 161.5,75.5C 160.167,83.5 160.167,91.5 161.5,99.5C 180.326,100.497 199.326,100.83 218.5,100.5C 218.5,105.833 218.5,111.167 218.5,116.5C 191.833,116.5 165.167,116.5 138.5,116.5C 138.5,83.8333 138.5,51.1667 138.5,18.5C 164.833,18.5 191.167,18.5 217.5,18.5C 217.5,23.8333 217.5,29.1667 217.5,34.5C 198.326,34.1697 179.326,34.503 160.5,35.5 Z"/></g>
<g><path style="opacity:1" fill="#fb5a04" d="M 249.5,18.5 C 253.12,28.9794 256.12,39.6461 258.5,50.5C 258.74,53.5788 258.407,56.5788 257.5,59.5C 258.242,60.2868 259.075,60.9535 260,61.5C 261.911,66.9813 264.077,72.3146 266.5,77.5C 267.61,80.8117 268.944,84.145 270.5,87.5C 273.86,78.4109 277.193,69.4109 280.5,60.5C 283.302,54.4274 285.302,48.0941 286.5,41.5C 286.259,39.1016 286.926,37.1016 288.5,35.5C 290.503,32.1451 292.003,28.4784 293,24.5C 294.965,25.885 296.798,25.7184 298.5,24C 297.207,23.51 295.873,23.3433 294.5,23.5C 294.5,21.8333 294.5,20.1667 294.5,18.5C 302.833,18.5 311.167,18.5 319.5,18.5C 319.229,20.3797 319.896,21.713 321.5,22.5C 321.5,22.8333 321.5,23.1667 321.5,23.5C 321.936,28.188 322.936,32.688 324.5,37C 324.212,39.187 323.878,41.3537 323.5,43.5C 324.5,43.5 325.5,43.5 326.5,43.5C 326.5,44.8333 326.5,46.1667 326.5,47.5C 327.5,47.5 328.5,47.5 329.5,47.5C 334.148,61.0835 338.648,74.7502 343,88.5C 350.495,65.1638 357.662,41.8305 364.5,18.5C 371.833,18.5 379.167,18.5 386.5,18.5C 386.042,22.5384 385.376,26.5384 384.5,30.5C 384.405,32.7857 383.738,34.7857 382.5,36.5C 380.475,40.2299 378.641,44.2299 377,48.5C 376.503,50.8098 376.337,53.1432 376.5,55.5C 374.358,58.8004 373.025,62.467 372.5,66.5C 371.448,66.3505 370.448,66.5172 369.5,67C 370.444,69.7191 370.777,72.5525 370.5,75.5C 369.503,75.4701 368.836,75.9701 368.5,77C 366.786,81.3534 365.786,85.8534 365.5,90.5C 364.61,96.1662 362.943,101.5 360.5,106.5C 358.843,109.144 357.51,112.144 356.5,115.5C 347.859,116.498 339.192,116.831 330.5,116.5C 330.598,114.447 329.931,112.78 328.5,111.5C 320.901,89.3695 313.901,67.0361 307.5,44.5C 306.791,43.596 305.791,43.2627 304.5,43.5C 302.735,48.6583 301.735,53.9916 301.5,59.5C 301.567,60.9587 301.234,62.2921 300.5,63.5C 298.032,66.5531 296.699,70.2198 296.5,74.5C 296.5,74.8333 296.5,75.1667 296.5,75.5C 293.039,79.7599 291.372,84.7599 291.5,90.5C 290.405,95.7841 288.739,100.784 286.5,105.5C 284.642,108.827 283.309,112.494 282.5,116.5C 273.833,116.5 265.167,116.5 256.5,116.5C 256.715,114.821 256.048,113.821 254.5,113.5C 248.388,95.4053 242.721,77.0719 237.5,58.5C 237.051,51.2577 235.051,44.5911 231.5,38.5C 230.606,32.8229 228.939,27.4895 226.5,22.5C 226.5,21.1667 226.5,19.8333 226.5,18.5C 234.167,18.5 241.833,18.5 249.5,18.5 Z"/></g>
<g><path style="opacity:1" fill="#fc5903" d="M 760.5,116.5 C 752.772,108.437 745.772,99.7701 739.5,90.5C 738.263,87.8381 737.429,85.1715 737,82.5C 738.237,80.8956 739.403,79.229 740.5,77.5C 742.701,79.0565 742.701,80.2232 740.5,81C 741.448,81.4828 742.448,81.6495 743.5,81.5C 743.351,82.552 743.517,83.552 744,84.5C 745,84.1667 746,83.8333 747,83.5C 747.944,80.6529 747.444,78.1529 745.5,76C 746.737,75.7679 747.737,75.2679 748.5,74.5C 751.093,75.7536 753.427,77.4202 755.5,79.5C 758.115,81.3788 760.281,83.7121 762,86.5C 762.5,77.1726 762.666,67.8393 762.5,58.5C 762.5,45.1667 762.5,31.8333 762.5,18.5C 769.5,18.5 776.5,18.5 783.5,18.5C 783.5,51.1667 783.5,83.8333 783.5,116.5C 775.833,116.5 768.167,116.5 760.5,116.5 Z"/></g>
<g><path style="opacity:0.922" fill="#e77635" d="M 364.5,18.5 C 372.316,17.5076 380.316,17.1743 388.5,17.5C 387.922,22.1652 386.589,26.4985 384.5,30.5C 385.376,26.5384 386.042,22.5384 386.5,18.5C 379.167,18.5 371.833,18.5 364.5,18.5 Z"/></g>
<g><path style="opacity:1" fill="#fc5903" d="M 452.5,18.5 C 458.445,18.1214 464.112,19.1214 469.5,21.5C 470.914,23.0542 472.581,24.3875 474.5,25.5C 474.291,26.086 473.957,26.586 473.5,27C 477.68,27.4291 481.347,28.9291 484.5,31.5C 484.5,31.8333 484.5,32.1667 484.5,32.5C 484.104,35.4822 484.771,38.1489 486.5,40.5C 484.078,42.0478 484.078,43.7145 486.5,45.5C 487.251,44.624 487.751,43.624 488,42.5C 488.333,47.1738 488.167,51.8405 487.5,56.5C 486.647,60.0204 484.647,62.6871 481.5,64.5C 477.973,65.3978 474.473,66.3978 471,67.5C 470.316,68.7839 470.483,69.9505 471.5,71C 473.134,71.4935 474.801,71.6602 476.5,71.5C 482.833,73.1667 486.833,77.1667 488.5,83.5C 490.114,94.3847 490.781,105.385 490.5,116.5C 483.5,116.5 476.5,116.5 469.5,116.5C 469.278,106.311 468.278,96.3107 466.5,86.5C 465.167,86.5 463.833,86.5 462.5,86.5C 459.764,84.8043 456.764,83.6377 453.5,83C 442.659,82.1745 431.992,82.3412 421.5,83.5C 420.505,94.3206 420.172,105.321 420.5,116.5C 413.167,116.5 405.833,116.5 398.5,116.5C 398.5,83.8333 398.5,51.1667 398.5,18.5C 416.5,18.5 434.5,18.5 452.5,18.5 Z M 455.5,35.5 C 467.176,42.9063 468.509,51.9063 459.5,62.5C 456.821,63.2261 454.154,64.0594 451.5,65C 441.506,65.4998 431.506,65.6665 421.5,65.5C 421.5,55.1667 421.5,44.8333 421.5,34.5C 432.864,34.2566 444.198,34.59 455.5,35.5 Z"/></g>
<g><path style="opacity:1" fill="#fd5900" d="M 599.5,35.5 C 599.167,35.5 598.833,35.5 598.5,35.5C 596.509,62.146 595.842,89.146 596.5,116.5C 589.833,116.5 583.167,116.5 576.5,116.5C 577.158,89.146 576.491,62.146 574.5,35.5C 574.167,35.5 573.833,35.5 573.5,35.5C 563.347,34.5058 553.014,34.1724 542.5,34.5C 542.5,29.1667 542.5,23.8333 542.5,18.5C 571.833,18.5 601.167,18.5 630.5,18.5C 630.5,23.8333 630.5,29.1667 630.5,34.5C 619.986,34.1724 609.653,34.5058 599.5,35.5 Z"/></g>
<g><path style="opacity:1" fill="#fc5903" d="M 706.5,18.5 C 717.849,31.8531 728.849,45.5197 739.5,59.5C 740.08,61.7488 741.413,63.4154 743.5,64.5C 743.511,66.0174 744.177,67.1841 745.5,68C 744.483,69.0495 744.316,70.2161 745,71.5C 746.104,72.3943 747.27,73.3943 748.5,74.5C 747.737,75.2679 746.737,75.7679 745.5,76C 747.444,78.1529 747.944,80.6529 747,83.5C 746,83.8333 745,84.1667 744,84.5C 743.517,83.552 743.351,82.552 743.5,81.5C 742.448,81.6495 741.448,81.4828 740.5,81C 742.701,80.2232 742.701,79.0565 740.5,77.5C 739.403,79.229 738.237,80.8956 737,82.5C 737.429,85.1715 738.263,87.8381 739.5,90.5C 737.937,89.0552 736.604,87.3885 735.5,85.5C 735.579,84.0695 735.246,82.7362 734.5,81.5C 731.987,78.818 729.821,75.818 728,72.5C 726.67,71.4178 725.17,70.7512 723.5,70.5C 721.918,67.6649 720.585,64.6649 719.5,61.5C 715.283,59.9094 712.95,56.9094 712.5,52.5C 710.678,52.1692 709.011,51.5025 707.5,50.5C 706.542,50.0472 705.708,49.3805 705,48.5C 704.501,54.1569 704.334,59.8236 704.5,65.5C 704.5,82.5 704.5,99.5 704.5,116.5C 697.5,116.5 690.5,116.5 683.5,116.5C 683.5,83.8333 683.5,51.1667 683.5,18.5C 691.167,18.5 698.833,18.5 706.5,18.5 Z"/></g>
<g><path style="opacity:1" fill="#ea7028" d="M 89.5,18.5 C 97.5916,19.4162 104.925,22.0828 111.5,26.5C 104.127,23.8073 96.7933,21.1407 89.5,18.5 Z"/></g>
<g><path style="opacity:1" fill="#ec641c" d="M 321.5,22.5 C 319.896,21.713 319.229,20.3797 319.5,18.5C 311.167,18.5 302.833,18.5 294.5,18.5C 294.5,20.1667 294.5,21.8333 294.5,23.5C 295.873,23.3433 297.207,23.51 298.5,24C 296.798,25.7184 294.965,25.885 293,24.5C 292.003,28.4784 290.503,32.1451 288.5,35.5C 289.552,29.6747 291.219,24.008 293.5,18.5C 302.475,17.5018 311.475,17.1685 320.5,17.5C 320.629,19.2161 320.962,20.8828 321.5,22.5 Z"/></g>
<g><path style="opacity:0.992" fill="#ed6e2f" d="M 885.5,18.5 C 892.281,19.5599 898.281,22.2265 903.5,26.5C 901.742,26.1231 900.075,25.4565 898.5,24.5C 897.264,25.2458 895.93,25.5792 894.5,25.5C 894.5,24.5 894.5,23.5 894.5,22.5C 891.274,21.5905 888.274,20.2572 885.5,18.5 Z"/></g>
<g><path style="opacity:0.792" fill="#e66d31" d="M 226.5,22.5 C 228.939,27.4895 230.606,32.8229 231.5,38.5C 229.059,33.5057 227.393,28.1724 226.5,22.5 Z"/></g>
<g><path style="opacity:1" fill="#ef7034" d="M 469.5,21.5 C 475.594,23.2723 480.594,26.6056 484.5,31.5C 481.347,28.9291 477.68,27.4291 473.5,27C 473.957,26.586 474.291,26.086 474.5,25.5C 472.581,24.3875 470.914,23.0542 469.5,21.5 Z"/></g>
<g><path style="opacity:0.6" fill="#e96925" d="M 160.5,35.5 C 179.326,34.503 198.326,34.1697 217.5,34.5C 217.5,29.1667 217.5,23.8333 217.5,18.5C 191.167,18.5 164.833,18.5 138.5,18.5C 138.5,51.1667 138.5,83.8333 138.5,116.5C 165.167,116.5 191.833,116.5 218.5,116.5C 218.5,111.167 218.5,105.833 218.5,100.5C 199.326,100.83 180.326,100.497 161.5,99.5C 180.833,99.5 200.167,99.5 219.5,99.5C 219.5,105.5 219.5,111.5 219.5,117.5C 192.167,117.5 164.833,117.5 137.5,117.5C 137.5,84.1667 137.5,50.8333 137.5,17.5C 164.5,17.5 191.5,17.5 218.5,17.5C 218.5,23.5 218.5,29.5 218.5,35.5C 199.167,35.5 179.833,35.5 160.5,35.5 Z"/></g>
<g><path style="opacity:0.761" fill="#e06726" d="M 706.5,18.5 C 698.833,18.5 691.167,18.5 683.5,18.5C 683.5,51.1667 683.5,83.8333 683.5,116.5C 690.5,116.5 697.5,116.5 704.5,116.5C 704.5,99.5 704.5,82.5 704.5,65.5C 705.497,82.6586 705.83,99.992 705.5,117.5C 697.833,117.5 690.167,117.5 682.5,117.5C 682.5,84.1667 682.5,50.8333 682.5,17.5C 690.684,17.1743 698.684,17.5076 706.5,18.5 Z"/></g>
<g><path style="opacity:1" fill="#ea6a2a" d="M 870.5,32.5 C 860.172,31.6927 850.172,33.026 840.5,36.5C 842.192,34.9884 843.025,33.3217 843,31.5C 852.296,31.5005 861.463,31.8338 870.5,32.5 Z"/></g>
<g><path style="opacity:1" fill="#f1651e" d="M 871.5,32.5 C 875.161,32.2898 878.661,32.9564 882,34.5C 883.841,33.875 885.674,33.7083 887.5,34C 888.218,35.9874 889.218,37.8208 890.5,39.5C 892.216,39.9972 893.883,40.3306 895.5,40.5C 894.147,41.5237 893.48,42.857 893.5,44.5C 887.274,38.3886 879.941,34.3886 871.5,32.5 Z"/></g>
<g><path style="opacity:1" fill="#ed6924" d="M 111.5,26.5 C 115.3,28.9626 117.967,32.296 119.5,36.5C 117.712,36.7852 116.045,36.4519 114.5,35.5C 115.428,34.2322 115.595,32.8989 115,31.5C 113.198,30.2107 112.031,28.5441 111.5,26.5 Z"/></g>
<g><path style="opacity:1" fill="#f1651b" d="M 484.5,32.5 C 486.746,34.6489 488.246,37.3156 489,40.5C 489.923,46.1055 489.423,51.4388 487.5,56.5C 488.167,51.8405 488.333,47.1738 488,42.5C 487.751,43.624 487.251,44.624 486.5,45.5C 484.078,43.7145 484.078,42.0478 486.5,40.5C 484.771,38.1489 484.104,35.4822 484.5,32.5 Z"/></g>
<g><path style="opacity:0.451" fill="#e06d30" d="M 529.5,18.5 C 529.167,18.5 528.833,18.5 528.5,18.5C 521.833,18.5 515.167,18.5 508.5,18.5C 507.502,51.3291 507.168,84.3291 507.5,117.5C 506.502,84.3375 506.168,51.0042 506.5,17.5C 514.352,17.1746 522.018,17.508 529.5,18.5 Z"/></g>
<g><path style="opacity:1" fill="#f0651d" d="M 321.5,23.5 C 324.742,31.2263 327.409,39.2263 329.5,47.5C 328.5,47.5 327.5,47.5 326.5,47.5C 326.5,46.1667 326.5,44.8333 326.5,43.5C 325.5,43.5 324.5,43.5 323.5,43.5C 323.878,41.3537 324.212,39.187 324.5,37C 322.936,32.688 321.936,28.188 321.5,23.5 Z"/></g>
<g><path style="opacity:1" fill="#e96e2d" d="M 913.5,35.5 C 918.748,40.4972 921.748,46.6638 922.5,54C 914.5,54.6667 906.5,54.6667 898.5,54C 897.218,50.6009 895.551,47.4342 893.5,44.5C 895.449,45.1839 897.115,46.3506 898.5,48C 898.034,49.2988 898.034,50.7988 898.5,52.5C 905.833,52.5 913.167,52.5 920.5,52.5C 918.644,46.6418 916.311,40.9751 913.5,35.5 Z"/></g>
<g><path style="opacity:0.949" fill="#eb702d" d="M 382.5,36.5 C 381.259,43.1499 379.259,49.4833 376.5,55.5C 376.337,53.1432 376.503,50.8098 377,48.5C 378.641,44.2299 380.475,40.2299 382.5,36.5 Z"/></g>
<g><path style="opacity:1" fill="#ef6d30" d="M 837.5,38.5 C 831.352,42.9778 826.686,48.6445 823.5,55.5C 823.575,52.7938 823.908,50.1272 824.5,47.5C 825.675,47.719 826.675,47.3857 827.5,46.5C 826.477,44.1052 827.477,43.1052 830.5,43.5C 830.67,42.1779 830.337,41.0113 829.5,40C 830.667,39.5 831.5,38.6667 832,37.5C 833.699,38.4061 835.533,38.7394 837.5,38.5 Z"/></g>
<g><path style="opacity:1" fill="#e66726" d="M 231.5,38.5 C 235.051,44.5911 237.051,51.2577 237.5,58.5C 234.926,52.1012 232.926,45.4345 231.5,38.5 Z"/></g>
<g><path style="opacity:1" fill="#ed6a26" d="M 307.5,44.5 C 305.223,49.3873 303.223,54.3873 301.5,59.5C 301.735,53.9916 302.735,48.6583 304.5,43.5C 305.791,43.2627 306.791,43.596 307.5,44.5 Z"/></g>
<g><path style="opacity:0.357" fill="#d16d39" d="M 643.5,18.5 C 650.982,17.508 658.648,17.1746 666.5,17.5C 666.832,51.0042 666.498,84.3375 665.5,117.5C 665.832,84.3291 665.498,51.3291 664.5,18.5C 659.5,18.5 654.5,18.5 649.5,18.5C 647.5,18.5 645.5,18.5 643.5,18.5 Z"/></g>
<g><path style="opacity:0.992" fill="#e96823" d="M 286.5,41.5 C 285.302,48.0941 283.302,54.4274 280.5,60.5C 281.724,53.8327 283.724,47.4993 286.5,41.5 Z"/></g>
<g><path style="opacity:0.2" fill="#e56925" d="M 455.5,35.5 C 457.262,35.3573 458.929,35.6906 460.5,36.5C 466.273,42.3055 468.107,49.3055 466,57.5C 464.442,60.0213 462.275,61.688 459.5,62.5C 468.509,51.9063 467.176,42.9063 455.5,35.5 Z"/></g>
<g><path style="opacity:0.871" fill="#e86016" d="M 643.5,18.5 C 645.5,18.5 647.5,18.5 649.5,18.5C 648.081,19.4511 646.415,19.7845 644.5,19.5C 644.5,51.8333 644.5,84.1667 644.5,116.5C 651.167,116.5 657.833,116.5 664.5,116.5C 664.5,83.8333 664.5,51.1667 664.5,18.5C 665.498,51.3291 665.832,84.3291 665.5,117.5C 658.167,117.5 650.833,117.5 643.5,117.5C 643.5,84.5 643.5,51.5 643.5,18.5 Z"/></g>
<g><path style="opacity:1" fill="#fd5900" d="M 649.5,18.5 C 654.5,18.5 659.5,18.5 664.5,18.5C 664.5,51.1667 664.5,83.8333 664.5,116.5C 657.833,116.5 651.167,116.5 644.5,116.5C 644.5,84.1667 644.5,51.8333 644.5,19.5C 646.415,19.7845 648.081,19.4511 649.5,18.5 Z"/></g>
<g><path style="opacity:1" fill="#ee6c26" d="M 119.5,36.5 C 121.03,39.6952 121.696,43.1952 121.5,47C 121.933,51.6409 120.933,55.8076 118.5,59.5C 118.637,54.5898 119.304,49.7565 120.5,45C 120.202,42.1523 119.869,39.3189 119.5,36.5 Z"/></g>
<g><path style="opacity:0.302" fill="#e46d2d" d="M 85.5,18.5 C 67.1667,18.5 48.8333,18.5 30.5,18.5C 30.5,51.1667 30.5,83.8333 30.5,116.5C 37.8333,116.5 45.1667,116.5 52.5,116.5C 52.1719,104.988 52.5052,93.6544 53.5,82.5C 53.5,94.1667 53.5,105.833 53.5,117.5C 45.5,117.5 37.5,117.5 29.5,117.5C 29.5,84.1667 29.5,50.8333 29.5,17.5C 48.3408,17.1698 67.0075,17.5031 85.5,18.5 Z"/></g>
<g><path style="opacity:0.991" fill="#ef5f13" d="M 508.5,18.5 C 508.5,51.1667 508.5,83.8333 508.5,116.5C 515.167,116.5 521.833,116.5 528.5,116.5C 528.5,83.8333 528.5,51.1667 528.5,18.5C 528.833,18.5 529.167,18.5 529.5,18.5C 529.5,51.5 529.5,84.5 529.5,117.5C 522.167,117.5 514.833,117.5 507.5,117.5C 507.168,84.3291 507.502,51.3291 508.5,18.5 Z"/></g>
<g><path style="opacity:1" fill="#fd5900" d="M 508.5,18.5 C 515.167,18.5 521.833,18.5 528.5,18.5C 528.5,51.1667 528.5,83.8333 528.5,116.5C 521.833,116.5 515.167,116.5 508.5,116.5C 508.5,83.8333 508.5,51.1667 508.5,18.5 Z"/></g>
<g><path style="opacity:1" fill="#ed6621" d="M 258.5,50.5 C 261.924,59.1795 264.591,68.1795 266.5,77.5C 264.077,72.3146 261.911,66.9813 260,61.5C 259.075,60.9535 258.242,60.2868 257.5,59.5C 258.407,56.5788 258.74,53.5788 258.5,50.5 Z"/></g>
<g><path style="opacity:0.824" fill="#ed8a56" d="M 739.5,59.5 C 741.587,60.5846 742.92,62.2512 743.5,64.5C 741.413,63.4154 740.08,61.7488 739.5,59.5 Z"/></g>
<g><path style="opacity:1" fill="#ea6c2a" d="M 707.5,50.5 C 709.011,51.5025 710.678,52.1692 712.5,52.5C 712.95,56.9094 715.283,59.9094 719.5,61.5C 720.585,64.6649 721.918,67.6649 723.5,70.5C 717.817,64.1464 712.484,57.4797 707.5,50.5 Z"/></g>
<g><path style="opacity:1" fill="#ef6e28" d="M 115.5,63.5 C 112.527,66.6155 108.86,68.6155 104.5,69.5C 103.262,69.19 103.262,68.69 104.5,68C 106.935,66.2845 109.602,65.1179 112.5,64.5C 112.694,60.9952 113.694,60.6618 115.5,63.5 Z"/></g>
<g><path style="opacity:0.452" fill="#e76725" d="M 91.5,62.5 C 91.5,63.5 91.5,64.5 91.5,65.5C 78.6821,66.7415 66.0154,66.7415 53.5,65.5C 63.5056,65.6665 73.5056,65.4998 83.5,65C 86.2794,64.439 88.946,63.6056 91.5,62.5 Z"/></g>
<g><path style="opacity:0.451" fill="#e86623" d="M 459.5,62.5 C 456.729,64.7354 453.563,66.4021 450,67.5C 440.347,66.8962 430.847,66.2296 421.5,65.5C 431.506,65.6665 441.506,65.4998 451.5,65C 454.154,64.0594 456.821,63.2261 459.5,62.5 Z"/></g>
<g><path style="opacity:1" fill="#ed6929" d="M 376.5,55.5 C 375.074,62.4345 373.074,69.1012 370.5,75.5C 370.777,72.5525 370.444,69.7191 369.5,67C 370.448,66.5172 371.448,66.3505 372.5,66.5C 373.025,62.467 374.358,58.8004 376.5,55.5 Z"/></g>
<g><path style="opacity:0.996" fill="#f06a27" d="M 481.5,64.5 C 478.865,66.8227 475.865,68.6561 472.5,70C 474.058,70.21 475.391,70.71 476.5,71.5C 474.801,71.6602 473.134,71.4935 471.5,71C 470.483,69.9505 470.316,68.7839 471,67.5C 474.473,66.3978 477.973,65.3978 481.5,64.5 Z"/></g>
<g><path style="opacity:0.604" fill="#e87b34" d="M 300.5,63.5 C 299.538,67.3948 298.204,71.0615 296.5,74.5C 296.699,70.2198 298.032,66.5531 300.5,63.5 Z"/></g>
<g><path style="opacity:1" fill="#f06c2b" d="M 743.5,64.5 C 748.219,68.9437 752.219,73.9437 755.5,79.5C 753.427,77.4202 751.093,75.7536 748.5,74.5C 747.27,73.3943 746.104,72.3943 745,71.5C 744.316,70.2161 744.483,69.0495 745.5,68C 744.177,67.1841 743.511,66.0174 743.5,64.5 Z"/></g>
<g><path style="opacity:0.6" fill="#e86622" d="M 452.5,18.5 C 434.5,18.5 416.5,18.5 398.5,18.5C 398.5,51.1667 398.5,83.8333 398.5,116.5C 405.833,116.5 413.167,116.5 420.5,116.5C 420.172,105.321 420.505,94.3206 421.5,83.5C 421.5,94.8333 421.5,106.167 421.5,117.5C 413.5,117.5 405.5,117.5 397.5,117.5C 397.5,84.1667 397.5,50.8333 397.5,17.5C 416.008,17.1698 434.341,17.5032 452.5,18.5 Z"/></g>
<g><path style="opacity:0.843" fill="#e66826" d="M 760.5,116.5 C 768.167,116.5 775.833,116.5 783.5,116.5C 783.5,83.8333 783.5,51.1667 783.5,18.5C 776.5,18.5 769.5,18.5 762.5,18.5C 762.5,31.8333 762.5,45.1667 762.5,58.5C 761.504,45.0102 761.171,31.3435 761.5,17.5C 769.167,17.5 776.833,17.5 784.5,17.5C 784.5,50.8333 784.5,84.1667 784.5,117.5C 776.316,117.826 768.316,117.492 760.5,116.5 Z"/></g>
<g><path style="opacity:0.439" fill="#e86e30" d="M 161.5,59.5 C 178.167,59.5 194.833,59.5 211.5,59.5C 211.5,64.8333 211.5,70.1667 211.5,75.5C 194.833,75.5 178.167,75.5 161.5,75.5C 177.658,74.5036 193.991,74.1702 210.5,74.5C 210.5,69.8333 210.5,65.1667 210.5,60.5C 193.991,60.8298 177.658,60.4964 161.5,59.5 Z"/></g>
<g><path style="opacity:0.835" fill="#eb804b" d="M 114.5,74.5 C 116.914,75.9108 118.581,77.9108 119.5,80.5C 117.086,79.0892 115.419,77.0892 114.5,74.5 Z"/></g>
<g><path style="opacity:1" fill="#ec702e" d="M 723.5,70.5 C 725.17,70.7512 726.67,71.4178 728,72.5C 729.821,75.818 731.987,78.818 734.5,81.5C 735.246,82.7362 735.579,84.0695 735.5,85.5C 730.79,81.0869 726.79,76.0869 723.5,70.5 Z"/></g>
<g><path style="opacity:0.957" fill="#e8702f" d="M 823.5,55.5 C 820.856,64.2681 821.189,72.9347 824.5,81.5C 823.034,80.653 822.2,79.3197 822,77.5C 820.594,71.5578 820.261,65.5578 821,59.5C 821.2,57.6803 822.034,56.347 823.5,55.5 Z"/></g>
<g><path style="opacity:0.996" fill="#e66827" d="M 574.5,35.5 C 576.491,62.146 577.158,89.146 576.5,116.5C 583.167,116.5 589.833,116.5 596.5,116.5C 595.842,89.146 596.509,62.146 598.5,35.5C 598.5,62.8333 598.5,90.1667 598.5,117.5C 590.5,117.5 582.5,117.5 574.5,117.5C 574.5,90.1667 574.5,62.8333 574.5,35.5 Z"/></g>
<g><path style="opacity:1" fill="#ea7535" d="M 296.5,75.5 C 295.279,80.7454 293.613,85.7454 291.5,90.5C 291.372,84.7599 293.039,79.7599 296.5,75.5 Z"/></g>
<g><path style="opacity:0.667" fill="#e26423" d="M 901.5,98.5 C 902.49,104.31 902.823,110.31 902.5,116.5C 909.167,116.5 915.833,116.5 922.5,116.5C 922.5,99.1667 922.5,81.8333 922.5,64.5C 899.833,64.5 877.167,64.5 854.5,64.5C 854.5,68.8333 854.5,73.1667 854.5,77.5C 869.676,77.1706 884.676,77.5039 899.5,78.5C 884.167,78.5 868.833,78.5 853.5,78.5C 853.5,73.5 853.5,68.5 853.5,63.5C 876.833,63.5 900.167,63.5 923.5,63.5C 923.5,81.5 923.5,99.5 923.5,117.5C 916.167,117.5 908.833,117.5 901.5,117.5C 901.5,111.167 901.5,104.833 901.5,98.5 Z"/></g>
<g><path style="opacity:0.38" fill="#f2651c" d="M 93.5,85.5 C 90.946,84.3944 88.2794,83.561 85.5,83C 74.8385,82.5002 64.1719,82.3335 53.5,82.5C 62.3308,81.6468 71.3308,80.9801 80.5,80.5C 84.8376,81.1755 89.1709,81.8422 93.5,82.5C 93.5,83.5 93.5,84.5 93.5,85.5 Z"/></g>
<g><path style="opacity:1" fill="#e86b29" d="M 370.5,75.5 C 369.405,80.7841 367.739,85.7841 365.5,90.5C 365.786,85.8534 366.786,81.3534 368.5,77C 368.836,75.9701 369.503,75.4701 370.5,75.5 Z"/></g>
<g><path style="opacity:1" fill="#e76b28" d="M 488.5,83.5 C 489.927,85.1484 490.76,87.1484 491,89.5C 491.832,98.8185 492.332,108.152 492.5,117.5C 484.5,117.5 476.5,117.5 468.5,117.5C 467.903,109.847 467.403,102.18 467,94.5C 465.755,91.6761 464.255,89.0094 462.5,86.5C 463.833,86.5 465.167,86.5 466.5,86.5C 468.278,96.3107 469.278,106.311 469.5,116.5C 476.5,116.5 483.5,116.5 490.5,116.5C 490.781,105.385 490.114,94.3847 488.5,83.5 Z"/></g>
<g><path style="opacity:0.973" fill="#ed6c25" d="M 799.5,79.5 C 802.743,87.5626 806.743,95.2292 811.5,102.5C 804.925,96.2368 800.925,88.5701 799.5,79.5 Z"/></g>
<g><path style="opacity:1" fill="#f37435" d="M 899.5,100.5 C 897.833,104.167 895.167,106.833 891.5,108.5C 891.5,107.167 891.5,105.833 891.5,104.5C 892.5,104.5 893.5,104.5 894.5,104.5C 894.5,103.167 894.5,101.833 894.5,100.5C 896.167,100.5 897.833,100.5 899.5,100.5 Z"/></g>
<g><path style="opacity:0.907" fill="#e46525" d="M 846.5,100.5 C 855.384,102.932 864.384,103.599 873.5,102.5C 865.49,105.031 857.324,105.031 849,102.5C 847.624,102.316 846.791,101.649 846.5,100.5 Z"/></g>
<g><path style="opacity:0.969" fill="#ed773d" d="M 811.5,102.5 C 812.978,102.238 814.311,102.571 815.5,103.5C 816.961,105.517 818.294,107.517 819.5,109.5C 816.216,107.883 813.549,105.55 811.5,102.5 Z"/></g>
<g><path style="opacity:0.751" fill="#e76926" d="M 121.5,84.5 C 123.091,88.2036 123.924,92.2036 124,96.5C 124.5,103.492 124.666,110.492 124.5,117.5C 116.5,117.5 108.5,117.5 100.5,117.5C 100.754,108.275 99.754,99.275 97.5,90.5C 98.4959,90.4142 99.3292,90.7476 100,91.5C 100.974,99.8074 101.474,108.141 101.5,116.5C 108.833,116.5 116.167,116.5 123.5,116.5C 122.807,105.841 122.14,95.1743 121.5,84.5 Z"/></g>
<g><path style="opacity:1" fill="#ed7537" d="M 827.5,113.5 C 834.387,114.26 841.054,115.76 847.5,118C 853.491,118.499 859.491,118.666 865.5,118.5C 852.335,120.762 839.668,119.096 827.5,113.5 Z"/></g>
<g><path style="opacity:0.627" fill="#e86a27" d="M 286.5,105.5 C 285.809,109.596 284.809,113.596 283.5,117.5C 274.161,117.666 264.827,117.5 255.5,117C 254.663,115.989 254.33,114.822 254.5,113.5C 256.048,113.821 256.715,114.821 256.5,116.5C 265.167,116.5 273.833,116.5 282.5,116.5C 283.309,112.494 284.642,108.827 286.5,105.5 Z"/></g>
<g><path style="opacity:0.627" fill="#e76d28" d="M 360.5,106.5 C 360.208,110.207 359.208,113.707 357.5,117C 348.173,117.5 338.839,117.666 329.5,117.5C 329.167,115.5 328.833,113.5 328.5,111.5C 329.931,112.78 330.598,114.447 330.5,116.5C 339.192,116.831 347.859,116.498 356.5,115.5C 357.51,112.144 358.843,109.144 360.5,106.5 Z"/></g>
<g><path style="opacity:1" fill="#fc5a04" d="M 598.5,147.5 C 599.419,150.089 601.086,152.089 603.5,153.5C 606.277,155.951 608.277,158.951 609.5,162.5C 609.756,164.792 609.423,166.959 608.5,169C 609.494,170.329 610.494,171.662 611.5,173C 611.965,176.002 612.799,178.835 614,181.5C 614.498,184.482 614.665,187.482 614.5,190.5C 614.5,191.167 614.5,191.833 614.5,192.5C 612.631,198.904 609.631,204.904 605.5,210.5C 604.548,212.045 604.215,213.712 604.5,215.5C 603.876,217.754 602.543,219.421 600.5,220.5C 598.857,220.48 597.524,221.147 596.5,222.5C 595.914,222.291 595.414,221.957 595,221.5C 593.504,224.002 591.337,225.669 588.5,226.5C 586.24,228.745 584.906,231.411 584.5,234.5C 584.167,234.5 583.833,234.5 583.5,234.5C 581.585,234.216 579.919,234.549 578.5,235.5C 577.194,235.121 575.861,234.788 574.5,234.5C 576.475,233.725 577.309,232.391 577,230.5C 574.959,231.423 572.792,231.756 570.5,231.5C 570.5,230.5 570.5,229.5 570.5,228.5C 577.087,228.814 578.42,226.648 574.5,222C 575.711,221.107 575.711,220.274 574.5,219.5C 573.583,220.127 572.583,220.461 571.5,220.5C 579.597,215.071 585.93,208.071 590.5,199.5C 591.268,198.737 591.768,197.737 592,196.5C 592.667,189.833 592.667,183.167 592,176.5C 590.269,174.138 589.435,171.471 589.5,168.5C 587.179,167.523 584.846,166.523 582.5,165.5C 580.167,163.5 577.833,161.5 575.5,159.5C 575.5,158.5 575.5,157.5 575.5,156.5C 572.365,156.452 570.698,154.785 570.5,151.5C 569.614,152.325 569.281,153.325 569.5,154.5C 561.472,154.169 553.472,154.502 545.5,155.5C 541.917,156.45 538.917,158.117 536.5,160.5C 534.533,160.739 532.699,160.406 531,159.5C 530.167,161 529,162.167 527.5,163C 528.821,164.545 528.488,165.711 526.5,166.5C 525.833,165.833 525.167,165.167 524.5,164.5C 522.578,165.96 521.911,167.627 522.5,169.5C 522.043,170.298 521.376,170.631 520.5,170.5C 517.427,167.939 514.76,164.939 512.5,161.5C 511.325,162.855 510.325,162.688 509.5,161C 511.346,158.908 513.679,157.574 516.5,157C 516.043,156.586 515.709,156.086 515.5,155.5C 517.464,151.916 520.298,150.583 524,151.5C 525.618,147.75 528.452,145.417 532.5,144.5C 533.298,144.043 533.631,143.376 533.5,142.5C 550.266,134.616 567.599,133.45 585.5,139C 590.256,141.269 594.59,144.103 598.5,147.5 Z"/></g>
<g><path style="opacity:1" fill="#ec631c" d="M 463.5,149.5 C 455.616,147.151 447.949,144.318 440.5,141C 426.777,140.267 413.11,140.767 399.5,142.5C 417.062,137.106 434.729,137.273 452.5,143C 456.56,144.689 460.227,146.856 463.5,149.5 Z"/></g>
<g><path style="opacity:1" fill="#fb5a04" d="M 463.5,149.5 C 468.104,151.105 471.438,154.105 473.5,158.5C 473.917,161.079 473.25,163.246 471.5,165C 472.899,165.595 474.232,165.428 475.5,164.5C 475.997,166.216 476.331,167.883 476.5,169.5C 477.192,168.975 477.692,168.308 478,167.5C 480.017,171.594 481.183,175.928 481.5,180.5C 474.167,180.5 466.833,180.5 459.5,180.5C 459.953,174.429 457.619,170.096 452.5,167.5C 452.5,167.167 452.5,166.833 452.5,166.5C 451.962,164.883 451.629,163.216 451.5,161.5C 447.532,160.567 443.532,159.567 439.5,158.5C 436.572,158.435 433.905,157.768 431.5,156.5C 426.35,155.349 421.016,155.183 415.5,156C 408.681,157.921 402.014,160.088 395.5,162.5C 395.891,165.838 394.724,166.838 392,165.5C 388.511,166.646 387.677,168.812 389.5,172C 388.383,174.731 387.717,177.565 387.5,180.5C 386.167,187.5 386.167,194.5 387.5,201.5C 387.292,205.085 388.625,207.751 391.5,209.5C 393.471,211.808 395.471,214.142 397.5,216.5C 401.898,221.529 407.565,224.196 414.5,224.5C 414.833,224.5 415.167,224.5 415.5,224.5C 415.611,225.117 415.944,225.617 416.5,226C 422.167,226.667 427.833,226.667 433.5,226C 434.858,225.066 436.192,224.232 437.5,223.5C 447.713,220.289 454.713,213.622 458.5,203.5C 459.404,202.791 459.737,201.791 459.5,200.5C 466.5,200.5 473.5,200.5 480.5,200.5C 480.969,204.894 479.969,208.894 477.5,212.5C 476.914,212.291 476.414,211.957 476,211.5C 475.361,214.112 474.194,216.446 472.5,218.5C 472.709,219.086 473.043,219.586 473.5,220C 471.808,221.401 471.141,223.234 471.5,225.5C 466.429,232.229 459.762,236.562 451.5,238.5C 446.736,238.769 442.403,240.102 438.5,242.5C 422.899,245.019 407.899,243.352 393.5,237.5C 393.392,235.217 392.559,233.217 391,231.5C 384.391,230.719 378.891,227.386 374.5,221.5C 373.675,220.614 372.675,220.281 371.5,220.5C 371.5,220.167 371.5,219.833 371.5,219.5C 369.338,213.841 367.171,208.174 365,202.5C 364.5,194.173 364.334,185.84 364.5,177.5C 369.631,159.41 381.297,147.743 399.5,142.5C 413.11,140.767 426.777,140.267 440.5,141C 447.949,144.318 455.616,147.151 463.5,149.5 Z"/></g>
<g><path style="opacity:0.851" fill="#e86e2d" d="M 81.5,159.5 C 91.9869,158.506 102.654,158.172 113.5,158.5C 113.5,153.167 113.5,147.833 113.5,142.5C 84.1667,142.5 54.8333,142.5 25.5,142.5C 25.5,147.833 25.5,153.167 25.5,158.5C 36.3464,158.172 47.0131,158.506 57.5,159.5C 46.5,159.5 35.5,159.5 24.5,159.5C 24.5,153.5 24.5,147.5 24.5,141.5C 54.8333,141.5 85.1667,141.5 115.5,141.5C 115.5,147.5 115.5,153.5 115.5,159.5C 104.167,159.5 92.8333,159.5 81.5,159.5 Z"/></g>
<g><path style="opacity:1" fill="#fd5900" d="M 81.5,159.5 C 80.5021,185.995 80.1688,212.661 80.5,239.5C 73.1667,239.5 65.8333,239.5 58.5,239.5C 58.8312,212.661 58.4979,185.995 57.5,159.5C 47.0131,158.506 36.3464,158.172 25.5,158.5C 25.5,153.167 25.5,147.833 25.5,142.5C 54.8333,142.5 84.1667,142.5 113.5,142.5C 113.5,147.833 113.5,153.167 113.5,158.5C 102.654,158.172 91.9869,158.506 81.5,159.5 Z"/></g>
<g><path style="opacity:1" fill="#fc5901" d="M 149.5,179.5 C 157.472,180.831 165.806,181.498 174.5,181.5C 183.194,181.498 191.528,180.831 199.5,179.5C 200.495,167.345 200.829,155.011 200.5,142.5C 207.833,142.5 215.167,142.5 222.5,142.5C 222.5,174.833 222.5,207.167 222.5,239.5C 215.167,239.5 207.833,239.5 200.5,239.5C 200.829,226.323 200.495,213.323 199.5,200.5C 182.833,200.5 166.167,200.5 149.5,200.5C 148.505,213.323 148.171,226.323 148.5,239.5C 141.578,239.812 134.744,239.479 128,238.5C 127.5,206.502 127.333,174.502 127.5,142.5C 134.5,142.5 141.5,142.5 148.5,142.5C 148.171,155.011 148.505,167.345 149.5,179.5 Z"/></g>
<g><path style="opacity:0.2" fill="#e36724" d="M 199.5,200.5 C 200.495,213.323 200.829,226.323 200.5,239.5C 207.833,239.5 215.167,239.5 222.5,239.5C 222.5,207.167 222.5,174.833 222.5,142.5C 215.167,142.5 207.833,142.5 200.5,142.5C 200.829,155.011 200.495,167.345 199.5,179.5C 199.5,166.833 199.5,154.167 199.5,141.5C 207.5,141.5 215.5,141.5 223.5,141.5C 223.5,174.5 223.5,207.5 223.5,240.5C 215.5,240.5 207.5,240.5 199.5,240.5C 199.5,227.167 199.5,213.833 199.5,200.5 Z"/></g>
<g><path style="opacity:1" fill="#fc5902" d="M 263.5,181.5 C 263.5,181.833 263.5,182.167 263.5,182.5C 280.069,183.18 296.735,183.847 313.5,184.5C 313.5,189.167 313.5,193.833 313.5,198.5C 296.833,198.5 280.167,198.5 263.5,198.5C 262.507,206.65 262.174,214.983 262.5,223.5C 282.167,223.5 301.833,223.5 321.5,223.5C 321.821,229.026 321.488,234.36 320.5,239.5C 293.833,239.5 267.167,239.5 240.5,239.5C 240.5,207.167 240.5,174.833 240.5,142.5C 266.835,142.333 293.169,142.5 319.5,143C 320.469,147.737 320.803,152.57 320.5,157.5C 301.167,157.5 281.833,157.5 262.5,157.5C 262.174,165.684 262.508,173.684 263.5,181.5 Z"/></g>
<g><path style="opacity:1" fill="#fc5a04" d="M 628.5,142.5 C 648.167,142.5 667.833,142.5 687.5,142.5C 687.611,143.117 687.944,143.617 688.5,144C 693.124,143.984 697.124,145.484 700.5,148.5C 701.086,148.291 701.586,147.957 702,147.5C 706.067,149.048 710.234,150.382 714.5,151.5C 720.572,155.237 725.239,160.237 728.5,166.5C 729.956,171.439 731.456,176.439 733,181.5C 733.383,182.056 733.883,182.389 734.5,182.5C 735.833,188.167 735.833,193.833 734.5,199.5C 732.96,201.838 732.294,204.505 732.5,207.5C 727.433,221.567 717.766,230.9 703.5,235.5C 698.986,235.768 694.653,236.601 690.5,238C 669.836,238.5 649.169,238.667 628.5,238.5C 628.5,206.5 628.5,174.5 628.5,142.5 Z M 708.5,175.5 C 711.56,183.953 712.227,192.62 710.5,201.5C 707.312,208.358 702.645,214.024 696.5,218.5C 691.192,220.605 685.859,222.272 680.5,223.5C 670.167,223.5 659.833,223.5 649.5,223.5C 649.5,201.833 649.5,180.167 649.5,158.5C 659.839,158.334 670.172,158.5 680.5,159C 692.489,160.186 701.822,165.686 708.5,175.5 Z"/></g>
<g><path style="opacity:1" fill="#fd5901" d="M 774.5,158.5 C 773.5,158.5 772.5,158.5 771.5,158.5C 771.5,166.5 771.5,174.5 771.5,182.5C 771.5,182.833 771.5,183.167 771.5,183.5C 787.658,184.496 803.991,184.83 820.5,184.5C 820.5,188.5 820.5,192.5 820.5,196.5C 803.991,196.17 787.658,196.504 771.5,197.5C 771.5,197.833 771.5,198.167 771.5,198.5C 771.5,206.5 771.5,214.5 771.5,222.5C 790.137,224.487 809.137,225.154 828.5,224.5C 828.413,229.537 828.746,234.537 829.5,239.5C 802.833,239.5 776.167,239.5 749.5,239.5C 749.5,207.167 749.5,174.833 749.5,142.5C 775.833,142.5 802.167,142.5 828.5,142.5C 828.5,147.5 828.5,152.5 828.5,157.5C 810.326,157.17 792.326,157.503 774.5,158.5 Z"/></g>
<g><path style="opacity:1" fill="#ee6926" d="M 687.5,142.5 C 697.307,143.324 706.307,146.324 714.5,151.5C 710.234,150.382 706.067,149.048 702,147.5C 701.586,147.957 701.086,148.291 700.5,148.5C 697.124,145.484 693.124,143.984 688.5,144C 687.944,143.617 687.611,143.117 687.5,142.5 Z"/></g>
<g><path style="opacity:0.639" fill="#f0875a" d="M 598.5,147.5 C 600.914,148.911 602.581,150.911 603.5,153.5C 601.086,152.089 599.419,150.089 598.5,147.5 Z"/></g>
<g><path style="opacity:1" fill="#ef6d26" d="M 575.5,159.5 C 567.258,155.706 558.591,154.54 549.5,156C 545.146,157.514 540.812,159.014 536.5,160.5C 538.917,158.117 541.917,156.45 545.5,155.5C 553.472,154.502 561.472,154.169 569.5,154.5C 569.281,153.325 569.614,152.325 570.5,151.5C 570.698,154.785 572.365,156.452 575.5,156.5C 575.5,157.5 575.5,158.5 575.5,159.5 Z"/></g>
<g><path style="opacity:0.957" fill="#ed6d2a" d="M 431.5,156.5 C 410.863,154.142 396.196,162.142 387.5,180.5C 387.717,177.565 388.383,174.731 389.5,172C 387.677,168.812 388.511,166.646 392,165.5C 394.724,166.838 395.891,165.838 395.5,162.5C 402.014,160.088 408.681,157.921 415.5,156C 421.016,155.183 426.35,155.349 431.5,156.5 Z"/></g>
<g><path style="opacity:1" fill="#fb5a05" d="M 533.5,142.5 C 533.631,143.376 533.298,144.043 532.5,144.5C 528.452,145.417 525.618,147.75 524,151.5C 520.298,150.583 517.464,151.916 515.5,155.5C 515.709,156.086 516.043,156.586 516.5,157C 513.679,157.574 511.346,158.908 509.5,161C 510.325,162.688 511.325,162.855 512.5,161.5C 514.76,164.939 517.427,167.939 520.5,170.5C 519.267,174.98 517.434,179.314 515,183.5C 514.798,190.55 514.298,197.55 513.5,204.5C 514.183,207.461 515.016,207.795 516,205.5C 516.697,207.584 517.864,209.251 519.5,210.5C 528.25,223.038 540.25,228.204 555.5,226C 561.017,224.661 566.35,222.828 571.5,220.5C 572.583,220.461 573.583,220.127 574.5,219.5C 575.711,220.274 575.711,221.107 574.5,222C 578.42,226.648 577.087,228.814 570.5,228.5C 570.5,229.5 570.5,230.5 570.5,231.5C 572.792,231.756 574.959,231.423 577,230.5C 577.309,232.391 576.475,233.725 574.5,234.5C 575.861,234.788 577.194,235.121 578.5,235.5C 572.564,239.301 566.231,242.301 559.5,244.5C 559.167,244.5 558.833,244.5 558.5,244.5C 549.858,245.299 541.191,245.632 532.5,245.5C 515.138,242.47 503.138,232.803 496.5,216.5C 494.052,207.01 493.052,197.343 493.5,187.5C 499.015,165.646 512.349,150.646 533.5,142.5 Z"/></g>
<g><path style="opacity:1" fill="#ec6829" d="M 439.5,158.5 C 443.532,159.567 447.532,160.567 451.5,161.5C 451.629,163.216 451.962,164.883 452.5,166.5C 448.265,163.555 443.932,160.889 439.5,158.5 Z"/></g>
<g><path style="opacity:1" fill="#f06926" d="M 609.5,162.5 C 614.53,171.307 616.196,180.641 614.5,190.5C 614.665,187.482 614.498,184.482 614,181.5C 612.799,178.835 611.965,176.002 611.5,173C 610.494,171.662 609.494,170.329 608.5,169C 609.423,166.959 609.756,164.792 609.5,162.5 Z"/></g>
<g><path style="opacity:1" fill="#ec6721" d="M 582.5,165.5 C 584.846,166.523 587.179,167.523 589.5,168.5C 589.435,171.471 590.269,174.138 592,176.5C 592.667,183.167 592.667,189.833 592,196.5C 591.768,197.737 591.268,198.737 590.5,199.5C 593.787,186.654 591.121,175.321 582.5,165.5 Z"/></g>
<g><path style="opacity:1" fill="#e7702f" d="M 728.5,166.5 C 732.248,171.065 734.248,176.398 734.5,182.5C 733.883,182.389 733.383,182.056 733,181.5C 731.456,176.439 729.956,171.439 728.5,166.5 Z"/></g>
<g><path style="opacity:1" fill="#ef6d2b" d="M 536.5,160.5 C 527.942,165.905 521.442,173.238 517,182.5C 514.549,192.145 515.383,201.479 519.5,210.5C 517.864,209.251 516.697,207.584 516,205.5C 515.016,207.795 514.183,207.461 513.5,204.5C 514.298,197.55 514.798,190.55 515,183.5C 517.434,179.314 519.267,174.98 520.5,170.5C 521.376,170.631 522.043,170.298 522.5,169.5C 521.911,167.627 522.578,165.96 524.5,164.5C 525.167,165.167 525.833,165.833 526.5,166.5C 528.488,165.711 528.821,164.545 527.5,163C 529,162.167 530.167,161 531,159.5C 532.699,160.406 534.533,160.739 536.5,160.5 Z"/></g>
<g><path style="opacity:0.349" fill="#e66824" d="M 263.5,181.5 C 262.508,173.684 262.174,165.684 262.5,157.5C 281.833,157.5 301.167,157.5 320.5,157.5C 320.803,152.57 320.469,147.737 319.5,143C 293.169,142.5 266.835,142.333 240.5,142.5C 240.5,174.833 240.5,207.167 240.5,239.5C 267.167,239.5 293.833,239.5 320.5,239.5C 320.5,239.833 320.5,240.167 320.5,240.5C 293.5,240.5 266.5,240.5 239.5,240.5C 239.5,207.5 239.5,174.5 239.5,141.5C 266.833,141.5 294.167,141.5 321.5,141.5C 321.5,147.167 321.5,152.833 321.5,158.5C 302.167,158.5 282.833,158.5 263.5,158.5C 263.5,166.167 263.5,173.833 263.5,181.5 Z"/></g>
<g><path style="opacity:1" fill="#f35c0c" d="M 628.5,142.5 C 628.5,174.5 628.5,206.5 628.5,238.5C 649.169,238.667 669.836,238.5 690.5,238C 694.653,236.601 698.986,235.768 703.5,235.5C 698.578,238.064 693.245,239.397 687.5,239.5C 667.5,239.5 647.5,239.5 627.5,239.5C 627.168,206.996 627.502,174.662 628.5,142.5 Z"/></g>
<g><path style="opacity:0.749" fill="#e76926" d="M 774.5,158.5 C 792.326,157.503 810.326,157.17 828.5,157.5C 828.5,152.5 828.5,147.5 828.5,142.5C 802.167,142.5 775.833,142.5 749.5,142.5C 749.5,174.833 749.5,207.167 749.5,239.5C 776.167,239.5 802.833,239.5 829.5,239.5C 828.746,234.537 828.413,229.537 828.5,224.5C 809.137,225.154 790.137,224.487 771.5,222.5C 791.167,222.5 810.833,222.5 830.5,222.5C 830.5,228.5 830.5,234.5 830.5,240.5C 803.167,240.5 775.833,240.5 748.5,240.5C 748.5,207.5 748.5,174.5 748.5,141.5C 775.5,141.5 802.5,141.5 829.5,141.5C 829.5,147.167 829.5,152.833 829.5,158.5C 811.167,158.5 792.833,158.5 774.5,158.5 Z"/></g>
<g><path style="opacity:0.549" fill="#df6323" d="M 57.5,159.5 C 58.4979,185.995 58.8312,212.661 58.5,239.5C 65.8333,239.5 73.1667,239.5 80.5,239.5C 80.1688,212.661 80.5021,185.995 81.5,159.5C 81.5,186.5 81.5,213.5 81.5,240.5C 73.5,240.5 65.5,240.5 57.5,240.5C 57.5,213.5 57.5,186.5 57.5,159.5 Z"/></g>
<g><path style="opacity:0.988" fill="#ee6c29" d="M 149.5,179.5 C 148.505,167.345 148.171,155.011 148.5,142.5C 141.5,142.5 134.5,142.5 127.5,142.5C 127.333,174.502 127.5,206.502 128,238.5C 134.744,239.479 141.578,239.812 148.5,239.5C 148.171,226.323 148.505,213.323 149.5,200.5C 149.5,213.833 149.5,227.167 149.5,240.5C 141.5,240.5 133.5,240.5 125.5,240.5C 125.5,207.5 125.5,174.5 125.5,141.5C 133.5,141.5 141.5,141.5 149.5,141.5C 149.5,154.167 149.5,166.833 149.5,179.5 Z"/></g>
<g><path style="opacity:0.769" fill="#e56e2e" d="M 452.5,167.5 C 457.619,170.096 459.953,174.429 459.5,180.5C 457.98,175.798 455.647,171.464 452.5,167.5 Z"/></g>
<g><path style="opacity:0.998" fill="#e86826" d="M 473.5,158.5 C 480.021,165.049 483.021,173.049 482.5,182.5C 474.427,183.132 466.76,182.465 459.5,180.5C 466.833,180.5 474.167,180.5 481.5,180.5C 481.183,175.928 480.017,171.594 478,167.5C 477.692,168.308 477.192,168.975 476.5,169.5C 476.331,167.883 475.997,166.216 475.5,164.5C 474.232,165.428 472.899,165.595 471.5,165C 473.25,163.246 473.917,161.079 473.5,158.5 Z"/></g>
<g><path style="opacity:0.549" fill="#d26a31" d="M 263.5,182.5 C 280.534,181.848 297.2,182.515 313.5,184.5C 296.735,183.847 280.069,183.18 263.5,182.5 Z"/></g>
<g><path style="opacity:0.549" fill="#d5692f" d="M 771.5,183.5 C 771.5,183.167 771.5,182.833 771.5,182.5C 788.5,182.5 805.5,182.5 822.5,182.5C 822.5,187.833 822.5,193.167 822.5,198.5C 805.5,198.5 788.5,198.5 771.5,198.5C 771.5,198.167 771.5,197.833 771.5,197.5C 788.167,197.5 804.833,197.5 821.5,197.5C 821.5,192.833 821.5,188.167 821.5,183.5C 804.833,183.5 788.167,183.5 771.5,183.5 Z"/></g>
<g><path style="opacity:1" fill="#ee5d0e" d="M 771.5,183.5 C 788.167,183.5 804.833,183.5 821.5,183.5C 821.5,188.167 821.5,192.833 821.5,197.5C 804.833,197.5 788.167,197.5 771.5,197.5C 787.658,196.504 803.991,196.17 820.5,196.5C 820.5,192.5 820.5,188.5 820.5,184.5C 803.991,184.83 787.658,184.496 771.5,183.5 Z"/></g>
<g><path style="opacity:0.451" fill="#e26526" d="M 708.5,175.5 C 710.311,177.385 711.478,179.719 712,182.5C 712.667,187.833 712.667,193.167 712,198.5C 711.768,199.737 711.268,200.737 710.5,201.5C 712.227,192.62 711.56,183.953 708.5,175.5 Z"/></g>
<g><path style="opacity:0.628" fill="#e86a28" d="M 471.5,225.5 C 471.141,223.234 471.808,221.401 473.5,220C 473.043,219.586 472.709,219.086 472.5,218.5C 474.194,216.446 475.361,214.112 476,211.5C 476.414,211.957 476.914,212.291 477.5,212.5C 479.969,208.894 480.969,204.894 480.5,200.5C 473.5,200.5 466.5,200.5 459.5,200.5C 459.737,201.791 459.404,202.791 458.5,203.5C 458.5,202.167 458.5,200.833 458.5,199.5C 466.5,199.5 474.5,199.5 482.5,199.5C 482.633,209.888 478.966,218.555 471.5,225.5 Z"/></g>
<g><path style="opacity:0.761" fill="#e2611f" d="M 687.5,142.5 C 667.833,142.5 648.167,142.5 628.5,142.5C 627.502,174.662 627.168,206.996 627.5,239.5C 647.5,239.5 667.5,239.5 687.5,239.5C 667.34,240.497 647.007,240.83 626.5,240.5C 626.5,207.5 626.5,174.5 626.5,141.5C 647.007,141.17 667.34,141.503 687.5,142.5 Z"/></g>
<g><path style="opacity:0.953" fill="#e8671f" d="M 364.5,177.5 C 364.334,185.84 364.5,194.173 365,202.5C 367.171,208.174 369.338,213.841 371.5,219.5C 366.805,213.761 363.972,207.094 363,199.5C 362.333,193.833 362.333,188.167 363,182.5C 363.198,180.618 363.698,178.952 364.5,177.5 Z"/></g>
<g><path style="opacity:0.998" fill="#e97229" d="M 493.5,187.5 C 493.052,197.343 494.052,207.01 496.5,216.5C 495.207,215.158 494.374,213.491 494,211.5C 491.438,203.357 491.271,195.357 493.5,187.5 Z"/></g>
<g><path style="opacity:0.722" fill="#ed8554" d="M 734.5,199.5 C 734.435,202.428 733.768,205.095 732.5,207.5C 732.294,204.505 732.96,201.838 734.5,199.5 Z"/></g>
<g><path style="opacity:0.957" fill="#e6763d" d="M 387.5,201.5 C 389.341,203.849 390.674,206.515 391.5,209.5C 388.625,207.751 387.292,205.085 387.5,201.5 Z"/></g>
<g><path style="opacity:1" fill="#ec7135" d="M 614.5,192.5 C 613.473,201.275 610.139,208.942 604.5,215.5C 604.215,213.712 604.548,212.045 605.5,210.5C 609.631,204.904 612.631,198.904 614.5,192.5 Z"/></g>
<g><path style="opacity:0.933" fill="#e36f29" d="M 696.5,218.5 C 691.981,222.114 686.648,223.781 680.5,223.5C 685.859,222.272 691.192,220.605 696.5,218.5 Z"/></g>
<g><path style="opacity:0.251" fill="#e48b5d" d="M 263.5,198.5 C 263.5,206.5 263.5,214.5 263.5,222.5C 283.167,222.5 302.833,222.5 322.5,222.5C 323.12,228.926 322.453,234.926 320.5,240.5C 320.5,240.167 320.5,239.833 320.5,239.5C 321.488,234.36 321.821,229.026 321.5,223.5C 301.833,223.5 282.167,223.5 262.5,223.5C 262.174,214.983 262.507,206.65 263.5,198.5 Z"/></g>
<g><path style="opacity:0.706" fill="#e57135" d="M 397.5,216.5 C 402.849,220.01 408.515,222.676 414.5,224.5C 407.565,224.196 401.898,221.529 397.5,216.5 Z"/></g>
<g><path style="opacity:1" fill="#f26825" d="M 600.5,220.5 C 595.956,226.1 590.623,230.766 584.5,234.5C 584.906,231.411 586.24,228.745 588.5,226.5C 591.337,225.669 593.504,224.002 595,221.5C 595.414,221.957 595.914,222.291 596.5,222.5C 597.524,221.147 598.857,220.48 600.5,220.5 Z"/></g>
<g><path style="opacity:1" fill="#e86622" d="M 437.5,223.5 C 436.192,224.232 434.858,225.066 433.5,226C 427.833,226.667 422.167,226.667 416.5,226C 415.944,225.617 415.611,225.117 415.5,224.5C 422.893,225.791 430.226,225.457 437.5,223.5 Z"/></g>
<g><path style="opacity:1" fill="#ee6620" d="M 371.5,220.5 C 372.675,220.281 373.675,220.614 374.5,221.5C 378.891,227.386 384.391,230.719 391,231.5C 392.559,233.217 393.392,235.217 393.5,237.5C 384.449,234.122 377.115,228.456 371.5,220.5 Z"/></g>
<g><path style="opacity:0.922" fill="#eb783d" d="M 583.5,234.5 C 576.266,239.444 568.266,242.777 559.5,244.5C 566.231,242.301 572.564,239.301 578.5,235.5C 579.919,234.549 581.585,234.216 583.5,234.5 Z"/></g>
<g><path style="opacity:0.298" fill="#de7332" d="M 451.5,238.5 C 447.499,240.589 443.165,241.922 438.5,242.5C 442.403,240.102 446.736,238.769 451.5,238.5 Z"/></g>
<g><path style="opacity:0.78" fill="#e16d2d" d="M 558.5,244.5 C 553.767,246.046 548.767,246.713 543.5,246.5C 539.651,246.499 535.984,246.165 532.5,245.5C 541.191,245.632 549.858,245.299 558.5,244.5 Z"/></g>
</svg>
