<?xml version="1.0" encoding="UTF-8"?>
<svg version="1.1" xmlns="http://www.w3.org/2000/svg" width="512" height="512">
<path d="M0 0 C168.96 0 337.92 0 512 0 C512 168.96 512 337.92 512 512 C343.04 512 174.08 512 0 512 C0 343.04 0 174.08 0 0 Z " fill="#BE303E" transform="translate(0,0)"/>
<path d="M0 0 C28.38 0 56.76 0 86 0 C86 12.21 86 24.42 86 37 C80.53287126 37 79.73140524 36.63055645 76 33 C74 29 74 29 74 20 C68.06 20 62.12 20 56 20 C56.04033275 31.89190197 56.09741159 43.78340075 56.18390274 55.67505836 C56.22339694 61.19695848 56.25557601 66.71869867 56.27099609 72.24072266 C56.2861497 77.57069086 56.32057265 82.90021942 56.36830902 88.22999191 C56.38313611 90.2624873 56.39104177 92.29504546 56.39188385 94.32759476 C56.39425122 97.1767173 56.42131267 100.02462261 56.45410156 102.87353516 C56.4490712 103.71223145 56.44404083 104.55092773 56.43885803 105.41503906 C56.53297848 110.70765357 57.41702892 113.84460248 61 118 C64.10935018 119.42779274 64.10935018 119.42779274 67 120 C67 120.99 67 121.98 67 123 C51.49 123 35.98 123 20 123 C20 122.01 20 121.02 20 120 C21.69270833 119.4140625 23.38541667 118.828125 25.078125 118.2421875 C28.07281188 116.3065972 29.28649763 114.12175008 31 111 C31.56857918 107.98350534 31.56447865 105.02861267 31.54589844 101.96533203 C31.55623611 101.07688095 31.56657379 100.18842987 31.57722473 99.27305603 C31.60660414 96.35112212 31.60815088 93.42988237 31.609375 90.5078125 C31.62435992 88.47613203 31.64108772 86.44446372 31.65948486 84.41281128 C31.70313546 79.07649164 31.7231525 73.74033632 31.73822021 68.40386963 C31.75779946 62.95404351 31.79976861 57.50439463 31.83984375 52.0546875 C31.91512136 41.36981636 31.96335752 30.68507356 32 20 C25.73 20 19.46 20 13 20 C13.12375 22.3203125 13.12375 22.3203125 13.25 24.6875 C13.23994766 28.2460289 13.13157122 29.76215972 11.375 32.9375 C7.84434751 36.00359296 4.74418122 38 0 38 C0 25.46 0 12.92 0 0 Z " fill="#E8D5CC" transform="translate(135,224)"/>
<path d="M0 0 C28.38 0 56.76 0 86 0 C86 12.21 86 24.42 86 37 C80 37 80 37 77.25 35.25 C75 33 75 33 73 29 C73 26.03 73 23.06 73 20 C66.73 20 60.46 20 54 20 C54.06293652 31.63108538 54.13836239 43.26190627 54.23571491 54.89275551 C54.28042269 60.29356008 54.31967807 65.69428914 54.34643555 71.09521484 C54.37246424 76.30841867 54.41286393 81.52133199 54.46318626 86.73435593 C54.47985785 88.72219603 54.4913703 90.71008639 54.49761391 92.6979866 C54.5072517 95.48467641 54.53530741 98.27062252 54.56762695 101.05712891 C54.56619186 101.87712372 54.56475677 102.69711853 54.5632782 103.54196167 C54.65880657 109.37448644 55.72440518 113.72440518 60 118 C61.64991582 118.70710678 63.31562256 119.37943989 65 120 C65 120.99 65 121.98 65 123 C49.82 123 34.64 123 19 123 C19 122.01 19 121.02 19 120 C20.093125 119.5875 21.18625 119.175 22.3125 118.75 C25.5218407 117.37549449 27.24837663 116.11399711 29 113 C30.2914819 109.12555431 30.1773349 105.43758167 30.20532227 101.39770508 C30.21522186 100.51944565 30.22512146 99.64118622 30.23532104 98.73631287 C30.26693119 95.8307465 30.29169161 92.92516378 30.31640625 90.01953125 C30.33697619 88.00599236 30.35797268 85.99245778 30.37937927 83.97892761 C30.43459577 78.67712903 30.48400695 73.37529151 30.53222656 68.07342529 C30.58244463 62.66414928 30.63812911 57.25492987 30.69335938 51.84570312 C30.80093582 41.2305153 30.90187689 30.61527943 31 20 C25.06 20 19.12 20 13 20 C12.9175 21.36125 12.835 22.7225 12.75 24.125 C12.23514272 28.66575515 11.07208845 31.5012326 8 35 C5.02970278 36.59381802 3.37610023 37 0 37 C0 24.79 0 12.58 0 0 Z " fill="#E8D7CD" transform="translate(291,224)"/>
<path d="M0 0 C45.54 0 91.08 0 138 0 C138 12.54 138 25.08 138 38 C121.5 38 105 38 88 38 C88 81.23 88 124.46 88 169 C84.7 169 81.4 169 78 169 C78 122.14 78 75.28 78 27 C94.5 27 111 27 128 27 C128 21.39 128 15.78 128 10 C89.06 10 50.12 10 10 10 C10 18.91 10 27.82 10 37 C6.7 37 3.4 37 0 37 C0 24.79 0 12.58 0 0 Z " fill="#E7D6CD" transform="translate(187,165)"/>
<path d="M0 0 C11.22 0 22.44 0 34 0 C34 51.48 34 102.96 34 156 C30.7 156 27.4 156 24 156 C24 108.15 24 60.3 24 11 C16.08 11 8.16 11 0 11 C0 7.37 0 3.74 0 0 Z " fill="#E8D5CD" transform="translate(213,192)"/>
</svg>
