<?xml version="1.0" encoding="UTF-8"?>
<svg version="1.1" xmlns="http://www.w3.org/2000/svg" width="666" height="375">
<path d="M0 0 C19.8 0 39.6 0 60 0 C60 21.45 60 42.9 60 65 C56.44433895 65.71113221 53.47652675 66.16358474 49.91796875 66.31640625 C48.98662109 66.35830078 48.05527344 66.40019531 47.09570312 66.44335938 C46.13599609 66.48267578 45.17628906 66.52199219 44.1875 66.5625 C43.20845703 66.60568359 42.22941406 66.64886719 41.22070312 66.69335938 C38.81392973 66.7990226 36.40706017 66.90112327 34 67 C33.97473055 60.3247966 33.95716732 53.64960543 33.94506836 46.97436523 C33.94002675 44.70157409 33.93319363 42.4287862 33.92456055 40.15600586 C33.91248739 36.89696449 33.90677013 33.63796583 33.90234375 30.37890625 C33.89718246 29.35599991 33.89202118 28.33309357 33.88670349 27.27919006 C33.88662796 26.33829025 33.88655243 25.39739044 33.88647461 24.42797852 C33.884254 23.59524918 33.88203339 22.76251984 33.87974548 21.90455627 C34 20 34 20 35 19 C37.53049402 18.92686433 40.03304837 18.90752473 42.5625 18.9375 C43.62887695 18.94426758 43.62887695 18.94426758 44.71679688 18.95117188 C46.47790013 18.96299136 48.23896036 18.98092737 50 19 C50.33 16.03 50.66 13.06 51 10 C36.81 10 22.62 10 8 10 C8.66 12.97 9.32 15.94 10 19 C14.95 19 19.9 19 25 19 C25 35.17 25 51.34 25 68 C5 72 5 72 0 72 C-1.42318609 69.15362782 -1.12728042 66.74469012 -1.12939453 63.5625 C-1.13114685 62.90217773 -1.13289917 62.24185547 -1.13470459 61.56152344 C-1.13911325 59.37432239 -1.13618859 57.1872019 -1.1328125 55 C-1.13348582 53.48307276 -1.13445609 51.96614562 -1.13571167 50.44921875 C-1.1371873 47.26821873 -1.13503839 44.08724676 -1.13037109 40.90625 C-1.12467388 36.82378913 -1.1279536 32.741394 -1.13394356 28.65893555 C-1.13755279 25.52603661 -1.13640891 22.39315331 -1.13381577 19.26025391 C-1.1331475 17.75471997 -1.13397143 16.24918463 -1.13629532 14.74365234 C-1.13882775 12.64156314 -1.13497289 10.53958119 -1.12939453 8.4375 C-1.12859894 7.23996094 -1.12780334 6.04242188 -1.12698364 4.80859375 C-1 2 -1 2 0 0 Z " fill="#9F1B32" transform="translate(33,151)"/>
<path d="M0 0 C4.02077152 -0.05843491 8.04143259 -0.0937424 12.0625 -0.125 C13.7630957 -0.15013672 13.7630957 -0.15013672 15.49804688 -0.17578125 C29.19887895 -0.25566948 29.19887895 -0.25566948 33.92578125 3.55078125 C38.62654214 9.52273381 40.87296787 14.15834031 40 22 C39.319375 23.7015625 39.319375 23.7015625 38.625 25.4375 C37.62946339 28.87311728 37.62946339 28.87311728 39.203125 31.0859375 C40.03070313 32.18808594 40.03070313 32.18808594 40.875 33.3125 C44.03650126 37.5519502 44.74817371 40.46147233 44.390625 45.7109375 C43.40525386 51.48521238 40.49847165 55.38166411 36 59 C28.7685537 62.55803073 21.39390498 62.39033609 13.5 62.25 C12.30890625 62.24484375 11.1178125 62.2396875 9.890625 62.234375 C1.15459389 62.15459389 1.15459389 62.15459389 0 61 C-0.09391296 59.09756238 -0.11743658 57.19161541 -0.11352539 55.28686523 C-0.11344986 54.0656749 -0.11337433 52.84448456 -0.11329651 51.58628845 C-0.10818911 50.24372314 -0.10297311 48.90115825 -0.09765625 47.55859375 C-0.09579199 46.19238842 -0.09436813 44.82618243 -0.09336853 43.4599762 C-0.08954394 39.85798305 -0.07971417 36.25603 -0.06866455 32.65405273 C-0.05844916 28.98096255 -0.05387064 25.30786591 -0.04882812 21.63476562 C-0.03809184 14.42315877 -0.02101614 7.211585 0 0 Z M12 12 C12 16.29 12 20.58 12 25 C19.58517674 25.70572387 19.58517674 25.70572387 26.25 22.8125 C28.23113208 20.18062107 28.23113208 20.18062107 28 17.375 C26.91040276 14.78720655 26.2402641 13.67420165 24 12 C21.02807238 11.63680691 21.02807238 11.63680691 17.8125 11.8125 C14.9353125 11.9053125 14.9353125 11.9053125 12 12 Z M12 37 C12 41.29 12 45.58 12 50 C14.39706123 50.10854617 16.78915838 50.18753157 19.1875 50.25 C19.86103516 50.28351563 20.53457031 50.31703125 21.22851562 50.3515625 C24.84898699 50.42220584 26.85436081 50.08891656 29.96875 48.1875 C32.32265826 46.09648071 32.32265826 46.09648071 32.3125 42.75 C32.209375 41.8425 32.10625 40.935 32 40 C31.34 40 30.68 40 30 40 C30 39.34 30 38.68 30 38 C26.81175432 36.40587716 23.37103338 36.89825265 19.875 36.9375 C18.74384766 36.94426758 18.74384766 36.94426758 17.58984375 36.95117188 C15.72652873 36.96296501 13.86325445 36.98090058 12 37 Z " fill="#111111" transform="translate(284,160)"/>
<path d="M0 0 C6.57993061 5.81572607 10.40370433 12.65178115 11.37890625 21.3984375 C11.6921884 30.71605485 10.00073338 37.54176755 4.8125 45.25 C-2.5058625 52.40573222 -9.89521435 56.26668634 -20.25 56.375 C-29.35340878 56.23220143 -36.64817626 54.11413485 -43.3984375 47.84375 C-51.53848399 38.47276965 -52.68123907 30.08865416 -52 18 C-50.79360333 9.29008118 -44.91824565 2.82530217 -38.13671875 -2.44921875 C-25.99986494 -9.95453754 -11.30894293 -7.99355138 0 0 Z M-35 11 C-39.67273299 17.18821396 -40.97062918 22.36732509 -40 30 C-37.79582172 36.11849489 -34.73931351 40.00557556 -29 43 C-23.42733779 44.85755407 -17.34495773 44.72152545 -11.75 43 C-7.32832389 39.78423555 -2.75842948 35.87151046 -1.32421875 30.44140625 C-0.29109021 22.66182388 -1.66177689 17.50733466 -6 11 C-9.46144338 7.1432141 -12.9730409 5.75026474 -18.0625 5.0625 C-24.90212256 4.71068885 -29.6242828 6.79291698 -35 11 Z " fill="#131313" transform="translate(400,166)"/>
<path d="M0 0 C5.84220022 5.32468248 9.34814146 12.6833193 10.05078125 20.5390625 C10.29484928 30.27609218 7.87619024 38.1943257 1.8125 45.875 C1.1525 45.875 0.4925 45.875 -0.1875 45.875 C-0.1875 46.535 -0.1875 47.195 -0.1875 47.875 C-1.55865097 48.67331456 -2.93464884 49.4633061 -4.3125 50.25 C-5.07820313 50.69085938 -5.84390625 51.13171875 -6.6328125 51.5859375 C-14.76325175 55.68845272 -24.10897285 56.46331571 -32.953125 54.15234375 C-37.68033456 52.16659416 -41.52394573 49.44461698 -45.1875 45.875 C-45.1875 45.215 -45.1875 44.555 -45.1875 43.875 C-45.8475 43.875 -46.5075 43.875 -47.1875 43.875 C-48.00587442 42.46171871 -48.81696219 41.04421654 -49.625 39.625 C-50.07746094 38.83609375 -50.52992188 38.0471875 -50.99609375 37.234375 C-54.6082214 30.08117795 -54.59032139 19.1089344 -52.1875 11.5 C-49.96568416 6.62703192 -46.10212274 2.46548201 -42.1875 -1.125 C-41.5275 -1.125 -40.8675 -1.125 -40.1875 -1.125 C-40.1875 -1.785 -40.1875 -2.445 -40.1875 -3.125 C-26.05765166 -10.01370157 -12.50562348 -9.87408632 0 0 Z M-34.4375 8 C-39.01737069 12.78804663 -41.37902739 17.18114429 -41.6875 23.875 C-41.37718548 30.0060627 -39.7269461 34.36239794 -35.33984375 38.703125 C-30.11130743 42.7644926 -25.54866217 43.69490614 -18.98828125 43.328125 C-13.5429817 42.44715604 -10.04554064 40.0429891 -6.375 35.9375 C-2.92266569 31.10423196 -1.60969855 27.20985124 -1.73828125 21.28515625 C-2.79332234 15.62463146 -6.67147785 11.3531216 -10.6875 7.4375 C-18.53554295 2.53247316 -26.81039645 3.01304768 -34.4375 8 Z " fill="#131313" transform="translate(251.1875,167.125)"/>
<path d="M0 0 C1.22460938 -0.020625 2.44921875 -0.04125 3.7109375 -0.0625 C11.3859244 -0.09572505 17.10890479 -0.09764018 23.0546875 5.1875 C23.61414063 5.868125 24.17359375 6.54875 24.75 7.25 C25.32492188 7.930625 25.89984375 8.61125 26.4921875 9.3125 C29.86933677 14.04432496 29.29539541 19.69143843 28.875 25.25 C27.62511539 30.94862644 24.4166469 33.91945894 19.875 37.25 C20.49356891 43.09203971 23.83802281 47.62976983 26.8125 52.54296875 C27.21726563 53.23261719 27.62203125 53.92226562 28.0390625 54.6328125 C28.41498535 55.25559082 28.7909082 55.87836914 29.17822266 56.52001953 C29.875 58.25 29.875 58.25 28.875 61.25 C24.27458036 61.2223283 20.21272832 60.83746701 15.875 59.25 C12.66625594 55.61484477 10.78403852 51.67896938 8.875 47.25 C8.48699219 46.52554688 8.09898437 45.80109375 7.69921875 45.0546875 C6.875 43.25 6.875 43.25 6.875 40.25 C3.905 40.25 0.935 40.25 -2.125 40.25 C-2.125 45.86 -2.125 51.47 -2.125 57.25 C-11.125 57.25 -11.125 57.25 -14.125 56.25 C-14.15026563 48.43547248 -14.16783105 40.62095542 -14.17993164 32.80639648 C-14.18497383 30.14558519 -14.19180736 27.48477668 -14.20043945 24.82397461 C-14.21251009 21.00894484 -14.21822929 17.19395156 -14.22265625 13.37890625 C-14.22781754 12.18100967 -14.23297882 10.9831131 -14.23829651 9.74891663 C-14.23837204 8.6478508 -14.23844757 7.54678497 -14.23852539 6.41235352 C-14.240746 5.43750504 -14.24296661 4.46265656 -14.24525452 3.45826721 C-13.93084354 -2.31534912 -4.33355215 0.01790724 0 0 Z M-2.125 12.25 C-2.125 17.53 -2.125 22.81 -2.125 28.25 C0.96875 28.311875 0.96875 28.311875 4.125 28.375 C5.28515625 28.39820313 6.4453125 28.42140625 7.640625 28.4453125 C10.75228105 28.25741056 12.34484317 28.00253982 14.875 26.25 C17.21668764 22.73746854 17.37123677 21.38530644 16.875 17.25 C15.42867753 14.43842642 15.42867753 14.43842642 12.875 12.25 C10.01791262 11.87006817 7.93527013 11.76617904 5.125 11.9375 C2.7325 12.040625 0.34 12.14375 -2.125 12.25 Z " fill="#161616" transform="translate(149.125,159.75)"/>
<path d="M0 0 C3.37660716 1.83246612 5.70871449 4.50975156 7.05859375 8.1171875 C6.88671875 10.23046875 6.88671875 10.23046875 6.05859375 12.1171875 C2.56250345 13.92997506 0.0187762 15.1171875 -3.94140625 15.1171875 C-4.53953125 14.4571875 -5.13765625 13.7971875 -5.75390625 13.1171875 C-7.84981185 10.78849552 -7.84981185 10.78849552 -11.19140625 10.8671875 C-12.09890625 10.9496875 -13.00640625 11.0321875 -13.94140625 11.1171875 C-14.35630883 15.11568949 -14.35630883 15.11568949 -12.8203125 18.640625 C-10.29881036 20.62217969 -7.64350555 21.68362698 -4.69140625 22.9296875 C0.81122784 25.39850324 4.84592209 27.8087733 9.05859375 32.1171875 C11.20589133 38.55908024 11.24791826 46.50982222 8.43359375 52.6796875 C2.94009235 58.31775473 -1.01508974 61.24487305 -9.12890625 61.4921875 C-16.44572755 61.42707674 -20.34876853 59.56013199 -25.53515625 54.58984375 C-28.34006489 51.52781848 -28.94140625 50.38366898 -28.94140625 46.1171875 C-28.28140625 46.1171875 -27.62140625 46.1171875 -26.94140625 46.1171875 C-26.94140625 45.4571875 -26.94140625 44.7971875 -26.94140625 44.1171875 C-23.57043242 42.61897691 -21.73698506 42.1171875 -17.94140625 42.1171875 C-16.31640625 44.5546875 -16.31640625 44.5546875 -14.94140625 47.1171875 C-11.84966873 48.66305626 -9.34711073 48.41078271 -5.94140625 48.1171875 C-3.29441905 46.72033744 -3.29441905 46.72033744 -1.94140625 44.1171875 C-2.0875352 40.42286239 -2.0875352 40.42286239 -2.94140625 37.1171875 C-3.80636719 36.84390625 -4.67132812 36.570625 -5.5625 36.2890625 C-13.49179871 33.5390167 -21.40661417 30.46667811 -25.94140625 23.1171875 C-26.75390625 20.6796875 -26.75390625 20.6796875 -26.94140625 18.1171875 C-27.02390625 17.0034375 -27.10640625 15.8896875 -27.19140625 14.7421875 C-26.86419404 9.99761039 -25.85284314 6.14351951 -22.51171875 2.6015625 C-15.71340224 -3.28354732 -8.08378592 -2.9421058 0 0 Z " fill="#161616" transform="translate(622.94140625,160.8828125)"/>
<path d="M0 0 C1 1 1 1 1.09765625 3.94140625 C1.08605469 5.13636719 1.07445312 6.33132812 1.0625 7.5625 C1.05347656 8.76003906 1.04445313 9.95757812 1.03515625 11.19140625 C1.02355469 12.11824219 1.01195312 13.04507813 1 14 C-2 14 -2 14 -4.125 12.5625 C-9.53784985 9.62073378 -14.86799871 9.39961296 -20.75 11.125 C-24.85663672 12.7490532 -27.4253969 14.28954259 -30 18 C-32.26569225 23.66423063 -33.76656804 28.97054034 -31.9375 34.9375 C-29.81549757 39.888839 -27.61070463 43.06579131 -22.875 45.8125 C-15.9796495 48.41675255 -8.78760933 47.36090759 -2 45 C-2 44.34 -2 43.68 -2 43 C-0.68 43.33 0.64 43.66 2 44 C1.67 48.29 1.34 52.58 1 57 C-6.99965637 60.91819904 -16.02227088 61.45967804 -24.6875 59.34375 C-30.20665389 57.12075746 -35.01735069 53.40587363 -39 49 C-39 48.34 -39 47.68 -39 47 C-39.66 47 -40.32 47 -41 47 C-45.48821186 38.92121865 -47.34405634 29.76431369 -45.25 20.625 C-43.99178779 16.9761846 -42.6072893 13.50681302 -41 10 C-40.34 10 -39.68 10 -39 10 C-38.773125 9.4225 -38.54625 8.845 -38.3125 8.25 C-34.90999212 2.41712935 -27.84122041 -0.81808603 -21.5625 -2.75 C-13.79261549 -3.50803751 -7.3526348 -2.81559229 0 0 Z " fill="#151515" transform="translate(573,162)"/>
<path d="M0 0 C15.51 0 31.02 0 47 0 C47 7 47 7 45 12 C40.05 12 35.1 12 30 12 C30 28.5 30 45 30 62 C26.04 62 22.08 62 18 62 C16.7804244 59.56084879 16.91413708 58.08884853 16.97827148 55.36669922 C17.00841591 53.92543167 17.00841591 53.92543167 17.03916931 52.45504761 C17.06620438 51.41542877 17.09323944 50.37580994 17.12109375 49.3046875 C17.14470474 48.24210724 17.16831573 47.17952698 17.19264221 46.08474731 C17.26939012 42.68136603 17.35336665 39.27820596 17.4375 35.875 C17.49070954 33.57162551 17.54345 31.26824013 17.59570312 28.96484375 C17.72502035 23.309755 17.86082204 17.65485431 18 12 C12.72 12 7.44 12 2 12 C0 5 0 5 0 0 Z " fill="#101010" transform="translate(426,160)"/>
<path d="M0 0 C0.33 0.66 0.66 1.32 1 2 C1.66 2 2.32 2 3 2 C3.33 1.34 3.66 0.68 4 0 C4 14.85 4 29.7 4 45 C2.515 45.495 2.515 45.495 1 46 C1 46.66 1 47.32 1 48 C-1.22909871 48.02714735 -3.45829367 48.04646254 -5.6875 48.0625 C-6.92886719 48.07410156 -8.17023438 48.08570313 -9.44921875 48.09765625 C-13 48 -13 48 -18 47 C-18 32.48 -18 17.96 -18 3 C-13.05 2.67 -8.1 2.34 -3 2 C-2.01 1.34 -1.02 0.68 0 0 Z " fill="#A21C30" transform="translate(87,169)"/>
<path d="M0 0 C3.63 0 7.26 0 11 0 C12 1 12 1 12.12025452 3.39808655 C12.1169236 4.99359596 12.1169236 4.99359596 12.11352539 6.62133789 C12.11344986 7.82250748 12.11337433 9.02367706 12.11329651 10.26124573 C12.10813522 11.5685112 12.10297394 12.87577667 12.09765625 14.22265625 C12.09579198 15.56644132 12.09436812 16.91022707 12.09336853 18.25401306 C12.08954402 21.79682277 12.07971432 25.3395917 12.06866455 28.88238525 C12.05844899 32.49515227 12.0538706 36.10792584 12.04882812 39.72070312 C12.03809198 46.8138188 12.02101636 53.90690674 12 61 C9 62 9 62 0 61 C0 40.87 0 20.74 0 0 Z " fill="#161616" transform="translate(493,160)"/>
<path d="M0 0 C19.8 0 39.6 0 60 0 C60 21.45 60 42.9 60 65 C57.36 64.67 54.72 64.34 52 64 C52 63.67 52 63.34 52 63 C53.98 63 55.96 63 58 63 C57.67 48.81 57.34 34.62 57 20 C56.01 19.67 55.02 19.34 54 19 C53.01 19.66 52.02 20.32 51 21 C46.05 21 41.1 21 36 21 C36 35.52 36 50.04 36 65 C37.65 65 39.3 65 41 65 C41 65.66 41 66.32 41 67 C38.69 67 36.38 67 34 67 C33.97473055 60.3247966 33.95716732 53.64960543 33.94506836 46.97436523 C33.94002675 44.70157409 33.93319363 42.4287862 33.92456055 40.15600586 C33.91248739 36.89696449 33.90677013 33.63796583 33.90234375 30.37890625 C33.89718246 29.35599991 33.89202118 28.33309357 33.88670349 27.27919006 C33.88662796 26.33829025 33.88655243 25.39739044 33.88647461 24.42797852 C33.884254 23.59524918 33.88203339 22.76251984 33.87974548 21.90455627 C34 20 34 20 35 19 C37.53049402 18.92686433 40.03304837 18.90752473 42.5625 18.9375 C43.62887695 18.94426758 43.62887695 18.94426758 44.71679688 18.95117188 C46.47790013 18.96299136 48.23896036 18.98092737 50 19 C50.33 16.03 50.66 13.06 51 10 C36.81 10 22.62 10 8 10 C8 9.34 8 8.68 8 8 C23.51 8 39.02 8 55 8 C55.495 8.99 55.495 8.99 56 10 C56.66 7.36 57.32 4.72 58 2 C39.19 2 20.38 2 1 2 C1 24.77 1 47.54 1 71 C0.34 70.67 -0.32 70.34 -1 70 C-1.02314123 61.16844684 -1.0409242 52.33690406 -1.05181217 43.50532722 C-1.05703709 39.40474504 -1.06412768 35.30418355 -1.07543945 31.20361328 C-1.08628218 27.24845043 -1.09227979 23.29330752 -1.09487724 19.33813095 C-1.09672898 17.82701173 -1.10034482 16.31589363 -1.10573006 14.80478287 C-1.11295886 12.69291042 -1.11399016 10.58112105 -1.11352539 8.46923828 C-1.115746 7.26566681 -1.11796661 6.06209534 -1.12025452 4.822052 C-1 2 -1 2 0 0 Z " fill="#973A48" transform="translate(33,151)"/>
<path d="M0 0 C4.95 0 9.9 0 15 0 C15 0.33 15 0.66 15 1 C10.71 1 6.42 1 2 1 C2 15.52 2 30.04 2 45 C3.65 45 5.3 45 7 45 C7 45.66 7 46.32 7 47 C4.69 47 2.38 47 0 47 C0 31.49 0 15.98 0 0 Z " fill="#A25967" transform="translate(67,171)"/>
<path d="M0 0 C0.33 0.66 0.66 1.32 1 2 C5.95 2 10.9 2 16 2 C16 18.17 16 34.34 16 51 C7 53.25 7 53.25 2 53 C2 52.34 2 51.68 2 51 C6.29 50.34 10.58 49.68 15 49 C14.9278125 47.43894531 14.855625 45.87789062 14.78125 44.26953125 C14.1721657 30.50162028 13.86958377 16.78064789 14 3 C9.38 3 4.76 3 0 3 C0 2.01 0 1.02 0 0 Z " fill="#934054" transform="translate(42,168)"/>
<path d="M0 0 C15.51 0 31.02 0 47 0 C47 1.65 47 3.3 47 5 C46.01 5 45.02 5 44 5 C44 4.01 44 3.02 44 2 C29.48 2 14.96 2 0 2 C0 1.34 0 0.68 0 0 Z " fill="#942D42" transform="translate(41,159)"/>
<path d="M0 0 C4.62 0 9.24 0 14 0 C14 0.33 14 0.66 14 1 C13.37351562 1.04898438 12.74703125 1.09796875 12.1015625 1.1484375 C11.28429687 1.22320312 10.46703125 1.29796875 9.625 1.375 C8.81289062 1.44460937 8.00078125 1.51421875 7.1640625 1.5859375 C4.79665809 1.82892588 4.79665809 1.82892588 3 4 C2.64305062 7.05764205 2.64305062 7.05764205 2.62109375 10.66015625 C2.60409927 11.32405869 2.5871048 11.98796112 2.56959534 12.67198181 C2.51642496 14.80205673 2.47624297 16.93211782 2.4375 19.0625 C2.08156345 35.98212883 2.08156345 35.98212883 1 44 C0.67 44 0.34 44 0 44 C0 29.48 0 14.96 0 0 Z " fill="#931F34" transform="translate(69,172)"/>
<path d="M0 0 C0.33 0 0.66 0 1 0 C1.33 8.91 1.66 17.82 2 27 C4.31 27.99 6.62 28.98 9 30 C9 30.33 9 30.66 9 31 C4.05 31.495 4.05 31.495 -1 32 C-0.67 21.44 -0.34 10.88 0 0 Z " fill="#8E2236" transform="translate(34,191)"/>
<path d="M0 0 C0.33 0 0.66 0 1 0 C1 2.31 1 4.62 1 7 C-3.84241633 8.33583899 -7.93437617 9.25328119 -13 9 C-13 8.34 -13 7.68 -13 7 C-8.71 6.34 -4.42 5.68 0 5 C0 3.35 0 1.7 0 0 Z " fill="#93404F" transform="translate(57,212)"/>
<path d="M0 0 C0.33 0.66 0.66 1.32 1 2 C0.07161713 3.31896465 -0.86805732 4.62998689 -1.8125 5.9375 C-2.59560547 7.03384766 -2.59560547 7.03384766 -3.39453125 8.15234375 C-5 10 -5 10 -8 11 C-7.09013104 5.2374966 -4.48881294 3.54379969 0 0 Z " fill="#2F2F2F" transform="translate(407,204)"/>
<path d="M0 0 C-2.34421119 1.1721056 -4.68944361 2.32361639 -7.0625 3.4375 C-9.9740674 4.7805561 -9.9740674 4.7805561 -11.625 6.75 C-12.07875 7.1625 -12.5325 7.575 -13 8 C-15.1875 7.6875 -15.1875 7.6875 -17 7 C-11.73594115 2.23728008 -7.37191585 -0.43364211 0 0 Z " fill="#4F4F4F" transform="translate(375,160)"/>
<path d="M0 0 C2.64 0.33 5.28 0.66 8 1 C8 1.33 8 1.66 8 2 C4.7 2.33 1.4 2.66 -2 3 C-1.34 2.01 -0.68 1.02 0 0 Z " fill="#8B3B4D" transform="translate(35,220)"/>
<path d="M0 0 C-2.2551922 2.2551922 -4.0047587 2.97723468 -7 4 C-7.99 4 -8.98 4 -10 4 C-10 3.34 -10 2.68 -10 2 C-6.3558226 -0.4294516 -4.28758728 -0.16179575 0 0 Z " fill="#636363" transform="translate(629,172)"/>
<path d="M0 0 C0.33 0 0.66 0 1 0 C1 4.29 1 8.58 1 13 C0.01 13 -0.98 13 -2 13 C-1.67 12.34 -1.34 11.68 -1 11 C-0.7724985 9.12943209 -0.59037189 7.25314042 -0.4375 5.375 C-0.35371094 4.37210938 -0.26992188 3.36921875 -0.18359375 2.3359375 C-0.12300781 1.56507813 -0.06242188 0.79421875 0 0 Z " fill="#585858" transform="translate(573,163)"/>
</svg>
