<?xml version="1.0" encoding="UTF-8"?>
<svg version="1.1" viewBox="0 0 1458 1464" width="1458" height="1464" xmlns="http://www.w3.org/2000/svg">
<path transform="translate(221,335)" d="m0 0h50l27 7 11 4 16 8 14 8 13 11 7 5 6 7 5 5 8 10 7 10 9 16 7 16 5 17 2 10 2 16v27l-4 26-6 20-10 21-5 8-8 11-8 10-3 5h263l7-1-7-8v-2l-3-1-11-16-8-14-8-20-7-28-1-10 1-39 2-8 6-23 8-18 9-16 10-14 11-12 5-5 4-2 1-3 5-3 4-4 9-6 11-7 19-9 17-5 18-4h49l14 3 22 7 21 10 14 9 16 13 4 5 13 13 10 14 8 14 7 15 7 21 3 21v37l-4 25-4 11-5 13-10 19-9 13-6 8-5 4-1 4 10 7 20 12 10 7 13 8 33 21 14 9 17 11 13 8 14 9 33 21 14 9 2 1v-9l1-2 3-23 4-16 9-22 8-14 10-14 7-9 5-5 6-5 4-5 8-6 10-7 6-4 5-2 1-2 23-10 19-5 15-3h42l30 7 20 8 11 6 11 7 16 12 5 5 6 7 6 5 10 14 7 11 6 10 9 24 4 19 1 7 1 1 1 10v23l-1 4-1 6-4 22-4 12-8 19-6 11-8 12-11 13-15 15-4 2-4 4-15 10-15 8-24 9-22 4-10 1-3 1-23-1-15-1-20-5-21-8-20-11-15-11-10-9-12-12-10-14-8-13-7-14-7-18-4-19-3-25-12 9-12 10-13 10-8 6-9 7-4 3h-2l-1 3-20 15-7 6-6 4-5 4-6 5h-2l-1 3-6 4-8 6-7 6-8 6-11 9-8 6-9 6-5 5-12 9h-2v2l-5 2-1 3-4 2 2 4 6 7v2h2l6 8 9 14 10 21 7 22 3 20v36l-4 26-8 23-9 17-8 12-8 11-19 19-15 11-13 8-16 8-17 6-8 2-12 2-9 2h-34l-10-2-17-3-25-9-20-11-11-8-10-8-9-9v-2l-4-2-4-5v-2h-2l-12-17-9-17-7-17-7-28v-49l7-28 10-23 10-17 7-10 4-4 4-5 4-4 1-2h-276l3 4v2h2l7 8 12 18 7 12 4 9 9 27 3 23v34l-2 9-3 14-5 16-9 20-3 5-8 12-6 8-7 8-6 5-7 8-15 11-13 8-15 8-24 8-30 5h-22l-2-1-23-3-15-4-18-7-17-9-9-6-14-11-15-15-8-10-10-15-8-15-6-16-6-21-2-16v-35l3-17 7-24 9-19 9-14 7-10 8-9h2l2-4 3-1 2-4 3-1 2-4 11-8 14-9 8-5 23-9 19-5 15-2 7-1h21l12 2 20 4 16 5 18 8 13 8 10 7 8 6 5 5 3 2 1-3 5-4 7-8 97-97h2l2-4 21-21-1-4-7-8-6-5-5-5-5-6-7-6-5-5-5-6-5-4-5-5-6-7-6-5-5-5-5-6-5-4-5-5-5-6-8-7v-2l-4-2-5-6-5-4v-2h-2l-5-5-11-12-6-5-4 2-6 4-5 5-14 10-10 6-17 8-13 5-18 4-12 1h-43l-25-6-20-8-13-7-14-9-10-8-10-9v-2l-4-2-10-12-10-15-6-11-8-17-7-25-2-14v-33l2-18 5-17 5-15 11-21 10-15 13-15 4-2 2-4 14-11 9-7 10-5 9-5 12-5 16-5zm6 5-21 3-8 3-14 5-19 9-17 12-11 10-5 4-5 5-10 13-8 11-7 14-5 11-6 17-4 21v8l-1 2v22l1 2 1 14 3 15 9 24 11 20 10 13 5 7 5 5 6 5 4 5 8 6 15 10 15 8 18 7 17 4 15 3h34l8-2 16-3 14-4 9-4 16-8 17-11 7-6 5-5 6-5 5-5 7-9 11-16 11-23 6-17 3-19 1-5 1-6v-23l-1-5-2-15-5-19-8-19-8-15-12-16-9-10-11-11-10-8-14-9-16-8-25-9-21-3zm510 0-20 3-26 9-16 8-12 8-12 9v2l-4 2-14 14-10 14-9 15-8 17-5 15-4 17-1 11v28l2 17 6 21 6 15 8 15 9 14 9 11 7 8 11 9 13 10 14 8 15 7 18 6 25 5h33l10-2 23-5 19-8 15-8 9-6 5-3 3-3 3-2v-2l4-2 9-8 5-7 5-5 7-10 9-15 9-21 4-15 4-20v-35l-4-20-5-17-6-15-9-16-12-16-10-11-5-5-12-10-18-12-19-9-21-7-20-3zm476 239-20 4-22 7-19 10-11 7-11 9-9 7-7 8-8 10-6 8-11 19-4 9-6 18-4 16-2 15v24l3 20 5 18 5 13 8 16 8 13 7 9 6 7 12 12 11 9 14 9 16 8 14 6 22 5 8 2 10 1h23l14-2 21-5 12-4 6-3 5-2 9-5 10-6 11-8 7-6 8-7 8-10 9-11 9-15 4-8 6-14 6-21 3-21v-24l-4-26-7-21-9-19-7-11-7-10-7-8-5-5-4-5-9-7-15-11-16-9-11-5-18-6-17-3-12-1zm-574 37-5 5-7 8-115 115-3 2v2l-4 2v5l3 1 2 4 7 6 7 8 7 6 3 4h2l2 4 7 6 7 8 6 5 7 8 7 6 3 4h2l1 3 5 5 7 6 5 5 7 8 5 5h2l1 3 5 5 3 1 1 3 10 10 7 6 5 5 4-2 5-4 3-2v-2l5-2 9-7 28-14 15-5 21-5 25-1h10l14 1 28 7 19 8 17 9 5 4 9 7 7 5 4 4 4-1 7-6 5-3 9-8 13-9 5-5 13-10 14-11 9-6 5-5 13-10 5-3 5-5 13-10 28-22 13-10 11-9 11-8 11-9-1-4-12-7h-2v-2l-12-7-34-22-5-3-14-9-16-10-14-9-11-7-14-9-44-28-12-8-4 2-10 9-10 7-15 9-17 8-12 4-10 3-7 2-12 1h-44l-15-3-21-7-21-10-13-8-10-8-8-7zm-270 1 2 4 21 21 7 6 6 7 5 5 3 1 2 4 7 6 2 3h2l2 4 5 5 7 6 7 8 6 5 7 8 7 6 7 8 7 6 7 8 7 6 5 5 4-1 129-129-1-2zm131 139-60 60-6 5-5 6-5 5-5 4-6 7-5 5-7 6-5 5-6 7-5 5-8 7-10 10v2h267l1-2-125-125-5-6zm-264 93-16 2-17 4-18 6-17 8-14 9-9 7-16 15-7 8v2l-3 1-7 11-8 13-8 18-5 15-3 13-1 15-1 2v22l1 3 1 13 5 21 4 11 4 10 10 17 8 12h2l2 5 10 11 8 7 13 10 9 6 17 9 18 7 27 6 9 1h23l17-2 29-8 21-10 10-6 13-10 11-10 8-8v-2l4-2 4-6 9-13 9-17 7-18 4-18 2-12 1-7v-22l-1-7-4-23-7-21-7-14-6-10-7-10-12-14-5-5-10-9-9-7-18-11-18-8-21-6-22-3zm510 1-14 1-21 5-14 4-16 8-9 5-10 7-8 6-7 6-6 5v2l-3 1-4 6-6 7-6 9-8 13-8 17-4 12-4 15-1 6-1 16v20l1 14 5 20 7 20 8 15 8 12 9 12h2l2 5 8 8 10 8 14 10 14 8 22 9 25 6 8 1h33l17-3 19-5 12-5 19-10 6-4 8-6 14-11 7-8 2-4 3-1 2-5h2l12-19 7-14 6-15 4-17 3-15v-35l-4-20-4-15-9-20-8-14-10-14-14-15-10-9-16-11-6-4-15-7-10-4-20-6-10-2-14-1z" fill="#AE485A"/>
<path transform="translate(221,335)" d="m0 0h50l27 7 11 4 16 8 14 8 13 11 7 5 6 7 5 5 8 10 7 10 9 16 7 16 5 17 2 10 2 16v27l-4 26-6 20-10 21-5 8-8 11-8 10-3 5h263l9-1 3 4-8 7-6 7-115 115-6 5v5l8 7 6 7 7 6 7 8 7 6 6 7 8 7v2l4 2 6 7 8 7 5 6 5 5 8 7 5 5 1 3 3 1 7 8 7 6 5 6 10 10 8 7 4 4 4-2 3-3 2 1-12 12v-3l1-2h-276l3 4v2h2l7 8 12 18 7 12 4 9 9 27 3 23v34l-2 9-3 14-5 16-9 20-3 5-8 12-6 8-7 8-6 5-7 8-15 11-13 8-15 8-24 8-30 5h-22l-2-1-23-3-15-4-18-7-17-9-9-6-14-11-15-15-8-10-10-15-8-15-6-16-6-21-2-16v-35l3-17 7-24 9-19 9-14 7-10 8-9h2l2-4 3-1 2-4 3-1 2-4 11-8 14-9 8-5 23-9 19-5 15-2 7-1h21l12 2 20 4 16 5 18 8 13 8 10 7 8 6 5 5 3 2 1-3 5-4 7-8 97-97h2l2-4 21-21-1-4-7-8-6-5-5-5-5-6-7-6-5-5-5-6-5-4-5-5-6-7-6-5-5-5-5-6-5-4-5-5-5-6-8-7v-2l-4-2-5-6-5-4v-2h-2l-5-5-11-12-6-5-4 2-6 4-5 5-14 10-10 6-17 8-13 5-18 4-12 1h-43l-25-6-20-8-13-7-14-9-10-8-10-9v-2l-4-2-10-12-10-15-6-11-8-17-7-25-2-14v-33l2-18 5-17 5-15 11-21 10-15 13-15 4-2 2-4 14-11 9-7 10-5 9-5 12-5 16-5zm6 5-21 3-8 3-14 5-19 9-17 12-11 10-5 4-5 5-10 13-8 11-7 14-5 11-6 17-4 21v8l-1 2v22l1 2 1 14 3 15 9 24 11 20 10 13 5 7 5 5 6 5 4 5 8 6 15 10 15 8 18 7 17 4 15 3h34l8-2 16-3 14-4 9-4 16-8 17-11 7-6 5-5 6-5 5-5 7-9 11-16 11-23 6-17 3-19 1-5 1-6v-23l-1-5-2-15-5-19-8-19-8-15-12-16-9-10-11-11-10-8-14-9-16-8-25-9-21-3zm142 277 2 4 21 21 7 6 6 7 5 5 3 1 2 4 7 6 2 3h2l2 4 5 5 7 6 7 8 6 5 7 8 7 6 7 8 7 6 7 8 7 6 5 5 4-1 129-129-1-2zm131 139-60 60-6 5-5 6-5 5-5 4-6 7-5 5-7 6-5 5-6 7-5 5-8 7-10 10v2h267l1-2-125-125-5-6zm-264 93-16 2-17 4-18 6-17 8-14 9-9 7-16 15-7 8v2l-3 1-7 11-8 13-8 18-5 15-3 13-1 15-1 2v22l1 3 1 13 5 21 4 11 4 10 10 17 8 12h2l2 5 10 11 8 7 13 10 9 6 17 9 18 7 27 6 9 1h23l17-2 29-8 21-10 10-6 13-10 11-10 8-8v-2l4-2 4-6 9-13 9-17 7-18 4-18 2-12 1-7v-22l-1-7-4-23-7-21-7-14-6-10-7-10-12-14-5-5-10-9-9-7-18-11-18-8-21-6-22-3zm400 48m-2 1 2 1-5 4 2-4z" fill="#AB4355"/>
<path transform="translate(792,955)" d="m0 0h41l2 1v14h-116v29l116 1v112l-3 1h-153v-14l143-1v-84l-116-1v-57z" fill="#9E263B"/>
<path transform="translate(679,929)" d="m0 0h156l1 12-1 1-143 1v83l116 1 1 4v53l-1 1h-129v-13h117v-32l-9 1h-108z" fill="#9B1E34"/>
<path transform="translate(171,924)" d="m0 0h11l1 1 1 169h129v-166l2-4h12l1 183-1 1h-156z" fill="#9A1B31"/>
<path transform="translate(679,419)" d="m0 0h156v184h-155l-1-1v-14l142-1 1-155h-143z" fill="#9A1C32"/>
<path transform="translate(1155,650)" d="m0 0h156v12l-142 1-1 157 143-1v14l-4 1h-151l-1-1z" fill="#9C2036"/>
<path transform="translate(196,924)" d="m0 0h12l1 1 1 142h77v-142l3-1h10l1 1v156l-105 1z" fill="#9B1E33"/>
<path transform="translate(221,335)" d="m0 0h50l27 7 11 4 16 8 14 8 13 11 7 5 6 7 5 5 8 10 7 10 9 16 7 16 5 17 2 10 2 16v27l-4 26-6 20-10 21-5 8-8 11-8 10-5 5-6 7-5 3-5 5-14 10-10 6-17 8-13 5-18 4-12 1h-43l-25-6-20-8-13-7-14-9-10-8-10-9v-2l-4-2-10-12-10-15-6-11-8-17-7-25-2-14v-33l2-18 5-17 5-15 11-21 10-15 13-15 4-2 2-4 14-11 9-7 10-5 9-5 12-5 16-5zm6 5-21 3-8 3-14 5-19 9-17 12-11 10-5 4-5 5-10 13-8 11-7 14-5 11-6 17-4 21v8l-1 2v22l1 2 1 14 3 15 9 24 11 20 10 13 5 7 5 5 6 5 4 5 8 6 15 10 15 8 18 7 17 4 15 3h34l8-2 16-3 14-4 9-4 16-8 17-11 7-6 5-5 6-5 5-5 7-9 11-16 11-23 6-17 3-19 1-5 1-6v-23l-1-5-2-15-5-19-8-19-8-15-12-16-9-10-11-11-10-8-14-9-16-8-25-9-21-3z" fill="#AA4153"/>
<path transform="translate(731,335)" d="m0 0h49l14 3 22 7 21 10 14 9 16 13 4 5 13 13 10 14 8 14 7 15 7 21 3 21v37l-4 25-4 11-5 13-10 19-9 13-6 8-5 4-7 8-11 10-10 7-15 9-17 8-12 4-10 3-7 2-12 1h-44l-15-3-21-7-21-10-13-8-10-8-4-3v-2l-4-2-5-6-7-6-2-5-3-1-11-16-8-14-8-20-7-28-1-10 1-39 2-8 6-23 8-18 9-16 10-14 11-12 5-5 4-2 1-3 5-3 4-4 9-6 11-7 19-9 17-5zm6 5-20 3-26 9-16 8-12 8-12 9v2l-4 2-14 14-10 14-9 15-8 17-5 15-4 17-1 11v28l2 17 6 21 6 15 8 15 9 14 9 11 7 8 11 9 13 10 14 8 15 7 18 6 25 5h33l10-2 23-5 19-8 15-8 9-6 5-3 3-3 3-2v-2l4-2 9-8 5-7 5-5 7-10 9-15 9-21 4-15 4-20v-35l-4-20-5-17-6-15-9-16-12-16-10-11-5-5-12-10-18-12-19-9-21-7-20-3z" fill="#AA4153"/>
<path transform="translate(750,845)" d="m0 0h16l14 1 28 7 19 8 17 9 5 4 9 7 8 6v2l3 1 5 5 8 9v2h2l6 8 9 14 10 21 7 22 3 20v36l-4 26-8 23-9 17-8 12-8 11-19 19-15 11-13 8-16 8-17 6-8 2-12 2-9 2h-34l-10-2-17-3-25-9-20-11-11-8-10-8-9-9v-2l-4-2-4-5v-2h-2l-12-17-9-17-7-17-7-28v-49l7-28 10-23 10-17 7-10 8-7 15-15 4-5 14-10 28-14 15-5 21-5zm-4 5-14 1-21 5-14 4-16 8-9 5-10 7-8 6-7 6-6 5v2l-3 1-4 6-6 7-6 9-8 13-8 17-4 12-4 15-1 6-1 16v20l1 14 5 20 7 20 8 15 8 12 9 12h2l2 5 8 8 10 8 14 10 14 8 22 9 25 6 8 1h33l17-3 19-5 12-5 19-10 6-4 8-6 14-11 7-8 2-4 3-1 2-5h2l12-19 7-14 6-15 4-17 3-15v-35l-4-20-4-15-9-20-8-14-10-14-14-15-10-9-16-11-6-4-15-7-10-4-20-6-10-2-14-1z" fill="#AA4053"/>
<path transform="translate(1182,676)" d="m0 0h129v14h-115l-1 103 116-1v13l-4 1h-124l-1-1z" fill="#9E253A"/>
<path transform="translate(737,446)" d="m0 0h71l1 3-1 125h-71zm14 12-1 2v101l1 1h43l1-1v-103z" fill="#9A1D32"/>
<path transform="translate(364,612)" d="m0 0 4 1h261l9-1 3 4-8 7-6 7-115 115-6 5v5l8 7 6 7 7 6 7 8 7 6 6 7 8 7v2l4 2 6 7 8 7 5 6 5 5 8 7 5 5 1 3 3 1 7 8 7 6 5 6 10 10 8 7 4 4 4-2 3-3 2 1-12 12v-3l1-2h-276l-1 2-2-3h2l1-3 5-4 7-8 97-97h2l2-4 21-21-1-4-7-8-6-5-5-5-5-6-7-6-5-5-5-6-5-4-5-5-6-7-6-5-5-5-5-6-5-4-5-5-5-6-8-7v-2l-4-2-5-6-5-4v-2h-2l-5-5-11-12-8-6zm5 5 2 4 21 21 7 6 6 7 5 5 3 1 2 4 7 6 2 3h2l2 4 5 5 7 6 7 8 6 5 7 8 7 6 7 8 7 6 7 8 7 6 5 5 4-1 129-129-1-2zm131 139-60 60-6 5-5 6-5 5-5 4-6 7-5 5-7 6-5 5-6 7-5 5-8 7-10 10v2h267l1-2-125-125-5-6zm136 141m-2 1 2 1-5 4 2-4z" fill="#B45767"/>
<path transform="translate(170,418)" d="m0 0 155 1 1 2v59l-6 2-9-1-1-47h-126l-1 47-11 1-3-1v-62z" fill="#9A1B31"/>
<path transform="translate(198,447)" d="m0 0h41l1 1v125h-37v-14h23l-1-15v-82h-13l-1 19-10 1-3-1z" fill="#9E2439"/>
<path transform="translate(255,447)" d="m0 0h40l1 1v33h-14l-1-1 1-19-13 1v97h21l1 1 1 11-1 2h-37v-125z" fill="#9C2036"/>
<path transform="translate(679,446)" d="m0 0h44v128h-44v-12l31-1v-102h-31z" fill="#9B1E33"/>
<path transform="translate(203,588)" d="m0 0h88v14l-1 1h-87z" fill="#9B1F34"/>
<path transform="translate(648,884)" d="m0 0 2 1-12 12v-3l5-5zm-12 13m-2 1 2 1-5 4 2-4z" fill="#CA8994"/>
</svg>
