<?xml version="1.0" encoding="UTF-8"?>
<svg version="1.1" viewBox="0 0 1458 1464" width="1458" height="1464" xmlns="http://www.w3.org/2000/svg">
<path transform="translate(0)" d="m0 0h1458v1464h-1458z" fill="#fff"/>
<path transform="translate(1221,574)" d="m0 0h24l22 3 21 6 21 9 15 9 12 9 10 9 13 13 11 15 10 17 8 19 6 21 3 22v24l-3 22-6 21-9 21-9 15-9 12-9 10-13 13-15 11-17 10-19 8-21 6-22 3h-24l-22-3-21-6-21-9-15-9-12-9-10-9-13-13-11-15-10-17-8-19-6-21-3-22-1-9-16 13-13 10-18 14-28 22-18 14-14 11-18 14-14 11-18 14-14 11-18 14-5 4h-2v-3h3l2-4 13-10 18-14 14-11 18-14 14-11 18-14 14-11 18-14 14-11 18-14 28-22-5-4-91-58-91-58-2-1v-2h-3v-3l5 2 179 114 12 8 3-28 5-21 6-16 8-16 10-16 11-13 16-16 15-11 17-10 19-8 21-6z" fill="#fff"/>
<path transform="translate(228,335)" d="m0 0h36l18 3 18 5 21 9 17 10 14 11 12 11 10 11 10 14 9 16 8 18 5 17 3 17 1 9v25l-3 21-5 19-8 19-8 15-10 14-11 13-9 9-14 11-14 9-16 8-15 6-25 6-8 1h-36l-18-3-21-6-20-9-18-11-11-9-12-11-10-11-10-14-9-16-8-18-6-21-3-22v-24l3-22 6-21 6-15 9-17 10-14 12-14 8-8 14-11 14-9 16-8 15-6 25-6z" fill="#fff"/>
<path transform="translate(738,335)" d="m0 0h35l18 3 21 6 16 7 15 8 16 12 10 9 12 12 12 16 9 16 7 15 7 23 3 18v36l-3 19-6 20-7 16-8 15-11 15-9 10-14 14-18 13-23 12-24 8-22 4h-36l-19-3-20-6-16-7-15-8-19-14-19-19-12-16-9-16-7-15-6-19-3-15-1-8v-35l3-18 6-21 7-16 10-18 10-13 9-10 12-12 16-12 18-10 16-7 21-6z" fill="#fff"/>
<path transform="translate(234,849)" d="m0 0h24l21 3 15 4 19 7 17 9 14 10 14 12 7 7 11 14 9 14 8 16 6 15 5 21 2 16v24l-3 21-5 19-9 21-8 14-12 16-12 13-10 9-17 12-17 9-18 7-21 5-16 2h-24l-21-3-19-5-21-9-14-8-12-9-13-11-12-13-11-15-10-18-6-15-5-16-3-16-1-10v-24l3-21 4-15 6-16 8-16 7-11 10-13 12-13 13-11 15-10 15-8 19-7 15-4z" fill="#fff"/>
<path transform="translate(738,850)" d="m0 0h35l18 3 20 6 16 7 16 9 16 12 13 12 12 14 11 17 10 21 5 15 4 18 1 8v35l-3 18-5 18-8 18-7 13-10 14-11 13-7 7-11 9-10 7-14 8-15 7-15 5-18 4-8 1h-35l-18-3-17-5-15-6-17-9-14-10-14-12-12-13-12-17-11-21-8-24-3-14-1-8v-35l3-18 6-20 7-16 9-16 12-16 12-13 13-11 15-10 19-10 24-8 14-3z" fill="#fff"/>
<path transform="translate(501,754)" d="m0 0 7 6 129 129v1h-271l6-7z" fill="#fff"/>
<path transform="translate(368,617)" d="m0 0h267l-6 7-127 127-7-6-127-127z" fill="#fff"/>
<path transform="translate(706,956)" d="m0 0h129v13h-117v31h117v112h-156v-13h144v-86h-117z" fill="#99182E"/>
<path transform="translate(679,929)" d="m0 0h156v13h-144v85h117v58h-129v-13h117v-32h-117z" fill="#99182E"/>
<path transform="translate(171,925)" d="m0 0h12v170h131v-170h13v183h-156z" fill="#99182E"/>
<path transform="translate(679,419)" d="m0 0h156v183h-156v-14h143v-156h-143z" fill="#99182E"/>
<path transform="translate(1155,650)" d="m0 0h156v12h-143v158h143v13h-156z" fill="#99182E"/>
<path transform="translate(1221,574)" d="m0 0h24l22 3 21 6 21 9 15 9 12 9 10 9 13 13 11 15 10 17 8 19 6 21 3 22v24l-3 22-6 21-9 21-9 15-9 12-9 10-13 13-15 11-17 10-19 8-21 6-22 3h-24l-22-3-21-6-21-9-15-9-12-9-10-9-13-13-11-15-10-17-8-19-6-21-3-22-1-9-16 13-13 10-18 14-28 22-18 14-14 11-18 14-14 11-18 14-14 11-18 14-5 4h-2v-3h3l2-4 13-10 18-14 14-11 18-14 14-11 18-14 14-11 18-14 14-11 18-14 28-22-5-4-91-58-91-58-2-1v-2h-3v-3l5 2 179 114 12 8 3-28 5-21 6-16 8-16 10-16 11-13 16-16 15-11 17-10 19-8 21-6zm0 4-21 3-15 4-19 7-15 8-16 11-15 13-11 12-12 17-9 16-6 15-5 16-3 17-1 9v24l3 21 4 15 7 19 9 17 10 14 13 15 12 11 15 11 18 10 20 8 21 5 16 2h24l21-3 19-5 21-9 14-8 16-12 13-12 9-10 12-17 9-17 7-18 5-21 2-16v-24l-3-21-5-19-9-21-8-14-12-16-12-13-14-12-15-10-15-8-19-7-15-4-21-3z" fill="#99182E"/>
<path transform="translate(196,925)" d="m0 0h13v143h79v-143h12v156h-104z" fill="#99182E"/>
<path transform="translate(750,458)" d="m0 0h45v104h-45z" fill="#fff"/>
<path transform="translate(1182,676)" d="m0 0h129v13h-116v104h116v12h-129z" fill="#99182E"/>
<path transform="translate(737,446)" d="m0 0h71v128h-71zm13 12v104h45v-104z" fill="#99182E"/>
<path transform="translate(228,335)" d="m0 0h36l18 3 18 5 21 9 17 10 14 11 12 11 10 11 10 14 9 16 8 18 5 17 3 17 1 9v25l-3 21-5 19-8 19-8 15-10 14-11 13-9 9-14 11-14 9-16 8-15 6-25 6-8 1h-36l-18-3-21-6-20-9-18-11-11-9-12-11-10-11-10-14-9-16-8-18-6-21-3-22v-24l3-22 6-21 6-15 9-17 10-14 12-14 8-8 14-11 14-9 16-8 15-6 25-6zm0 4-22 4-21 7-16 8-12 7-12 9-12 11-9 9-12 16-9 16-6 13-6 18-4 21-1 9v24l3 21 4 15 6 16 11 21 12 16 9 10 11 11 15 11 15 9 21 9 17 5 18 3h36l22-4 21-7 17-8 18-12 11-9 15-15 12-16 9-16 7-15 6-20 3-16 1-9v-25l-3-21-6-21-7-16-8-15-12-16-9-10-10-10-13-10-13-8-16-8-16-6-16-4-13-2z" fill="#99182E"/>
<path transform="translate(738,846)" d="m0 0h35l18 3 21 6 16 7 15 8 16 12 10 9 12 12 12 16 9 16 7 15 7 23 3 18v36l-3 19-6 20-7 16-8 15-11 15-9 10-14 14-18 13-23 12-24 8-22 4h-36l-19-3-20-6-16-7-15-8-19-14-19-19-12-16-9-16-7-15-6-19-3-15-1-8v-35l3-18 6-21 7-16 10-18 10-13 9-10 12-12 16-12 18-10 16-7 21-6zm0 4-18 3-20 6-16 7-16 9-16 12-15 14-11 14-10 15-10 21-6 19-3 14-1 8v35l3 18 6 20 7 16 9 16 12 16 12 13 13 11 15 10 19 10 20 7 18 4 8 1h35l18-3 18-5 18-8 13-7 14-10 14-12 7-7 11-14 10-16 9-19 5-15 4-18 1-8v-35l-3-18-5-18-8-18-7-13-10-14-12-14-13-12-17-12-21-11-24-8-14-3-8-1z" fill="#99182E"/>
<path transform="translate(738,335)" d="m0 0h35l18 3 21 6 16 7 15 8 16 12 10 9 12 12 12 16 9 16 7 15 7 23 3 18v36l-3 19-6 20-7 16-8 15-11 15-9 10-14 14-18 13-23 12-24 8-22 4h-36l-19-3-20-6-16-7-15-8-19-14-19-19-12-16-9-16-7-15-6-19-3-15-1-8v-35l3-18 6-21 7-16 10-18 10-13 9-10 12-12 16-12 18-10 16-7 21-6zm0 4-18 3-20 6-16 7-16 9-16 12-15 14-11 14-10 15-10 21-6 19-3 14-1 8v35l3 18 6 20 7 16 9 16 12 16 12 13 13 11 15 10 19 10 20 7 18 4 8 1h35l18-3 18-5 18-8 13-7 14-10 14-12 7-7 11-14 10-16 9-19 5-15 4-18 1-8v-35l-3-18-5-18-8-18-7-13-10-14-12-14-13-12-17-12-21-11-24-8-14-3-8-1z" fill="#99182E"/>
<path transform="translate(234,845)" d="m0 0h24l22 3 21 6 21 9 15 9 12 9 10 9 13 13 11 15 10 17 8 19 6 21 3 22v24l-3 22-6 21-9 21-9 15-9 12-9 10-13 13-15 11-17 10-19 8-21 6-22 3h-24l-22-3-21-6-21-9-15-9-12-9-10-9-13-13-11-15-10-17-8-19-6-21-3-22v-24l3-22 6-21 9-21 9-15 9-12 9-10 13-13 15-11 17-10 19-8 21-6zm0 4-21 3-15 4-19 7-15 8-16 11-15 13-11 12-12 17-9 16-6 15-5 16-3 17-1 9v24l3 21 4 15 7 19 9 17 10 14 13 15 12 11 15 11 18 10 20 8 21 5 16 2h24l21-3 19-5 21-9 14-8 16-12 13-12 9-10 12-17 9-17 7-18 5-21 2-16v-24l-3-21-5-19-9-21-8-14-12-16-12-13-14-12-15-10-15-8-19-7-15-4-21-3z" fill="#99182E"/>
<path transform="translate(169,419)" d="m0 0h156v62h-14v-48h-128v48h-14z" fill="#99182E"/>
<path transform="translate(363,614)" d="m0 0h276l-1 4-134 134 6 7 131 131-1 2h-278l2-4 135-135-6-7-128-128-2-1zm5 3 6 7 127 127 7-6 127-127v-1zm133 137-135 135v1h271l-6-7-129-129z" fill="#99182E"/>
<path transform="translate(254,448)" d="m0 0h42v33h-14v-20h-14v99h23v13h-37z" fill="#99182E"/>
<path transform="translate(198,448)" d="m0 0h42v125h-37v-13h23v-99h-15v20h-13z" fill="#99182E"/>
<path transform="translate(679,446)" d="m0 0h44v128h-44v-12h32v-104h-32z" fill="#99182E"/>
<path transform="translate(203,588)" d="m0 0h88v14h-88z" fill="#99182E"/>
</svg>
